<?xml version="1.0" encoding="UTF-8" standalone="no"?><!DOCTYPE svg PUBLIC "-//W3C//DTD SVG 1.1//EN" "http://www.w3.org/Graphics/SVG/1.1/DTD/svg11.dtd"><svg width="100%" height="100%" viewBox="0 0 1000 1000" version="1.1" xmlns="http://www.w3.org/2000/svg" xmlns:xlink="http://www.w3.org/1999/xlink" xml:space="preserve" xmlns:serif="http://www.serif.com/" style="fill-rule:evenodd;clip-rule:evenodd;stroke-linejoin:round;stroke-miterlimit:1.41421;"><rect id="Artboard1" x="0" y="0" width="1000" height="1000" style="fill:none;"/><g id="Artboard11" serif:id="Artboard1"><path id="border" d="M735.709,6.717l0.834,0.004l0.833,0.006l0.833,0.01l0.833,0.011l0.832,0.015l0.831,0.017l0.831,0.02l0.83,0.022l0.83,0.025l0.829,0.028l0.828,0.03l0.828,0.033l0.828,0.035l0.826,0.038l0.827,0.041l0.825,0.043l0.825,0.046l0.824,0.048l0.824,0.051l0.823,0.054l0.823,0.056l0.821,0.059l0.821,0.061l0.821,0.064l0.82,0.066l0.819,0.069l0.819,0.072l0.817,0.074l0.817,0.076l0.817,0.079l0.816,0.082l0.815,0.084l0.814,0.087l0.814,0.089l0.813,0.092l0.812,0.094l0.812,0.097l0.811,0.099l0.81,0.102l0.809,0.104l0.809,0.107l0.808,0.109l0.807,0.112l0.807,0.115l0.805,0.116l0.805,0.12l0.804,0.121l0.804,0.124l0.802,0.127l0.802,0.129l0.801,0.132l0.801,0.134l0.799,0.136l0.798,0.139l0.798,0.142l0.797,0.144l0.796,0.146l0.796,0.148l0.794,0.152l0.794,0.153l0.793,0.156l0.792,0.158l0.791,0.161l0.791,0.163l0.789,0.166l0.788,0.168l0.788,0.17l0.787,0.173l0.786,0.175l0.785,0.178l0.785,0.18l0.783,0.182l0.782,0.185l0.782,0.187l0.78,0.189l0.78,0.192l0.779,0.194l0.778,0.197l0.777,0.198l0.776,0.202l0.775,0.203l0.774,0.206l0.774,0.208l0.771,0.21l0.772,0.213l0.77,0.215l0.769,0.218l0.77,0.22l0.767,0.222l0.766,0.224l0.766,0.227l0.764,0.229l0.764,0.231l0.762,0.233l0.762,0.236l0.761,0.238l0.759,0.241l0.759,0.242l0.757,0.245l0.757,0.247l0.755,0.25l0.754,0.251l0.754,0.254l0.753,0.256l0.751,0.259l0.75,0.26l0.749,0.263l0.749,0.265l0.747,0.267l0.746,0.27l0.744,0.271l0.745,0.274l0.743,0.277l0.741,0.278l0.741,0.28l0.74,0.283l0.738,0.285l0.738,0.287l0.736,0.289l0.735,0.292l0.734,0.293l0.733,0.296l0.732,0.298l0.731,0.3l0.73,0.303l0.728,0.304l0.727,0.306l0.726,0.309l0.725,0.311l0.724,0.313l0.723,0.315l0.721,0.317l0.721,0.319l0.719,0.322l0.719,0.324l0.717,0.325l0.715,0.328l0.715,0.33l0.713,0.332l0.712,0.334l0.711,0.336l0.71,0.338l0.709,0.341l0.707,0.342l0.706,0.344l0.705,0.347l0.704,0.349l0.702,0.35l0.701,0.353l0.701,0.355l0.699,0.357l0.697,0.358l0.696,0.361l0.695,0.363l0.695,0.365l0.693,0.367l0.69,0.369l0.69,0.371l0.689,0.373l0.688,0.375l0.686,0.377l0.686,0.38l0.683,0.381l0.682,0.382l0.681,0.385l0.681,0.388l0.678,0.389l0.677,0.39l0.676,0.393l0.675,0.395l0.673,0.397l0.672,0.399l0.67,0.401l0.671,0.403l0.668,0.405l0.665,0.406l0.666,0.409l0.665,0.41l0.662,0.413l0.661,0.414l0.66,0.416l0.659,0.418l0.657,0.421l0.657,0.422l0.654,0.424l0.652,0.425l0.652,0.428l0.651,0.43l0.649,0.431l0.647,0.434l0.647,0.435l0.645,0.438l0.643,0.439l0.642,0.441l0.641,0.443l0.639,0.444l0.638,0.447l0.636,0.448l0.635,0.45l0.633,0.452l0.634,0.455l0.63,0.456l0.629,0.457l0.628,0.46l0.626,0.461l0.625,0.463l0.623,0.465l0.623,0.467l0.62,0.468l0.62,0.471l0.617,0.472l0.616,0.474l0.615,0.476l0.613,0.477l0.612,0.48l0.611,0.481l0.609,0.483l0.606,0.484l0.606,0.487l0.604,0.488l0.603,0.49l0.602,0.493l0.599,0.493l0.598,0.495l0.598,0.497l0.595,0.499l0.593,0.5l0.592,0.503l0.591,0.504l0.589,0.505l0.588,0.509l0.586,0.509l0.584,0.51l0.584,0.513l0.581,0.515l0.579,0.515l0.579,0.518l0.577,0.521l0.575,0.521l0.573,0.522l0.571,0.524l0.571,0.527l0.57,0.528l0.567,0.53l0.565,0.531l0.564,0.533l0.563,0.534l0.56,0.537l0.56,0.538l0.557,0.54l0.556,0.541l0.554,0.542l0.553,0.545l0.551,0.546l0.55,0.548l0.548,0.55l0.546,0.551l0.544,0.552l0.543,0.555l0.542,0.556l0.539,0.557l0.538,0.56l0.537,0.561l0.534,0.562l0.533,0.564l0.531,0.565l0.531,0.568l0.527,0.569l0.526,0.57l0.525,0.572l0.523,0.573l0.521,0.576l0.52,0.576l0.518,0.579l0.516,0.58l0.514,0.581l0.512,0.582l0.511,0.585l0.51,0.586l0.508,0.588l0.506,0.59l0.503,0.589l0.502,0.593l0.501,0.593l0.499,0.595l0.497,0.598l0.495,0.598l0.494,0.599l0.492,0.602l0.49,0.603l0.488,0.604l0.486,0.605l0.485,0.608l0.483,0.609l0.482,0.611l0.479,0.611l0.477,0.613l0.476,0.615l0.474,0.616l0.472,0.617l0.471,0.62l0.469,0.621l0.466,0.621l0.465,0.623l0.463,0.626l0.462,0.627l0.459,0.627l0.457,0.629l0.456,0.631l0.454,0.632l0.453,0.635l0.45,0.633l0.448,0.637l0.447,0.638l0.444,0.639l0.444,0.641l0.44,0.642l0.44,0.644l0.437,0.644l0.435,0.647l0.434,0.647l0.431,0.649l0.43,0.651l0.428,0.652l0.425,0.652l0.424,0.654l0.422,0.656l0.421,0.659l0.418,0.659l0.416,0.658l0.415,0.663l0.412,0.662l0.41,0.663l0.409,0.666l0.406,0.666l0.405,0.669l0.403,0.67l0.401,0.67l0.399,0.672l0.397,0.673l0.395,0.676l0.393,0.675l0.39,0.677l0.39,0.679l0.386,0.679l0.385,0.681l0.384,0.683l0.381,0.683l0.379,0.687l0.377,0.686l0.375,0.687l0.373,0.688l0.371,0.69l0.369,0.692l0.367,0.692l0.365,0.694l0.363,0.696l0.361,0.697l0.358,0.695l0.357,0.7l0.356,0.701l0.352,0.7l0.351,0.703l0.348,0.705l0.346,0.703l0.345,0.706l0.343,0.709l0.34,0.708l0.338,0.71l0.336,0.71l0.334,0.713l0.333,0.714l0.329,0.713l0.328,0.716l0.326,0.719l0.324,0.718l0.32,0.717l0.32,0.722l0.318,0.722l0.314,0.722l0.313,0.723l0.311,0.725l0.309,0.727l0.306,0.727l0.305,0.728l0.302,0.73l0.3,0.732l0.298,0.731l0.295,0.732l0.294,0.735l0.292,0.736l0.289,0.736l0.287,0.737l0.285,0.739l0.283,0.739l0.28,0.74l0.278,0.742l0.277,0.743l0.274,0.745l0.272,0.745l0.269,0.745l0.267,0.747l0.266,0.75l0.262,0.747l0.26,0.75l0.259,0.753l0.256,0.753l0.254,0.752l0.251,0.754l0.25,0.757l0.247,0.757l0.245,0.756l0.243,0.76l0.24,0.759l0.238,0.76l0.236,0.762l0.233,0.762l0.231,0.764l0.23,0.765l0.226,0.765l0.224,0.767l0.222,0.765l0.22,0.77l0.218,0.771l0.215,0.769l0.212,0.771l0.211,0.773l0.208,0.773l0.206,0.773l0.204,0.777l0.201,0.776l0.198,0.776l0.197,0.779l0.194,0.778l0.192,0.779l0.189,0.781l0.187,0.782l0.185,0.783l0.182,0.783l0.18,0.783l0.178,0.786l0.175,0.787l0.172,0.785l0.171,0.788l0.168,0.789l0.165,0.789l0.164,0.792l0.161,0.791l0.158,0.79l0.156,0.795l0.153,0.793l0.151,0.794l0.149,0.796l0.147,0.797l0.143,0.795l0.142,0.798l0.139,0.801l0.136,0.798l0.134,0.799l0.132,0.801l0.129,0.803l0.127,0.803l0.124,0.803l0.122,0.804l0.119,0.806l0.116,0.803l0.115,0.807l0.112,0.809l0.109,0.807l0.107,0.81l0.104,0.808l0.102,0.809l0.099,0.812l0.097,0.812l0.094,0.812l0.092,0.813l0.089,0.814l0.087,0.813l0.084,0.817l0.082,0.817l0.079,0.815l0.076,0.816l0.074,0.818l0.072,0.819l0.069,0.819l0.066,0.821l0.064,0.82l0.061,0.819l0.059,0.823l0.056,0.823l0.054,0.824l0.051,0.824l0.048,0.823l0.046,0.824l0.043,0.826l0.041,0.827l0.038,0.827l0.035,0.826l0.033,0.829l0.03,0.829l0.028,0.83l0.025,0.828l0.022,0.83l0.02,0.83l0.017,0.831l0.015,0.834l0.012,0.833l0.009,0.832l0.006,0.833l0.004,0.834l0.002,0.802l0,470.169l-0.002,0.801l-0.004,0.835l-0.006,0.832l-0.009,0.832l-0.012,0.834l-0.015,0.833l-0.017,0.831l-0.02,0.831l-0.022,0.83l-0.025,0.828l-0.028,0.83l-0.03,0.829l-0.033,0.828l-0.035,0.827l-0.038,0.826l-0.041,0.828l-0.043,0.825l-0.046,0.825l-0.048,0.823l-0.051,0.824l-0.054,0.823l-0.056,0.824l-0.059,0.822l-0.061,0.819l-0.064,0.82l-0.066,0.822l-0.069,0.819l-0.072,0.818l-0.074,0.819l-0.076,0.816l-0.079,0.815l-0.082,0.817l-0.084,0.816l-0.087,0.814l-0.089,0.814l-0.092,0.813l-0.094,0.812l-0.097,0.812l-0.099,0.811l-0.102,0.809l-0.104,0.809l-0.107,0.81l-0.109,0.807l-0.112,0.809l-0.115,0.806l-0.116,0.804l-0.119,0.805l-0.122,0.805l-0.124,0.802l-0.127,0.804l-0.129,0.803l-0.132,0.8l-0.134,0.8l-0.136,0.798l-0.139,0.8l-0.142,0.798l-0.143,0.796l-0.147,0.797l-0.149,0.796l-0.151,0.794l-0.153,0.793l-0.156,0.794l-0.158,0.79l-0.161,0.791l-0.164,0.793l-0.165,0.788l-0.168,0.789l-0.171,0.789l-0.172,0.784l-0.175,0.787l-0.178,0.787l-0.18,0.782l-0.182,0.784l-0.185,0.782l-0.187,0.782l-0.189,0.782l-0.192,0.778l-0.194,0.778l-0.196,0.779l-0.199,0.777l-0.201,0.776l-0.204,0.776l-0.206,0.773l-0.208,0.774l-0.211,0.773l-0.212,0.77l-0.215,0.77l-0.218,0.77l-0.22,0.77l-0.222,0.766l-0.224,0.766l-0.226,0.765l-0.23,0.766l-0.231,0.764l-0.233,0.761l-0.236,0.763l-0.238,0.759l-0.24,0.76l-0.243,0.76l-0.245,0.756l-0.247,0.757l-0.25,0.757l-0.251,0.753l-0.254,0.753l-0.256,0.753l-0.259,0.752l-0.26,0.751l-0.262,0.746l-0.266,0.75l-0.267,0.748l-0.269,0.744l-0.272,0.746l-0.274,0.744l-0.277,0.744l-0.278,0.741l-0.28,0.74l-0.283,0.74l-0.285,0.738l-0.287,0.737l-0.289,0.737l-0.292,0.736l-0.293,0.734l-0.296,0.733l-0.298,0.731l-0.3,0.732l-0.302,0.729l-0.305,0.728l-0.306,0.728l-0.309,0.726l-0.311,0.726l-0.313,0.723l-0.314,0.721l-0.318,0.723l-0.32,0.722l-0.32,0.717l-0.324,0.718l-0.326,0.719l-0.328,0.715l-0.329,0.713l-0.333,0.715l-0.334,0.712l-0.336,0.711l-0.338,0.709l-0.34,0.708l-0.343,0.71l-0.345,0.705l-0.346,0.704l-0.349,0.705l-0.35,0.702l-0.352,0.7l-0.356,0.702l-0.357,0.699l-0.358,0.696l-0.361,0.696l-0.363,0.696l-0.365,0.695l-0.367,0.691l-0.369,0.692l-0.372,0.691l-0.372,0.688l-0.375,0.687l-0.377,0.686l-0.379,0.685l-0.381,0.684l-0.384,0.684l-0.385,0.681l-0.386,0.678l-0.389,0.679l-0.391,0.677l-0.393,0.676l-0.395,0.675l-0.397,0.674l-0.399,0.672l-0.401,0.67l-0.402,0.669l-0.405,0.669l-0.407,0.666l-0.409,0.666l-0.41,0.663l-0.412,0.663l-0.416,0.663l-0.415,0.658l-0.418,0.658l-0.421,0.659l-0.422,0.656l-0.424,0.654l-0.425,0.653l-0.428,0.652l-0.43,0.651l-0.431,0.648l-0.434,0.648l-0.435,0.646l-0.438,0.645l-0.439,0.644l-0.44,0.641l-0.443,0.641l-0.445,0.639l-0.447,0.639l-0.448,0.636l-0.45,0.634l-0.452,0.634l-0.455,0.633l-0.456,0.631l-0.456,0.628l-0.459,0.627l-0.462,0.627l-0.465,0.627l-0.465,0.623l-0.465,0.62l-0.47,0.622l-0.47,0.619l-0.472,0.617l-0.474,0.617l-0.476,0.615l-0.477,0.613l-0.479,0.611l-0.482,0.611l-0.483,0.608l-0.485,0.608l-0.487,0.607l-0.487,0.602l-0.49,0.603l-0.492,0.602l-0.494,0.6l-0.495,0.598l-0.497,0.596l-0.499,0.596l-0.501,0.595l-0.502,0.591l-0.503,0.59l-0.507,0.59l-0.508,0.588l-0.509,0.586l-0.51,0.584l-0.513,0.583l-0.515,0.581l-0.515,0.579l-0.518,0.579l-0.52,0.577l-0.521,0.575l-0.523,0.574l-0.525,0.572l-0.525,0.569l-0.528,0.569l-0.531,0.569l-0.531,0.565l-0.533,0.564l-0.534,0.561l-0.536,0.562l-0.539,0.559l-0.538,0.557l-0.544,0.558l-0.542,0.553l-0.544,0.552l-0.546,0.552l-0.548,0.549l-0.55,0.548l-0.55,0.546l-0.554,0.546l-0.555,0.543l-0.555,0.54l-0.557,0.539l-0.559,0.538l-0.562,0.538l-0.563,0.534l-0.563,0.533l-0.565,0.53l-0.567,0.53l-0.57,0.529l-0.572,0.527l-0.571,0.524l-0.571,0.521l-0.576,0.522l-0.578,0.52l-0.578,0.518l-0.579,0.516l-0.581,0.513l-0.584,0.514l-0.584,0.511l-0.586,0.509l-0.588,0.508l-0.589,0.505l-0.59,0.505l-0.593,0.502l-0.593,0.5l-0.596,0.5l-0.596,0.496l-0.598,0.495l-0.601,0.495l-0.601,0.491l-0.602,0.49l-0.606,0.489l-0.606,0.487l-0.605,0.483l-0.609,0.483l-0.612,0.482l-0.611,0.48l-0.613,0.477l-0.615,0.476l-0.615,0.473l-0.618,0.472l-0.621,0.472l-0.619,0.468l-0.622,0.467l-0.624,0.465l-0.625,0.463l-0.626,0.461l-0.628,0.459l-0.629,0.458l-0.63,0.455l-0.633,0.455l-0.634,0.452l-0.634,0.45l-0.638,0.449l-0.637,0.446l-0.638,0.444l-0.641,0.443l-0.642,0.442l-0.644,0.439l-0.645,0.437l-0.647,0.436l-0.648,0.433l-0.648,0.431l-0.65,0.43l-0.653,0.429l-0.653,0.425l-0.653,0.423l-0.656,0.422l-0.659,0.422l-0.659,0.418l-0.659,0.415l-0.66,0.414l-0.663,0.413l-0.666,0.412l-0.665,0.408l-0.665,0.406l-0.668,0.404l-0.671,0.404l-0.671,0.401l-0.671,0.398l-0.673,0.397l-0.675,0.395l-0.676,0.393l-0.677,0.391l-0.677,0.388l-0.683,0.389l-0.681,0.385l-0.68,0.382l-0.684,0.381l-0.685,0.379l-0.687,0.377l-0.688,0.375l-0.688,0.373l-0.691,0.372l-0.691,0.368l-0.693,0.367l-0.693,0.365l-0.695,0.363l-0.697,0.362l-0.697,0.358l-0.699,0.357l-0.701,0.355l-0.701,0.352l-0.701,0.35l-0.704,0.349l-0.707,0.348l-0.706,0.344l-0.705,0.341l-0.71,0.342l-0.71,0.338l-0.71,0.335l-0.713,0.335l-0.714,0.332l-0.714,0.33l-0.715,0.327l-0.717,0.326l-0.718,0.323l-0.721,0.323l-0.72,0.318l-0.72,0.317l-0.724,0.316l-0.725,0.313l-0.723,0.31l-0.727,0.309l-0.728,0.307l-0.727,0.304l-0.73,0.302l-0.732,0.301l-0.731,0.297l-0.732,0.296l-0.735,0.294l-0.735,0.291l-0.737,0.29l-0.738,0.287l-0.738,0.285l-0.739,0.282l-0.741,0.281l-0.74,0.277l-0.744,0.277l-0.745,0.274l-0.743,0.271l-0.747,0.27l-0.747,0.267l-0.748,0.265l-0.751,0.264l-0.75,0.26l-0.75,0.258l-0.752,0.256l-0.755,0.254l-0.754,0.252l-0.754,0.249l-0.759,0.248l-0.757,0.245l-0.757,0.242l-0.761,0.24l-0.762,0.239l-0.76,0.235l-0.762,0.233l-0.764,0.232l-0.764,0.229l-0.765,0.226l-0.766,0.224l-0.769,0.223l-0.768,0.22l-0.769,0.217l-0.771,0.215l-0.773,0.213l-0.77,0.21l-0.774,0.209l-0.775,0.206l-0.774,0.203l-0.776,0.201l-0.777,0.199l-0.777,0.196l-0.779,0.194l-0.782,0.193l-0.781,0.189l-0.78,0.187l-0.781,0.184l-0.783,0.182l-0.786,0.181l-0.785,0.177l-0.785,0.175l-0.788,0.173l-0.787,0.17l-0.79,0.169l-0.789,0.165l-0.789,0.163l-0.793,0.161l-0.792,0.159l-0.791,0.155l-0.795,0.154l-0.795,0.151l-0.795,0.149l-0.795,0.146l-0.797,0.144l-0.799,0.141l-0.798,0.139l-0.801,0.137l-0.799,0.134l-0.8,0.131l-0.803,0.129l-0.803,0.127l-0.804,0.124l-0.801,0.122l-0.805,0.119l-0.808,0.117l-0.807,0.114l-0.806,0.112l-0.808,0.109l-0.808,0.107l-0.81,0.104l-0.811,0.102l-0.81,0.1l-0.812,0.096l-0.812,0.095l-0.813,0.091l-0.813,0.09l-0.814,0.086l-0.817,0.085l-0.815,0.081l-0.817,0.079l-0.818,0.077l-0.816,0.074l-0.819,0.071l-0.819,0.069l-0.82,0.067l-0.821,0.064l-0.821,0.061l-0.821,0.058l-0.823,0.057l-0.824,0.053l-0.822,0.051l-0.824,0.049l-0.827,0.045l-0.824,0.044l-0.825,0.04l-0.829,0.038l-0.828,0.036l-0.827,0.032l-0.827,0.031l-0.83,0.027l-0.829,0.025l-0.831,0.023l-0.832,0.02l-0.831,0.017l-0.83,0.014l-0.833,0.012l-0.834,0.009l-0.834,0.007l-0.833,0.004l-0.8,0.001l-470.172,0l-0.8,-0.001l-0.833,-0.004l-0.834,-0.007l-0.834,-0.009l-0.834,-0.012l-0.829,-0.014l-0.831,-0.017l-0.833,-0.02l-0.83,-0.023l-0.83,-0.025l-0.829,-0.027l-0.828,-0.031l-0.826,-0.032l-0.829,-0.036l-0.828,-0.038l-0.826,-0.04l-0.823,-0.044l-0.827,-0.045l-0.824,-0.049l-0.823,-0.051l-0.823,-0.053l-0.824,-0.057l-0.82,-0.058l-0.821,-0.061l-0.822,-0.064l-0.819,-0.067l-0.82,-0.069l-0.818,-0.071l-0.817,-0.074l-0.817,-0.077l-0.818,-0.079l-0.815,-0.081l-0.816,-0.085l-0.814,-0.086l-0.813,-0.09l-0.813,-0.091l-0.813,-0.095l-0.812,-0.096l-0.809,-0.1l-0.811,-0.101l-0.811,-0.105l-0.808,-0.107l-0.807,-0.109l-0.807,-0.112l-0.806,-0.114l-0.808,-0.117l-0.805,-0.119l-0.801,-0.122l-0.804,-0.124l-0.804,-0.127l-0.802,-0.129l-0.801,-0.131l-0.798,-0.134l-0.801,-0.137l-0.799,-0.139l-0.798,-0.141l-0.798,-0.144l-0.795,-0.146l-0.794,-0.149l-0.796,-0.151l-0.795,-0.154l-0.79,-0.155l-0.792,-0.159l-0.793,-0.161l-0.789,-0.163l-0.79,-0.165l-0.789,-0.169l-0.787,-0.17l-0.788,-0.173l-0.785,-0.175l-0.785,-0.177l-0.786,-0.181l-0.783,-0.182l-0.781,-0.184l-0.78,-0.187l-0.782,-0.189l-0.782,-0.193l-0.778,-0.194l-0.777,-0.196l-0.777,-0.199l-0.776,-0.201l-0.775,-0.203l-0.774,-0.206l-0.774,-0.209l-0.771,-0.21l-0.772,-0.213l-0.771,-0.215l-0.769,-0.217l-0.768,-0.22l-0.769,-0.222l-0.767,-0.225l-0.764,-0.226l-0.765,-0.229l-0.764,-0.232l-0.761,-0.233l-0.761,-0.235l-0.762,-0.239l-0.761,-0.24l-0.756,-0.242l-0.758,-0.245l-0.758,-0.248l-0.754,-0.249l-0.755,-0.252l-0.754,-0.254l-0.752,-0.256l-0.751,-0.258l-0.749,-0.26l-0.751,-0.264l-0.748,-0.265l-0.747,-0.267l-0.747,-0.27l-0.744,-0.271l-0.744,-0.274l-0.744,-0.276l-0.741,-0.278l-0.74,-0.281l-0.739,-0.282l-0.739,-0.285l-0.737,-0.287l-0.737,-0.29l-0.736,-0.291l-0.734,-0.294l-0.733,-0.296l-0.731,-0.297l-0.732,-0.301l-0.729,-0.302l-0.727,-0.304l-0.729,-0.307l-0.726,-0.309l-0.724,-0.31l-0.725,-0.313l-0.723,-0.316l-0.721,-0.317l-0.72,-0.319l-0.72,-0.322l-0.718,-0.323l-0.717,-0.326l-0.715,-0.327l-0.715,-0.33l-0.713,-0.332l-0.714,-0.335l-0.71,-0.336l-0.709,-0.337l-0.71,-0.341l-0.705,-0.342l-0.707,-0.344l-0.706,-0.348l-0.704,-0.349l-0.702,-0.35l-0.7,-0.352l-0.701,-0.355l-0.699,-0.357l-0.697,-0.358l-0.698,-0.362l-0.695,-0.363l-0.692,-0.364l-0.693,-0.367l-0.692,-0.37l-0.691,-0.371l-0.688,-0.373l-0.687,-0.374l-0.687,-0.378l-0.685,-0.379l-0.684,-0.381l-0.681,-0.382l-0.681,-0.385l-0.682,-0.389l-0.678,-0.388l-0.676,-0.391l-0.677,-0.393l-0.674,-0.395l-0.673,-0.397l-0.672,-0.398l-0.671,-0.401l-0.67,-0.403l-0.668,-0.405l-0.666,-0.406l-0.665,-0.408l-0.665,-0.412l-0.663,-0.413l-0.661,-0.414l-0.659,-0.415l-0.658,-0.419l-0.659,-0.421l-0.655,-0.421l-0.654,-0.424l-0.654,-0.426l-0.652,-0.428l-0.65,-0.43l-0.649,-0.431l-0.648,-0.434l-0.646,-0.435l-0.645,-0.437l-0.644,-0.439l-0.642,-0.442l-0.64,-0.442l-0.639,-0.445l-0.637,-0.446l-0.638,-0.449l-0.635,-0.45l-0.633,-0.452l-0.633,-0.454l-0.629,-0.455l-0.63,-0.458l-0.629,-0.46l-0.625,-0.461l-0.625,-0.463l-0.624,-0.466l-0.622,-0.466l-0.62,-0.468l-0.62,-0.472l-0.618,-0.472l-0.616,-0.473l-0.615,-0.477l-0.612,-0.477l-0.612,-0.479l-0.611,-0.482l-0.609,-0.482l-0.606,-0.484l-0.606,-0.487l-0.605,-0.489l-0.603,-0.49l-0.6,-0.491l-0.602,-0.495l-0.598,-0.495l-0.595,-0.496l-0.596,-0.5l-0.594,-0.5l-0.592,-0.503l-0.591,-0.504l-0.588,-0.505l-0.588,-0.508l-0.586,-0.509l-0.585,-0.511l-0.584,-0.514l-0.58,-0.513l-0.58,-0.516l-0.578,-0.518l-0.577,-0.519l-0.575,-0.522l-0.573,-0.522l-0.572,-0.524l-0.571,-0.527l-0.569,-0.529l-0.567,-0.529l-0.566,-0.532l-0.563,-0.532l-0.563,-0.534l-0.562,-0.538l-0.558,-0.537l-0.557,-0.54l-0.556,-0.54l-0.555,-0.544l-0.554,-0.545l-0.55,-0.546l-0.549,-0.548l-0.548,-0.549l-0.547,-0.552l-0.543,-0.552l-0.543,-0.553l-0.543,-0.558l-0.539,-0.557l-0.538,-0.559l-0.536,-0.561l-0.535,-0.562l-0.533,-0.565l-0.53,-0.565l-0.53,-0.567l-0.529,-0.569l-0.526,-0.57l-0.524,-0.572l-0.524,-0.574l-0.521,-0.575l-0.519,-0.577l-0.518,-0.578l-0.515,-0.579l-0.515,-0.582l-0.513,-0.584l-0.511,-0.583l-0.509,-0.586l-0.507,-0.588l-0.507,-0.59l-0.504,-0.59l-0.501,-0.591l-0.502,-0.595l-0.499,-0.596l-0.496,-0.595l-0.496,-0.599l-0.494,-0.6l-0.491,-0.602l-0.49,-0.602l-0.488,-0.603l-0.487,-0.607l-0.485,-0.608l-0.482,-0.608l-0.482,-0.611l-0.479,-0.611l-0.478,-0.614l-0.476,-0.614l-0.473,-0.616l-0.473,-0.618l-0.47,-0.619l-0.469,-0.621l-0.466,-0.621l-0.465,-0.624l-0.464,-0.626l-0.462,-0.627l-0.459,-0.627l-0.457,-0.628l-0.456,-0.631l-0.454,-0.633l-0.452,-0.633l-0.45,-0.635l-0.449,-0.637l-0.446,-0.637l-0.445,-0.64l-0.443,-0.64l-0.441,-0.642l-0.439,-0.644l-0.437,-0.645l-0.435,-0.646l-0.434,-0.648l-0.431,-0.648l-0.43,-0.65l-0.428,-0.653l-0.426,-0.654l-0.424,-0.654l-0.422,-0.656l-0.42,-0.657l-0.418,-0.658l-0.416,-0.66l-0.415,-0.662l-0.412,-0.663l-0.411,-0.663l-0.408,-0.665l-0.407,-0.668l-0.405,-0.668l-0.403,-0.669l-0.4,-0.67l-0.399,-0.672l-0.397,-0.674l-0.395,-0.674l-0.393,-0.676l-0.391,-0.678l-0.389,-0.679l-0.387,-0.679l-0.385,-0.681l-0.383,-0.683l-0.381,-0.684l-0.379,-0.684l-0.377,-0.686l-0.375,-0.688l-0.373,-0.689l-0.371,-0.69l-0.37,-0.692l-0.366,-0.692l-0.365,-0.694l-0.363,-0.695l-0.361,-0.696l-0.359,-0.698l-0.357,-0.699l-0.355,-0.7l-0.352,-0.701l-0.351,-0.702l-0.349,-0.704l-0.346,-0.705l-0.344,-0.706l-0.343,-0.708l-0.34,-0.709l-0.338,-0.709l-0.337,-0.711l-0.334,-0.712l-0.332,-0.714l-0.33,-0.715l-0.327,-0.715l-0.326,-0.717l-0.324,-0.718l-0.321,-0.719l-0.319,-0.721l-0.318,-0.722l-0.314,-0.722l-0.313,-0.724l-0.311,-0.725l-0.309,-0.727l-0.307,-0.727l-0.304,-0.729l-0.302,-0.729l-0.3,-0.73l-0.298,-0.732l-0.296,-0.734l-0.294,-0.733l-0.291,-0.735l-0.29,-0.737l-0.286,-0.737l-0.285,-0.739l-0.283,-0.74l-0.281,-0.74l-0.278,-0.742l-0.276,-0.743l-0.274,-0.744l-0.272,-0.745l-0.269,-0.746l-0.267,-0.747l-0.265,-0.748l-0.263,-0.749l-0.261,-0.751l-0.258,-0.751l-0.256,-0.753l-0.254,-0.753l-0.252,-0.754l-0.249,-0.756l-0.247,-0.756l-0.245,-0.758l-0.243,-0.759l-0.24,-0.759l-0.238,-0.76l-0.236,-0.762l-0.234,-0.763l-0.231,-0.763l-0.229,-0.765l-0.226,-0.765l-0.225,-0.767l-0.222,-0.768l-0.219,-0.768l-0.218,-0.769l-0.215,-0.771l-0.213,-0.771l-0.21,-0.772l-0.209,-0.774l-0.205,-0.774l-0.204,-0.775l-0.201,-0.776l-0.199,-0.777l-0.196,-0.778l-0.194,-0.778l-0.192,-0.78l-0.19,-0.781l-0.187,-0.781l-0.184,-0.783l-0.183,-0.783l-0.179,-0.784l-0.178,-0.786l-0.175,-0.786l-0.173,-0.786l-0.17,-0.788l-0.168,-0.789l-0.166,-0.789l-0.163,-0.791l-0.161,-0.791l-0.158,-0.792l-0.156,-0.793l-0.154,-0.793l-0.151,-0.795l-0.149,-0.795l-0.146,-0.796l-0.144,-0.797l-0.141,-0.798l-0.139,-0.799l-0.137,-0.799l-0.134,-0.8l-0.131,-0.801l-0.129,-0.802l-0.127,-0.803l-0.124,-0.803l-0.122,-0.804l-0.119,-0.805l-0.117,-0.806l-0.114,-0.806l-0.112,-0.807l-0.109,-0.808l-0.107,-0.809l-0.104,-0.81l-0.102,-0.81l-0.1,-0.811l-0.096,-0.811l-0.095,-0.812l-0.091,-0.813l-0.09,-0.814l-0.086,-0.815l-0.085,-0.815l-0.081,-0.815l-0.079,-0.817l-0.077,-0.817l-0.074,-0.818l-0.071,-0.819l-0.069,-0.819l-0.067,-0.82l-0.063,-0.82l-0.062,-0.821l-0.058,-0.822l-0.057,-0.822l-0.053,-0.823l-0.051,-0.824l-0.048,-0.824l-0.046,-0.825l-0.043,-0.826l-0.041,-0.826l-0.038,-0.827l-0.036,-0.827l-0.032,-0.828l-0.031,-0.829l-0.027,-0.829l-0.025,-0.829l-0.023,-0.831l-0.019,-0.83l-0.018,-0.832l-0.014,-0.832l-0.012,-0.832l-0.009,-0.833l-0.007,-0.834l-0.004,-0.834l-0.001,-0.801l0,-470.169l0.001,-0.802l0.004,-0.834l0.007,-0.833l0.009,-0.833l0.012,-0.833l0.015,-0.832l0.017,-0.831l0.019,-0.831l0.023,-0.83l0.025,-0.83l0.027,-0.829l0.031,-0.828l0.032,-0.828l0.036,-0.828l0.038,-0.826l0.041,-0.826l0.043,-0.826l0.046,-0.825l0.048,-0.824l0.051,-0.824l0.053,-0.823l0.057,-0.822l0.058,-0.822l0.062,-0.821l0.063,-0.821l0.067,-0.82l0.069,-0.819l0.071,-0.818l0.074,-0.818l0.077,-0.817l0.079,-0.817l0.082,-0.816l0.084,-0.815l0.086,-0.814l0.09,-0.814l0.091,-0.813l0.095,-0.812l0.096,-0.812l0.1,-0.811l0.102,-0.81l0.104,-0.809l0.107,-0.809l0.109,-0.808l0.112,-0.807l0.114,-0.806l0.117,-0.806l0.119,-0.805l0.122,-0.804l0.124,-0.804l0.127,-0.802l0.129,-0.802l0.131,-0.801l0.134,-0.8l0.137,-0.8l0.139,-0.798l0.141,-0.798l0.144,-0.797l0.146,-0.796l0.149,-0.796l0.151,-0.794l0.154,-0.794l0.156,-0.793l0.158,-0.792l0.161,-0.791l0.163,-0.79l0.166,-0.79l0.168,-0.788l0.17,-0.788l0.173,-0.787l0.175,-0.786l0.177,-0.785l0.18,-0.784l0.183,-0.784l0.184,-0.782l0.187,-0.782l0.19,-0.78l0.192,-0.78l0.194,-0.779l0.196,-0.778l0.199,-0.777l0.201,-0.776l0.204,-0.775l0.205,-0.774l0.209,-0.773l0.21,-0.772l0.213,-0.772l0.215,-0.77l0.217,-0.77l0.22,-0.768l0.222,-0.768l0.225,-0.766l0.226,-0.766l0.229,-0.764l0.231,-0.764l0.234,-0.762l0.236,-0.762l0.238,-0.76l0.24,-0.76l0.243,-0.758l0.245,-0.758l0.247,-0.757l0.249,-0.755l0.252,-0.754l0.254,-0.754l0.256,-0.752l0.258,-0.752l0.261,-0.75l0.263,-0.749l0.265,-0.749l0.267,-0.747l0.269,-0.745l0.272,-0.746l0.274,-0.744l0.276,-0.742l0.278,-0.742l0.281,-0.741l0.283,-0.74l0.285,-0.738l0.287,-0.738l0.289,-0.736l0.291,-0.735l0.294,-0.734l0.296,-0.733l0.298,-0.732l0.3,-0.731l0.302,-0.729l0.304,-0.729l0.307,-0.727l0.309,-0.726l0.31,-0.725l0.313,-0.724l0.316,-0.723l0.317,-0.722l0.319,-0.72l0.321,-0.719l0.324,-0.718l0.326,-0.717l0.328,-0.716l0.329,-0.714l0.332,-0.714l0.334,-0.712l0.337,-0.711l0.338,-0.71l0.34,-0.709l0.343,-0.707l0.344,-0.706l0.346,-0.705l0.349,-0.704l0.351,-0.703l0.352,-0.7l0.355,-0.701l0.357,-0.699l0.359,-0.697l0.361,-0.697l0.363,-0.695l0.365,-0.693l0.367,-0.693l0.369,-0.692l0.371,-0.69l0.373,-0.688l0.375,-0.688l0.377,-0.686l0.379,-0.685l0.381,-0.684l0.383,-0.682l0.385,-0.682l0.387,-0.679l0.389,-0.679l0.391,-0.677l0.393,-0.676l0.395,-0.675l0.397,-0.673l0.399,-0.672l0.4,-0.671l0.403,-0.669l0.405,-0.668l0.407,-0.667l0.408,-0.665l0.411,-0.664l0.412,-0.663l0.415,-0.661l0.416,-0.66l0.418,-0.659l0.42,-0.657l0.422,-0.656l0.424,-0.654l0.426,-0.654l0.428,-0.651l0.43,-0.651l0.431,-0.649l0.434,-0.648l0.435,-0.646l0.437,-0.644l0.439,-0.644l0.441,-0.642l0.443,-0.641l0.445,-0.639l0.446,-0.638l0.449,-0.636l0.45,-0.635l0.452,-0.634l0.454,-0.632l0.456,-0.631l0.458,-0.629l0.459,-0.628l0.461,-0.626l0.464,-0.625l0.465,-0.624l0.466,-0.622l0.469,-0.62l0.47,-0.619l0.473,-0.618l0.473,-0.616l0.476,-0.615l0.478,-0.613l0.479,-0.612l0.481,-0.61l0.483,-0.609l0.485,-0.607l0.487,-0.606l0.488,-0.605l0.49,-0.602l0.492,-0.601l0.493,-0.6l0.496,-0.599l0.497,-0.596l0.499,-0.595l0.5,-0.594l0.503,-0.593l0.504,-0.59l0.505,-0.589l0.508,-0.588l0.509,-0.586l0.511,-0.584l0.513,-0.583l0.514,-0.582l0.516,-0.579l0.518,-0.579l0.519,-0.576l0.522,-0.576l0.523,-0.573l0.524,-0.572l0.526,-0.57l0.528,-0.569l0.53,-0.567l0.531,-0.566l0.533,-0.564l0.535,-0.563l0.536,-0.56l0.538,-0.559l0.54,-0.558l0.541,-0.556l0.543,-0.555l0.545,-0.552l0.546,-0.551l0.548,-0.55l0.549,-0.548l0.551,-0.546l0.553,-0.544l0.555,-0.543l0.556,-0.542l0.557,-0.539l0.559,-0.538l0.561,-0.536l0.563,-0.535l0.564,-0.533l0.565,-0.531l0.567,-0.53l0.569,-0.528l0.571,-0.526l0.572,-0.525l0.573,-0.523l0.575,-0.521l0.577,-0.52l0.578,-0.517l0.58,-0.516l0.581,-0.515l0.583,-0.513l0.585,-0.511l0.586,-0.509l0.587,-0.507l0.589,-0.506l0.591,-0.504l0.592,-0.502l0.594,-0.501l0.595,-0.499l0.597,-0.497l0.598,-0.495l0.6,-0.494l0.601,-0.491l0.603,-0.491l0.604,-0.488l0.606,-0.486l0.608,-0.485l0.608,-0.483l0.611,-0.481l0.611,-0.48l0.613,-0.477l0.615,-0.476l0.617,-0.474l0.617,-0.472l0.619,-0.471l0.621,-0.468l0.622,-0.467l0.623,-0.465l0.625,-0.463l0.627,-0.461l0.628,-0.46l0.629,-0.458l0.631,-0.455l0.632,-0.454l0.633,-0.453l0.635,-0.45l0.637,-0.448l0.637,-0.447l0.64,-0.444l0.641,-0.443l0.642,-0.441l0.643,-0.439l0.645,-0.438l0.646,-0.435l0.648,-0.433l0.649,-0.432l0.65,-0.43l0.652,-0.427l0.653,-0.426l0.655,-0.424l0.655,-0.422l0.658,-0.42l0.658,-0.419l0.66,-0.416l0.662,-0.414l0.662,-0.413l0.664,-0.41l0.666,-0.409l0.666,-0.407l0.669,-0.404l0.669,-0.403l0.671,-0.401l0.672,-0.399l0.673,-0.397l0.674,-0.394l0.677,-0.394l0.677,-0.391l0.678,-0.388l0.68,-0.388l0.681,-0.385l0.683,-0.383l0.683,-0.381l0.685,-0.379l0.687,-0.377l0.687,-0.375l0.689,-0.373l0.69,-0.371l0.691,-0.369l0.693,-0.367l0.694,-0.365l0.695,-0.363l0.696,-0.361l0.698,-0.359l0.699,-0.356l0.7,-0.355l0.701,-0.353l0.703,-0.35l0.703,-0.349l0.705,-0.346l0.707,-0.345l0.707,-0.342l0.709,-0.341l0.709,-0.338l0.711,-0.336l0.713,-0.334l0.713,-0.332l0.714,-0.33l0.716,-0.328l0.717,-0.325l0.718,-0.324l0.72,-0.322l0.72,-0.319l0.722,-0.317l0.722,-0.315l0.724,-0.313l0.725,-0.311l0.726,-0.309l0.728,-0.306l0.728,-0.305l0.73,-0.302l0.731,-0.3l0.731,-0.298l0.733,-0.296l0.735,-0.293l0.735,-0.292l0.736,-0.289l0.738,-0.287l0.738,-0.285l0.74,-0.283l0.74,-0.28l0.742,-0.278l0.743,-0.277l0.744,-0.274l0.745,-0.271l0.746,-0.27l0.747,-0.267l0.748,-0.265l0.75,-0.263l0.75,-0.26l0.751,-0.259l0.753,-0.256l0.753,-0.254l0.755,-0.251l0.755,-0.25l0.757,-0.247l0.757,-0.245l0.758,-0.242l0.76,-0.241l0.761,-0.238l0.761,-0.236l0.763,-0.233l0.763,-0.231l0.765,-0.229l0.766,-0.227l0.766,-0.224l0.767,-0.222l0.769,-0.22l0.769,-0.218l0.771,-0.215l0.771,-0.212l0.772,-0.211l0.774,-0.208l0.774,-0.206l0.775,-0.203l0.776,-0.202l0.777,-0.198l0.778,-0.197l0.779,-0.194l0.779,-0.192l0.781,-0.189l0.781,-0.187l0.783,-0.185l0.783,-0.182l0.785,-0.18l0.785,-0.178l0.785,-0.175l0.787,-0.173l0.788,-0.17l0.789,-0.168l0.789,-0.166l0.79,-0.163l0.792,-0.161l0.792,-0.158l0.793,-0.156l0.793,-0.153l0.795,-0.152l0.795,-0.148l0.796,-0.146l0.797,-0.144l0.798,-0.142l0.799,-0.139l0.799,-0.136l0.801,-0.134l0.801,-0.132l0.801,-0.129l0.803,-0.126l0.803,-0.125l0.804,-0.121l0.805,-0.12l0.806,-0.116l0.806,-0.115l0.808,-0.112l0.808,-0.109l0.808,-0.107l0.81,-0.104l0.81,-0.102l0.811,-0.099l0.811,-0.097l0.813,-0.094l0.813,-0.092l0.813,-0.089l0.815,-0.087l0.815,-0.084l0.816,-0.082l0.816,-0.079l0.817,-0.076l0.818,-0.074l0.819,-0.072l0.819,-0.069l0.82,-0.066l0.82,-0.064l0.821,-0.061l0.822,-0.059l0.823,-0.056l0.823,-0.054l0.823,-0.051l0.825,-0.048l0.825,-0.046l0.825,-0.043l0.826,-0.041l0.827,-0.038l0.827,-0.035l0.828,-0.033l0.829,-0.03l0.829,-0.028l0.829,-0.025l0.831,-0.022l0.831,-0.02l0.831,-0.017l0.832,-0.015l0.832,-0.011l0.833,-0.01l0.834,-0.006l0.834,-0.004l0.801,-0.002l470.169,0l0.802,0.002Zm-470.938,41.998l-0.701,0.002l-0.701,0.003l-0.7,0.005l-0.7,0.008l-0.699,0.01l-0.699,0.012l-0.698,0.015l-0.698,0.016l-0.697,0.019l-0.697,0.021l-0.696,0.023l-0.695,0.026l-0.695,0.027l-0.695,0.03l-0.693,0.032l-0.694,0.034l-0.692,0.036l-0.693,0.039l-0.691,0.04l-0.691,0.043l-0.69,0.045l-0.69,0.047l-0.689,0.049l-0.689,0.052l-0.688,0.053l-0.688,0.056l-0.686,0.058l-0.687,0.06l-0.685,0.062l-0.685,0.064l-0.685,0.066l-0.683,0.069l-0.683,0.07l-0.683,0.073l-0.682,0.075l-0.681,0.076l-0.681,0.079l-0.68,0.082l-0.679,0.083l-0.679,0.085l-0.678,0.087l-0.677,0.09l-0.677,0.091l-0.676,0.094l-0.675,0.096l-0.675,0.098l-0.674,0.099l-0.673,0.102l-0.673,0.104l-0.672,0.106l-0.672,0.109l-0.67,0.11l-0.67,0.112l-0.67,0.114l-0.668,0.117l-0.668,0.118l-0.667,0.12l-0.667,0.123l-0.665,0.124l-0.666,0.127l-0.664,0.128l-0.664,0.131l-0.662,0.132l-0.663,0.135l-0.661,0.136l-0.661,0.139l-0.66,0.141l-0.659,0.142l-0.659,0.145l-0.657,0.146l-0.657,0.149l-0.657,0.151l-0.655,0.152l-0.655,0.155l-0.654,0.156l-0.653,0.159l-0.652,0.16l-0.652,0.162l-0.651,0.165l-0.65,0.166l-0.649,0.169l-0.649,0.17l-0.648,0.172l-0.647,0.174l-0.646,0.176l-0.645,0.178l-0.645,0.18l-0.643,0.182l-0.643,0.184l-0.643,0.186l-0.641,0.188l-0.64,0.189l-0.64,0.192l-0.639,0.193l-0.638,0.196l-0.637,0.197l-0.636,0.199l-0.636,0.201l-0.635,0.203l-0.633,0.205l-0.633,0.207l-0.633,0.208l-0.631,0.211l-0.63,0.212l-0.63,0.215l-0.628,0.216l-0.628,0.218l-0.627,0.22l-0.626,0.222l-0.625,0.223l-0.625,0.226l-0.623,0.227l-0.623,0.229l-0.621,0.231l-0.621,0.233l-0.62,0.235l-0.619,0.237l-0.618,0.238l-0.617,0.24l-0.616,0.242l-0.615,0.244l-0.615,0.246l-0.613,0.248l-0.613,0.249l-0.611,0.251l-0.611,0.253l-0.61,0.255l-0.608,0.256l-0.608,0.259l-0.607,0.26l-0.606,0.262l-0.605,0.264l-0.604,0.265l-0.603,0.267l-0.602,0.27l-0.601,0.27l-0.6,0.273l-0.6,0.274l-0.598,0.277l-0.597,0.278l-0.596,0.279l-0.596,0.282l-0.594,0.283l-0.593,0.285l-0.593,0.286l-0.591,0.289l-0.59,0.29l-0.589,0.292l-0.589,0.294l-0.587,0.295l-0.586,0.297l-0.585,0.299l-0.585,0.3l-0.583,0.303l-0.582,0.304l-0.581,0.305l-0.58,0.308l-0.579,0.309l-0.578,0.31l-0.577,0.313l-0.576,0.314l-0.575,0.316l-0.573,0.317l-0.573,0.319l-0.572,0.321l-0.57,0.323l-0.57,0.324l-0.568,0.326l-0.568,0.328l-0.566,0.329l-0.565,0.331l-0.564,0.332l-0.563,0.334l-0.562,0.336l-0.561,0.338l-0.56,0.339l-0.559,0.34l-0.557,0.343l-0.557,0.344l-0.555,0.345l-0.554,0.348l-0.553,0.349l-0.552,0.35l-0.551,0.352l-0.55,0.354l-0.548,0.355l-0.548,0.357l-0.546,0.359l-0.545,0.36l-0.544,0.362l-0.543,0.363l-0.542,0.365l-0.54,0.366l-0.539,0.368l-0.539,0.37l-0.537,0.371l-0.536,0.373l-0.534,0.374l-0.534,0.376l-0.532,0.378l-0.531,0.379l-0.53,0.38l-0.529,0.383l-0.528,0.383l-0.526,0.385l-0.525,0.387l-0.524,0.389l-0.523,0.389l-0.522,0.392l-0.52,0.393l-0.519,0.394l-0.518,0.396l-0.517,0.398l-0.515,0.399l-0.514,0.4l-0.513,0.402l-0.512,0.404l-0.511,0.405l-0.509,0.406l-0.508,0.408l-0.507,0.41l-0.505,0.41l-0.505,0.413l-0.503,0.414l-0.501,0.415l-0.501,0.417l-0.499,0.419l-0.498,0.419l-0.497,0.422l-0.495,0.422l-0.494,0.425l-0.493,0.425l-0.491,0.427l-0.491,0.429l-0.489,0.43l-0.487,0.431l-0.487,0.433l-0.485,0.435l-0.483,0.435l-0.483,0.438l-0.481,0.438l-0.48,0.44l-0.478,0.442l-0.477,0.442l-0.476,0.445l-0.474,0.445l-0.473,0.447l-0.472,0.449l-0.471,0.45l-0.469,0.451l-0.467,0.453l-0.467,0.454l-0.465,0.455l-0.464,0.457l-0.462,0.458l-0.461,0.46l-0.459,0.461l-0.458,0.462l-0.457,0.464l-0.456,0.465l-0.454,0.466l-0.452,0.468l-0.452,0.469l-0.45,0.47l-0.448,0.472l-0.447,0.473l-0.446,0.475l-0.444,0.475l-0.443,0.477l-0.441,0.479l-0.44,0.48l-0.439,0.481l-0.437,0.482l-0.436,0.484l-0.434,0.485l-0.433,0.486l-0.431,0.488l-0.43,0.489l-0.429,0.49l-0.427,0.492l-0.426,0.492l-0.424,0.494l-0.423,0.496l-0.421,0.496l-0.42,0.498l-0.418,0.5l-0.417,0.5l-0.416,0.502l-0.414,0.503l-0.412,0.504l-0.411,0.506l-0.409,0.506l-0.408,0.509l-0.407,0.509l-0.405,0.51l-0.403,0.512l-0.402,0.513l-0.401,0.514l-0.399,0.516l-0.397,0.517l-0.396,0.517l-0.395,0.52l-0.393,0.52l-0.391,0.522l-0.39,0.522l-0.388,0.524l-0.387,0.525l-0.385,0.527l-0.384,0.527l-0.382,0.529l-0.381,0.53l-0.379,0.531l-0.377,0.533l-0.376,0.533l-0.374,0.535l-0.373,0.536l-0.371,0.537l-0.37,0.538l-0.368,0.539l-0.367,0.541l-0.365,0.542l-0.363,0.542l-0.362,0.544l-0.36,0.546l-0.358,0.546l-0.357,0.547l-0.356,0.549l-0.353,0.55l-0.352,0.55l-0.351,0.552l-0.349,0.553l-0.347,0.555l-0.346,0.555l-0.344,0.556l-0.342,0.558l-0.341,0.558l-0.339,0.56l-0.337,0.561l-0.336,0.562l-0.334,0.563l-0.333,0.564l-0.331,0.565l-0.329,0.567l-0.327,0.567l-0.326,0.568l-0.325,0.57l-0.322,0.571l-0.321,0.571l-0.319,0.573l-0.318,0.574l-0.316,0.575l-0.314,0.575l-0.312,0.577l-0.311,0.578l-0.309,0.579l-0.307,0.58l-0.306,0.582l-0.304,0.582l-0.302,0.583l-0.301,0.584l-0.298,0.585l-0.298,0.587l-0.295,0.587l-0.293,0.588l-0.292,0.589l-0.291,0.591l-0.288,0.591l-0.287,0.592l-0.285,0.594l-0.283,0.594l-0.281,0.595l-0.28,0.596l-0.278,0.598l-0.276,0.598l-0.274,0.599l-0.273,0.6l-0.271,0.601l-0.269,0.602l-0.267,0.603l-0.266,0.604l-0.264,0.605l-0.262,0.606l-0.26,0.607l-0.258,0.608l-0.257,0.609l-0.254,0.61l-0.253,0.61l-0.252,0.612l-0.249,0.612l-0.247,0.614l-0.246,0.614l-0.244,0.615l-0.242,0.617l-0.24,0.617l-0.239,0.618l-0.236,0.619l-0.235,0.619l-0.233,0.621l-0.231,0.622l-0.229,0.622l-0.228,0.624l-0.225,0.624l-0.224,0.625l-0.222,0.626l-0.219,0.627l-0.219,0.628l-0.216,0.629l-0.214,0.629l-0.212,0.631l-0.211,0.631l-0.209,0.632l-0.206,0.633l-0.205,0.634l-0.203,0.634l-0.201,0.636l-0.2,0.636l-0.197,0.638l-0.195,0.638l-0.194,0.638l-0.191,0.64l-0.19,0.641l-0.188,0.641l-0.185,0.642l-0.184,0.643l-0.182,0.644l-0.18,0.644l-0.178,0.646l-0.176,0.646l-0.174,0.647l-0.173,0.648l-0.17,0.648l-0.168,0.649l-0.167,0.651l-0.164,0.65l-0.162,0.652l-0.161,0.653l-0.158,0.653l-0.157,0.654l-0.154,0.654l-0.153,0.656l-0.151,0.656l-0.148,0.657l-0.147,0.658l-0.144,0.658l-0.143,0.66l-0.14,0.66l-0.139,0.66l-0.137,0.662l-0.134,0.662l-0.133,0.663l-0.13,0.664l-0.129,0.664l-0.126,0.665l-0.125,0.666l-0.122,0.666l-0.121,0.667l-0.118,0.668l-0.116,0.669l-0.115,0.669l-0.112,0.67l-0.11,0.671l-0.108,0.671l-0.106,0.672l-0.104,0.673l-0.102,0.673l-0.1,0.674l-0.098,0.675l-0.095,0.676l-0.094,0.676l-0.092,0.676l-0.089,0.678l-0.087,0.678l-0.086,0.678l-0.083,0.68l-0.081,0.68l-0.079,0.68l-0.077,0.682l-0.075,0.682l-0.072,0.682l-0.071,0.683l-0.068,0.684l-0.067,0.684l-0.064,0.685l-0.062,0.686l-0.06,0.686l-0.058,0.687l-0.055,0.687l-0.054,0.688l-0.051,0.689l-0.049,0.689l-0.047,0.69l-0.045,0.69l-0.043,0.691l-0.041,0.692l-0.038,0.692l-0.036,0.693l-0.035,0.693l-0.031,0.694l-0.03,0.694l-0.028,0.695l-0.025,0.696l-0.023,0.696l-0.021,0.696l-0.019,0.697l-0.017,0.698l-0.014,0.698l-0.012,0.699l-0.01,0.699l-0.008,0.7l-0.006,0.701l-0.003,0.701l-0.001,0.701l0,470.103l0.001,0.701l0.003,0.701l0.006,0.7l0.008,0.7l0.01,0.699l0.012,0.699l0.014,0.698l0.017,0.698l0.019,0.697l0.021,0.697l0.023,0.696l0.025,0.695l0.028,0.695l0.03,0.695l0.031,0.694l0.035,0.693l0.036,0.693l0.038,0.692l0.041,0.691l0.043,0.691l0.045,0.691l0.047,0.689l0.049,0.69l0.051,0.688l0.054,0.688l0.055,0.688l0.058,0.686l0.06,0.687l0.062,0.685l0.064,0.685l0.067,0.685l0.068,0.683l0.071,0.683l0.072,0.683l0.075,0.682l0.077,0.681l0.079,0.681l0.081,0.68l0.083,0.679l0.086,0.679l0.087,0.678l0.089,0.677l0.092,0.677l0.094,0.676l0.095,0.675l0.098,0.675l0.1,0.674l0.102,0.674l0.104,0.672l0.106,0.672l0.108,0.672l0.11,0.67l0.112,0.67l0.115,0.67l0.116,0.668l0.118,0.668l0.121,0.667l0.122,0.667l0.125,0.666l0.126,0.665l0.129,0.664l0.13,0.664l0.133,0.663l0.134,0.662l0.137,0.661l0.139,0.661l0.14,0.66l0.143,0.659l0.144,0.659l0.147,0.657l0.148,0.657l0.151,0.657l0.153,0.655l0.154,0.655l0.157,0.654l0.158,0.653l0.161,0.652l0.162,0.652l0.164,0.651l0.167,0.65l0.168,0.649l0.17,0.649l0.173,0.648l0.174,0.647l0.176,0.646l0.178,0.645l0.18,0.645l0.182,0.644l0.184,0.643l0.185,0.642l0.188,0.641l0.19,0.64l0.191,0.64l0.194,0.639l0.195,0.638l0.197,0.637l0.2,0.637l0.201,0.635l0.203,0.635l0.205,0.634l0.206,0.633l0.209,0.632l0.211,0.631l0.212,0.63l0.214,0.63l0.216,0.629l0.219,0.627l0.219,0.627l0.222,0.626l0.224,0.625l0.225,0.625l0.228,0.623l0.229,0.623l0.231,0.621l0.233,0.621l0.235,0.62l0.236,0.619l0.239,0.618l0.24,0.617l0.242,0.616l0.244,0.615l0.246,0.615l0.247,0.613l0.249,0.613l0.252,0.611l0.253,0.611l0.254,0.61l0.257,0.608l0.258,0.608l0.26,0.607l0.262,0.606l0.264,0.605l0.266,0.604l0.267,0.603l0.269,0.602l0.271,0.601l0.273,0.601l0.274,0.599l0.276,0.598l0.278,0.597l0.28,0.596l0.281,0.596l0.283,0.594l0.285,0.593l0.287,0.593l0.288,0.591l0.291,0.59l0.292,0.589l0.293,0.589l0.295,0.587l0.298,0.586l0.298,0.585l0.301,0.585l0.302,0.583l0.304,0.582l0.306,0.581l0.307,0.58l0.309,0.579l0.311,0.578l0.312,0.577l0.314,0.576l0.316,0.575l0.318,0.574l0.319,0.572l0.321,0.572l0.322,0.571l0.325,0.569l0.326,0.569l0.327,0.567l0.329,0.566l0.331,0.565l0.333,0.565l0.334,0.563l0.336,0.561l0.337,0.561l0.339,0.56l0.341,0.559l0.342,0.557l0.344,0.557l0.346,0.555l0.347,0.554l0.349,0.553l0.351,0.552l0.352,0.551l0.353,0.55l0.356,0.548l0.357,0.548l0.358,0.546l0.36,0.545l0.362,0.544l0.363,0.543l0.365,0.542l0.367,0.54l0.368,0.54l0.37,0.538l0.371,0.537l0.373,0.536l0.374,0.534l0.376,0.534l0.377,0.532l0.379,0.531l0.381,0.53l0.382,0.529l0.384,0.528l0.385,0.526l0.387,0.525l0.388,0.524l0.39,0.523l0.391,0.522l0.393,0.52l0.395,0.519l0.396,0.518l0.397,0.517l0.399,0.515l0.401,0.514l0.402,0.513l0.403,0.512l0.405,0.511l0.407,0.509l0.408,0.508l0.409,0.507l0.411,0.505l0.412,0.505l0.414,0.503l0.416,0.501l0.417,0.501l0.418,0.499l0.42,0.498l0.421,0.497l0.423,0.495l0.424,0.494l0.426,0.493l0.427,0.492l0.429,0.49l0.43,0.489l0.431,0.487l0.433,0.487l0.434,0.485l0.436,0.483l0.437,0.483l0.439,0.481l0.44,0.48l0.441,0.478l0.443,0.477l0.444,0.476l0.446,0.474l0.447,0.474l0.448,0.471l0.45,0.471l0.452,0.469l0.452,0.468l0.454,0.466l0.456,0.465l0.457,0.464l0.458,0.462l0.459,0.461l0.461,0.459l0.462,0.459l0.464,0.456l0.465,0.456l0.467,0.454l0.467,0.452l0.469,0.452l0.471,0.45l0.472,0.448l0.473,0.447l0.474,0.446l0.476,0.444l0.477,0.443l0.478,0.441l0.48,0.44l0.481,0.439l0.483,0.437l0.483,0.436l0.485,0.434l0.487,0.433l0.487,0.432l0.489,0.43l0.491,0.428l0.491,0.427l0.493,0.426l0.494,0.424l0.495,0.423l0.497,0.421l0.498,0.42l0.499,0.418l0.501,0.417l0.501,0.416l0.503,0.414l0.505,0.412l0.505,0.411l0.507,0.41l0.508,0.408l0.509,0.406l0.511,0.405l0.512,0.404l0.513,0.402l0.514,0.4l0.515,0.399l0.517,0.397l0.518,0.396l0.519,0.395l0.52,0.393l0.522,0.391l0.523,0.39l0.524,0.388l0.525,0.387l0.526,0.385l0.528,0.384l0.529,0.382l0.53,0.381l0.531,0.379l0.532,0.377l0.534,0.376l0.534,0.375l0.536,0.372l0.537,0.372l0.539,0.369l0.539,0.368l0.54,0.367l0.542,0.365l0.543,0.363l0.544,0.362l0.545,0.36l0.546,0.358l0.548,0.357l0.548,0.356l0.55,0.353l0.551,0.352l0.552,0.351l0.553,0.349l0.554,0.347l0.555,0.346l0.557,0.344l0.557,0.342l0.559,0.341l0.56,0.339l0.561,0.337l0.562,0.336l0.563,0.334l0.564,0.333l0.565,0.331l0.566,0.329l0.568,0.328l0.568,0.325l0.57,0.325l0.57,0.322l0.572,0.321l0.573,0.319l0.573,0.318l0.575,0.316l0.576,0.314l0.577,0.312l0.578,0.311l0.579,0.309l0.58,0.307l0.581,0.306l0.582,0.304l0.583,0.302l0.585,0.301l0.585,0.299l0.586,0.297l0.587,0.295l0.589,0.294l0.589,0.291l0.59,0.291l0.591,0.288l0.593,0.287l0.593,0.285l0.594,0.283l0.596,0.281l0.596,0.28l0.597,0.278l0.598,0.276l0.6,0.274l0.6,0.273l0.601,0.271l0.602,0.269l0.603,0.267l0.604,0.266l0.605,0.264l0.606,0.262l0.607,0.26l0.608,0.258l0.608,0.257l0.61,0.255l0.611,0.252l0.611,0.252l0.613,0.249l0.613,0.248l0.615,0.245l0.615,0.244l0.616,0.242l0.617,0.24l0.618,0.239l0.619,0.236l0.62,0.235l0.621,0.233l0.621,0.231l0.623,0.229l0.623,0.228l0.625,0.225l0.625,0.224l0.626,0.222l0.627,0.22l0.628,0.218l0.628,0.216l0.63,0.214l0.63,0.213l0.631,0.21l0.633,0.209l0.633,0.206l0.633,0.205l0.635,0.203l0.636,0.201l0.636,0.2l0.637,0.197l0.638,0.195l0.639,0.194l0.64,0.191l0.64,0.19l0.641,0.188l0.643,0.185l0.643,0.184l0.643,0.182l0.645,0.18l0.645,0.178l0.646,0.176l0.647,0.175l0.648,0.172l0.649,0.17l0.649,0.168l0.65,0.167l0.651,0.164l0.652,0.162l0.652,0.161l0.653,0.158l0.654,0.157l0.655,0.154l0.655,0.153l0.657,0.151l0.657,0.148l0.657,0.147l0.659,0.144l0.659,0.143l0.66,0.141l0.661,0.138l0.661,0.137l0.663,0.134l0.662,0.133l0.664,0.13l0.664,0.129l0.666,0.126l0.665,0.125l0.667,0.122l0.667,0.121l0.668,0.118l0.668,0.116l0.67,0.115l0.67,0.112l0.67,0.11l0.672,0.108l0.672,0.106l0.673,0.104l0.673,0.102l0.674,0.1l0.675,0.098l0.675,0.095l0.676,0.094l0.677,0.092l0.677,0.089l0.678,0.088l0.679,0.085l0.679,0.083l0.68,0.081l0.681,0.079l0.681,0.077l0.682,0.075l0.683,0.072l0.683,0.071l0.683,0.068l0.685,0.067l0.685,0.064l0.685,0.062l0.687,0.06l0.686,0.058l0.688,0.055l0.688,0.054l0.689,0.051l0.689,0.049l0.69,0.048l0.69,0.044l0.691,0.043l0.691,0.041l0.693,0.038l0.692,0.037l0.694,0.034l0.693,0.032l0.695,0.029l0.695,0.028l0.695,0.025l0.696,0.023l0.697,0.021l0.697,0.019l0.698,0.017l0.698,0.014l0.699,0.012l0.699,0.01l0.7,0.008l0.7,0.006l0.701,0.003l0.701,0.001l470.103,0l0.702,-0.001l0.7,-0.003l0.701,-0.006l0.7,-0.008l0.699,-0.01l0.699,-0.012l0.698,-0.014l0.698,-0.017l0.697,-0.019l0.696,-0.021l0.696,-0.023l0.696,-0.025l0.695,-0.028l0.694,-0.029l0.694,-0.032l0.693,-0.034l0.693,-0.037l0.692,-0.038l0.692,-0.041l0.691,-0.043l0.69,-0.044l0.69,-0.048l0.689,-0.049l0.689,-0.051l0.688,-0.054l0.687,-0.055l0.687,-0.058l0.686,-0.06l0.686,-0.062l0.685,-0.064l0.684,-0.067l0.684,-0.068l0.683,-0.071l0.683,-0.072l0.681,-0.075l0.682,-0.077l0.68,-0.079l0.68,-0.081l0.68,-0.083l0.678,-0.085l0.678,-0.088l0.678,-0.089l0.676,-0.092l0.676,-0.094l0.676,-0.095l0.675,-0.098l0.674,-0.1l0.673,-0.102l0.673,-0.104l0.672,-0.106l0.671,-0.108l0.671,-0.11l0.67,-0.112l0.669,-0.115l0.669,-0.116l0.668,-0.118l0.667,-0.121l0.666,-0.122l0.666,-0.125l0.665,-0.126l0.665,-0.129l0.663,-0.13l0.663,-0.133l0.662,-0.134l0.662,-0.137l0.66,-0.138l0.66,-0.141l0.66,-0.143l0.658,-0.144l0.658,-0.147l0.657,-0.148l0.656,-0.151l0.656,-0.153l0.654,-0.154l0.654,-0.157l0.654,-0.158l0.652,-0.161l0.652,-0.162l0.651,-0.164l0.65,-0.167l0.649,-0.168l0.649,-0.17l0.647,-0.172l0.647,-0.175l0.646,-0.176l0.646,-0.178l0.644,-0.18l0.644,-0.182l0.643,-0.184l0.642,-0.185l0.642,-0.188l0.64,-0.19l0.64,-0.191l0.639,-0.194l0.638,-0.195l0.637,-0.197l0.636,-0.2l0.636,-0.201l0.634,-0.203l0.634,-0.205l0.633,-0.206l0.632,-0.209l0.631,-0.21l0.631,-0.213l0.629,-0.214l0.629,-0.216l0.628,-0.218l0.627,-0.22l0.626,-0.222l0.625,-0.224l0.624,-0.225l0.624,-0.228l0.622,-0.229l0.622,-0.231l0.621,-0.233l0.619,-0.235l0.619,-0.236l0.618,-0.239l0.618,-0.24l0.616,-0.242l0.615,-0.244l0.614,-0.245l0.614,-0.248l0.612,-0.249l0.612,-0.252l0.611,-0.252l0.609,-0.255l0.609,-0.257l0.608,-0.258l0.607,-0.26l0.606,-0.262l0.605,-0.264l0.604,-0.266l0.603,-0.267l0.602,-0.269l0.601,-0.271l0.6,-0.273l0.599,-0.274l0.599,-0.276l0.597,-0.278l0.596,-0.28l0.595,-0.281l0.595,-0.283l0.593,-0.285l0.592,-0.287l0.591,-0.288l0.591,-0.291l0.589,-0.291l0.588,-0.294l0.588,-0.295l0.586,-0.297l0.585,-0.299l0.584,-0.301l0.583,-0.302l0.582,-0.304l0.582,-0.306l0.58,-0.307l0.579,-0.309l0.578,-0.311l0.577,-0.312l0.576,-0.314l0.574,-0.316l0.574,-0.318l0.573,-0.319l0.572,-0.321l0.57,-0.322l0.57,-0.325l0.568,-0.325l0.567,-0.328l0.567,-0.329l0.565,-0.331l0.564,-0.333l0.563,-0.334l0.562,-0.336l0.561,-0.337l0.56,-0.339l0.558,-0.341l0.558,-0.342l0.556,-0.344l0.556,-0.346l0.554,-0.347l0.553,-0.349l0.552,-0.351l0.551,-0.352l0.549,-0.353l0.549,-0.356l0.547,-0.357l0.546,-0.358l0.546,-0.36l0.544,-0.362l0.542,-0.363l0.542,-0.365l0.541,-0.367l0.539,-0.368l0.538,-0.369l0.537,-0.372l0.536,-0.372l0.535,-0.375l0.533,-0.376l0.533,-0.377l0.531,-0.379l0.53,-0.381l0.529,-0.382l0.527,-0.384l0.527,-0.385l0.525,-0.387l0.524,-0.388l0.523,-0.39l0.521,-0.391l0.521,-0.393l0.519,-0.395l0.518,-0.396l0.516,-0.397l0.516,-0.399l0.514,-0.4l0.513,-0.402l0.512,-0.404l0.51,-0.405l0.51,-0.406l0.508,-0.408l0.506,-0.41l0.506,-0.411l0.504,-0.412l0.503,-0.414l0.502,-0.416l0.5,-0.417l0.5,-0.418l0.498,-0.42l0.496,-0.421l0.496,-0.423l0.494,-0.424l0.493,-0.426l0.491,-0.427l0.49,-0.428l0.489,-0.43l0.488,-0.432l0.486,-0.433l0.485,-0.434l0.484,-0.436l0.482,-0.437l0.481,-0.439l0.48,-0.44l0.479,-0.441l0.477,-0.443l0.476,-0.444l0.474,-0.446l0.473,-0.447l0.472,-0.448l0.47,-0.45l0.469,-0.452l0.468,-0.452l0.466,-0.454l0.465,-0.456l0.464,-0.456l0.462,-0.459l0.461,-0.459l0.46,-0.461l0.458,-0.462l0.457,-0.464l0.455,-0.465l0.454,-0.466l0.453,-0.468l0.451,-0.469l0.45,-0.471l0.449,-0.471l0.447,-0.474l0.445,-0.474l0.445,-0.476l0.442,-0.477l0.442,-0.478l0.44,-0.48l0.439,-0.481l0.437,-0.483l0.435,-0.483l0.435,-0.485l0.433,-0.487l0.431,-0.487l0.43,-0.489l0.429,-0.49l0.427,-0.492l0.425,-0.493l0.425,-0.494l0.422,-0.495l0.422,-0.497l0.42,-0.498l0.418,-0.499l0.417,-0.501l0.415,-0.501l0.414,-0.503l0.413,-0.505l0.411,-0.505l0.409,-0.507l0.408,-0.508l0.407,-0.509l0.405,-0.511l0.403,-0.512l0.402,-0.513l0.401,-0.514l0.399,-0.515l0.397,-0.517l0.396,-0.518l0.394,-0.519l0.393,-0.52l0.392,-0.522l0.39,-0.523l0.388,-0.524l0.387,-0.525l0.385,-0.526l0.384,-0.528l0.382,-0.529l0.38,-0.53l0.379,-0.531l0.378,-0.532l0.376,-0.534l0.374,-0.534l0.373,-0.536l0.371,-0.537l0.37,-0.538l0.368,-0.54l0.366,-0.54l0.365,-0.542l0.364,-0.543l0.361,-0.544l0.36,-0.545l0.359,-0.546l0.357,-0.548l0.355,-0.548l0.354,-0.55l0.352,-0.551l0.351,-0.552l0.348,-0.553l0.348,-0.554l0.345,-0.555l0.344,-0.557l0.343,-0.557l0.34,-0.559l0.34,-0.56l0.337,-0.561l0.336,-0.561l0.334,-0.563l0.332,-0.565l0.331,-0.565l0.33,-0.566l0.327,-0.567l0.326,-0.569l0.324,-0.569l0.323,-0.571l0.321,-0.572l0.319,-0.572l0.317,-0.574l0.316,-0.575l0.314,-0.576l0.313,-0.577l0.311,-0.578l0.309,-0.579l0.307,-0.58l0.306,-0.581l0.304,-0.582l0.302,-0.583l0.3,-0.585l0.299,-0.585l0.297,-0.586l0.295,-0.587l0.294,-0.589l0.292,-0.589l0.29,-0.59l0.289,-0.591l0.286,-0.593l0.285,-0.593l0.283,-0.594l0.282,-0.596l0.28,-0.596l0.277,-0.597l0.277,-0.598l0.274,-0.599l0.273,-0.601l0.271,-0.601l0.269,-0.602l0.267,-0.603l0.265,-0.604l0.264,-0.605l0.262,-0.606l0.26,-0.607l0.259,-0.608l0.256,-0.608l0.255,-0.61l0.253,-0.611l0.251,-0.611l0.25,-0.613l0.247,-0.613l0.246,-0.615l0.244,-0.615l0.242,-0.616l0.24,-0.617l0.238,-0.618l0.237,-0.619l0.235,-0.62l0.233,-0.621l0.231,-0.621l0.229,-0.623l0.227,-0.623l0.226,-0.625l0.223,-0.625l0.222,-0.626l0.22,-0.627l0.218,-0.627l0.216,-0.629l0.215,-0.63l0.212,-0.63l0.211,-0.631l0.208,-0.632l0.207,-0.633l0.205,-0.634l0.203,-0.635l0.201,-0.635l0.199,-0.637l0.197,-0.637l0.196,-0.638l0.193,-0.639l0.192,-0.64l0.189,-0.64l0.188,-0.641l0.186,-0.642l0.184,-0.643l0.182,-0.644l0.18,-0.645l0.178,-0.645l0.176,-0.646l0.174,-0.647l0.172,-0.648l0.171,-0.649l0.168,-0.649l0.166,-0.65l0.165,-0.651l0.162,-0.652l0.16,-0.652l0.159,-0.653l0.156,-0.654l0.155,-0.655l0.153,-0.655l0.15,-0.657l0.149,-0.657l0.146,-0.657l0.145,-0.659l0.142,-0.659l0.141,-0.66l0.139,-0.661l0.136,-0.661l0.135,-0.662l0.132,-0.663l0.131,-0.664l0.128,-0.664l0.127,-0.665l0.124,-0.666l0.123,-0.667l0.12,-0.667l0.119,-0.668l0.116,-0.668l0.114,-0.67l0.112,-0.67l0.111,-0.67l0.108,-0.672l0.106,-0.672l0.104,-0.672l0.102,-0.674l0.1,-0.674l0.097,-0.675l0.096,-0.675l0.094,-0.676l0.091,-0.677l0.09,-0.677l0.087,-0.678l0.085,-0.679l0.084,-0.679l0.081,-0.68l0.079,-0.681l0.077,-0.681l0.074,-0.682l0.073,-0.683l0.071,-0.683l0.068,-0.683l0.066,-0.685l0.064,-0.685l0.063,-0.685l0.059,-0.687l0.058,-0.686l0.056,-0.688l0.053,-0.688l0.052,-0.688l0.049,-0.69l0.047,-0.689l0.045,-0.691l0.043,-0.691l0.04,-0.691l0.039,-0.692l0.036,-0.693l0.034,-0.693l0.032,-0.694l0.03,-0.695l0.027,-0.695l0.026,-0.695l0.023,-0.696l0.021,-0.697l0.019,-0.697l0.016,-0.698l0.015,-0.698l0.012,-0.699l0.01,-0.699l0.008,-0.7l0.005,-0.7l0.004,-0.701l0.001,-0.701l0,-470.103l-0.001,-0.701l-0.004,-0.701l-0.005,-0.701l-0.008,-0.7l-0.01,-0.699l-0.012,-0.699l-0.015,-0.698l-0.016,-0.698l-0.019,-0.697l-0.021,-0.696l-0.023,-0.696l-0.026,-0.696l-0.027,-0.695l-0.03,-0.694l-0.032,-0.694l-0.034,-0.693l-0.036,-0.693l-0.039,-0.692l-0.04,-0.692l-0.043,-0.691l-0.045,-0.69l-0.047,-0.69l-0.049,-0.689l-0.052,-0.689l-0.053,-0.688l-0.056,-0.687l-0.058,-0.687l-0.059,-0.686l-0.063,-0.686l-0.064,-0.685l-0.066,-0.684l-0.068,-0.684l-0.071,-0.683l-0.073,-0.682l-0.074,-0.682l-0.077,-0.682l-0.079,-0.68l-0.081,-0.68l-0.084,-0.68l-0.085,-0.678l-0.087,-0.678l-0.09,-0.678l-0.091,-0.676l-0.094,-0.676l-0.096,-0.676l-0.097,-0.675l-0.1,-0.674l-0.102,-0.673l-0.104,-0.673l-0.106,-0.672l-0.108,-0.671l-0.111,-0.671l-0.112,-0.67l-0.114,-0.669l-0.116,-0.669l-0.119,-0.668l-0.12,-0.667l-0.123,-0.666l-0.124,-0.666l-0.127,-0.665l-0.128,-0.664l-0.131,-0.664l-0.132,-0.663l-0.135,-0.662l-0.136,-0.662l-0.139,-0.66l-0.141,-0.66l-0.142,-0.66l-0.145,-0.658l-0.146,-0.658l-0.149,-0.657l-0.15,-0.656l-0.153,-0.656l-0.155,-0.654l-0.156,-0.654l-0.159,-0.653l-0.16,-0.653l-0.162,-0.652l-0.165,-0.65l-0.166,-0.651l-0.168,-0.649l-0.171,-0.648l-0.172,-0.648l-0.174,-0.647l-0.176,-0.646l-0.178,-0.646l-0.18,-0.644l-0.182,-0.644l-0.184,-0.643l-0.186,-0.642l-0.188,-0.641l-0.189,-0.641l-0.192,-0.64l-0.193,-0.638l-0.196,-0.638l-0.197,-0.638l-0.199,-0.636l-0.201,-0.636l-0.203,-0.634l-0.205,-0.634l-0.207,-0.633l-0.208,-0.632l-0.211,-0.631l-0.212,-0.631l-0.215,-0.629l-0.216,-0.629l-0.218,-0.628l-0.22,-0.627l-0.222,-0.626l-0.223,-0.625l-0.226,-0.624l-0.227,-0.624l-0.229,-0.622l-0.231,-0.622l-0.233,-0.621l-0.235,-0.619l-0.237,-0.619l-0.238,-0.618l-0.24,-0.617l-0.242,-0.617l-0.244,-0.615l-0.246,-0.614l-0.247,-0.614l-0.25,-0.612l-0.251,-0.612l-0.253,-0.61l-0.255,-0.61l-0.256,-0.609l-0.259,-0.608l-0.26,-0.607l-0.262,-0.606l-0.264,-0.605l-0.265,-0.604l-0.267,-0.603l-0.269,-0.602l-0.271,-0.601l-0.273,-0.6l-0.274,-0.599l-0.277,-0.598l-0.277,-0.598l-0.28,-0.596l-0.282,-0.595l-0.283,-0.594l-0.285,-0.594l-0.286,-0.592l-0.289,-0.591l-0.29,-0.591l-0.292,-0.589l-0.294,-0.588l-0.295,-0.587l-0.297,-0.587l-0.299,-0.585l-0.3,-0.584l-0.302,-0.583l-0.304,-0.582l-0.306,-0.582l-0.307,-0.58l-0.309,-0.579l-0.311,-0.578l-0.313,-0.577l-0.314,-0.575l-0.316,-0.575l-0.317,-0.574l-0.319,-0.573l-0.321,-0.571l-0.323,-0.571l-0.324,-0.57l-0.326,-0.568l-0.327,-0.567l-0.33,-0.567l-0.331,-0.565l-0.332,-0.564l-0.334,-0.563l-0.336,-0.562l-0.337,-0.561l-0.34,-0.56l-0.34,-0.558l-0.343,-0.558l-0.344,-0.556l-0.345,-0.555l-0.348,-0.555l-0.348,-0.553l-0.351,-0.552l-0.352,-0.55l-0.354,-0.55l-0.355,-0.549l-0.357,-0.547l-0.359,-0.546l-0.36,-0.546l-0.361,-0.544l-0.364,-0.542l-0.365,-0.542l-0.366,-0.541l-0.368,-0.539l-0.37,-0.538l-0.371,-0.537l-0.373,-0.536l-0.374,-0.535l-0.376,-0.533l-0.378,-0.533l-0.379,-0.531l-0.38,-0.53l-0.382,-0.529l-0.384,-0.527l-0.385,-0.527l-0.387,-0.525l-0.388,-0.524l-0.39,-0.522l-0.392,-0.522l-0.393,-0.52l-0.394,-0.52l-0.396,-0.517l-0.397,-0.517l-0.399,-0.516l-0.401,-0.514l-0.402,-0.513l-0.403,-0.512l-0.405,-0.51l-0.407,-0.509l-0.408,-0.509l-0.409,-0.506l-0.411,-0.506l-0.413,-0.504l-0.414,-0.503l-0.415,-0.502l-0.417,-0.5l-0.418,-0.5l-0.42,-0.498l-0.422,-0.496l-0.422,-0.496l-0.425,-0.494l-0.425,-0.492l-0.427,-0.492l-0.429,-0.49l-0.43,-0.489l-0.431,-0.488l-0.433,-0.486l-0.435,-0.485l-0.435,-0.484l-0.437,-0.482l-0.439,-0.481l-0.44,-0.48l-0.442,-0.479l-0.442,-0.477l-0.445,-0.475l-0.445,-0.475l-0.447,-0.473l-0.449,-0.472l-0.45,-0.47l-0.451,-0.469l-0.453,-0.468l-0.454,-0.466l-0.455,-0.465l-0.457,-0.464l-0.458,-0.462l-0.46,-0.461l-0.461,-0.46l-0.462,-0.458l-0.464,-0.457l-0.465,-0.455l-0.466,-0.454l-0.468,-0.453l-0.469,-0.451l-0.47,-0.45l-0.472,-0.449l-0.473,-0.447l-0.474,-0.445l-0.476,-0.445l-0.477,-0.442l-0.479,-0.442l-0.48,-0.44l-0.481,-0.438l-0.482,-0.438l-0.484,-0.435l-0.485,-0.435l-0.486,-0.433l-0.488,-0.431l-0.489,-0.43l-0.49,-0.429l-0.491,-0.427l-0.493,-0.425l-0.494,-0.425l-0.496,-0.422l-0.496,-0.422l-0.498,-0.419l-0.5,-0.419l-0.5,-0.417l-0.502,-0.415l-0.503,-0.414l-0.504,-0.413l-0.506,-0.41l-0.506,-0.41l-0.508,-0.408l-0.51,-0.406l-0.51,-0.405l-0.512,-0.404l-0.513,-0.402l-0.514,-0.4l-0.516,-0.399l-0.516,-0.398l-0.518,-0.396l-0.519,-0.394l-0.521,-0.393l-0.521,-0.392l-0.523,-0.389l-0.524,-0.389l-0.525,-0.387l-0.527,-0.385l-0.527,-0.383l-0.529,-0.383l-0.53,-0.38l-0.531,-0.379l-0.533,-0.378l-0.533,-0.376l-0.535,-0.374l-0.536,-0.373l-0.537,-0.371l-0.538,-0.37l-0.539,-0.368l-0.541,-0.366l-0.542,-0.365l-0.542,-0.363l-0.544,-0.362l-0.546,-0.36l-0.546,-0.359l-0.547,-0.357l-0.549,-0.355l-0.549,-0.354l-0.551,-0.352l-0.552,-0.35l-0.553,-0.349l-0.554,-0.348l-0.556,-0.345l-0.556,-0.344l-0.558,-0.343l-0.558,-0.34l-0.56,-0.339l-0.561,-0.338l-0.562,-0.336l-0.563,-0.334l-0.564,-0.332l-0.565,-0.331l-0.567,-0.329l-0.567,-0.328l-0.568,-0.326l-0.57,-0.324l-0.57,-0.323l-0.572,-0.321l-0.573,-0.319l-0.574,-0.317l-0.574,-0.316l-0.576,-0.314l-0.577,-0.313l-0.578,-0.31l-0.579,-0.309l-0.58,-0.308l-0.582,-0.305l-0.582,-0.304l-0.583,-0.303l-0.584,-0.3l-0.585,-0.299l-0.586,-0.297l-0.588,-0.295l-0.588,-0.294l-0.589,-0.292l-0.591,-0.29l-0.591,-0.289l-0.592,-0.286l-0.593,-0.285l-0.595,-0.283l-0.595,-0.282l-0.596,-0.279l-0.597,-0.278l-0.599,-0.277l-0.599,-0.274l-0.6,-0.273l-0.601,-0.27l-0.602,-0.27l-0.603,-0.267l-0.604,-0.265l-0.605,-0.264l-0.606,-0.262l-0.607,-0.26l-0.608,-0.259l-0.609,-0.256l-0.609,-0.255l-0.611,-0.253l-0.612,-0.251l-0.612,-0.249l-0.614,-0.248l-0.614,-0.246l-0.615,-0.244l-0.616,-0.242l-0.618,-0.24l-0.618,-0.238l-0.619,-0.237l-0.619,-0.235l-0.621,-0.233l-0.622,-0.231l-0.622,-0.229l-0.624,-0.227l-0.624,-0.226l-0.625,-0.223l-0.626,-0.222l-0.627,-0.22l-0.628,-0.218l-0.629,-0.216l-0.629,-0.215l-0.631,-0.212l-0.631,-0.211l-0.632,-0.208l-0.633,-0.207l-0.634,-0.205l-0.634,-0.203l-0.636,-0.201l-0.636,-0.199l-0.637,-0.197l-0.638,-0.196l-0.639,-0.193l-0.64,-0.192l-0.64,-0.189l-0.642,-0.188l-0.642,-0.186l-0.643,-0.184l-0.644,-0.182l-0.644,-0.18l-0.646,-0.178l-0.646,-0.176l-0.647,-0.174l-0.647,-0.172l-0.649,-0.17l-0.649,-0.169l-0.65,-0.166l-0.651,-0.165l-0.652,-0.162l-0.652,-0.16l-0.654,-0.159l-0.654,-0.156l-0.654,-0.155l-0.656,-0.152l-0.656,-0.151l-0.657,-0.149l-0.658,-0.146l-0.658,-0.145l-0.66,-0.142l-0.66,-0.141l-0.66,-0.139l-0.662,-0.136l-0.662,-0.135l-0.663,-0.132l-0.663,-0.131l-0.665,-0.128l-0.665,-0.127l-0.666,-0.124l-0.666,-0.123l-0.667,-0.12l-0.668,-0.118l-0.669,-0.117l-0.669,-0.114l-0.67,-0.112l-0.671,-0.11l-0.671,-0.109l-0.672,-0.106l-0.673,-0.104l-0.673,-0.102l-0.674,-0.099l-0.675,-0.098l-0.676,-0.096l-0.676,-0.094l-0.676,-0.091l-0.678,-0.09l-0.678,-0.087l-0.678,-0.085l-0.68,-0.083l-0.68,-0.082l-0.68,-0.079l-0.682,-0.076l-0.681,-0.075l-0.683,-0.073l-0.683,-0.07l-0.684,-0.069l-0.684,-0.066l-0.685,-0.064l-0.686,-0.062l-0.686,-0.06l-0.687,-0.058l-0.687,-0.056l-0.688,-0.053l-0.689,-0.052l-0.689,-0.049l-0.69,-0.047l-0.69,-0.045l-0.691,-0.043l-0.692,-0.04l-0.692,-0.039l-0.693,-0.036l-0.693,-0.034l-0.694,-0.032l-0.694,-0.03l-0.695,-0.027l-0.696,-0.026l-0.696,-0.023l-0.696,-0.021l-0.697,-0.019l-0.698,-0.016l-0.698,-0.015l-0.699,-0.012l-0.699,-0.01l-0.7,-0.008l-0.701,-0.005l-0.7,-0.003l-0.702,-0.002l-470.103,0Z"/><g id="food"><path d="M770.572,695.485l-541.054,0c0,-143.82 121.219,-260.584 270.527,-260.584c149.306,0 270.525,116.762 270.527,260.584Zm-511.439,-21.412c7.352,-95.784 71.465,-188.858 179.105,-209.997c-80.455,43.961 -117.483,97.713 -129.498,209.997l-49.607,0Z"/><ellipse cx="500.045" cy="386.315" rx="27.414" ry="26.407"/><path d="M808.873,715.791c5.867,2.143 7.732,2.239 12.534,6.337c12.292,10.489 13.081,31.486 0,42.649c-5.325,4.544 -12.397,6.32 -19.612,7.164l-603.5,0c-16.292,-1.905 -31.564,-14.441 -29.361,-31.923c1.449,-11.492 10.66,-21.468 22.283,-24.227c2.307,-0.548 4.718,-0.552 7.078,-0.828l603.5,0c2.359,0.276 4.718,0.552 7.078,0.828Z" style="fill-rule:nonzero;"/><path d="M714.148,228.059c0,0 -12.878,13.312 -12.878,36.609c0,32.978 93.914,77.453 93.914,114.364c0,28.137 -46.643,58.241 -78.838,58.241c-13.506,0 27.719,-7.691 30.311,-47.501c3.141,-48.256 -65.018,-59.905 -65.018,-112.851c0,-36.004 32.509,-48.862 32.509,-48.862Z"/><path d="M665.658,269.16c0,0 -9.67,24.562 -2.067,39.905c5.195,10.483 59.405,49.68 59.405,76.173c0,18.927 -31.376,39.177 -53.032,39.177c-9.085,0 14.119,0.762 14.735,-32.709c0.751,-40.804 -39.024,-48.314 -39.024,-86.501c0,-24.218 19.983,-36.045 19.983,-36.045Z"/></g></g></svg>