<?xml version="1.0" encoding="UTF-8" standalone="no"?><!DOCTYPE svg PUBLIC "-//W3C//DTD SVG 1.1//EN" "http://www.w3.org/Graphics/SVG/1.1/DTD/svg11.dtd"><svg width="100%" height="100%" viewBox="0 0 1391 1390" version="1.1" xmlns="http://www.w3.org/2000/svg" xmlns:xlink="http://www.w3.org/1999/xlink" xml:space="preserve" xmlns:serif="http://www.serif.com/" style="fill-rule:evenodd;clip-rule:evenodd;stroke-linecap:round;stroke-linejoin:round;stroke-miterlimit:1.5;"><g id="pool-vector"><path d="M1039.19,608.046c0,0 349.393,172.959 -10.755,364.572l-90.881,-102.394c0,0 205.246,-67.33 102.623,-167.781l-0.987,-94.397Z" style="stroke:#000;stroke-width:1px;"/><path d="M510.318,888.641c0,0 186.422,54.741 373.607,-0.122l94.47,103.542c0,0 -249.772,101.049 -562.621,0.301l94.544,-103.721Z"/><path d="M456.037,871.805c0,0 -276.469,-96.391 -30.092,-216.525l-54.173,-54.456c0,0 -383.22,177.916 -5.71,371.371l89.975,-100.39Z"/><path d="M414.304,585.659c0,0 96.681,-49.74 344.279,-43.767l0.001,61.967c0,0 -160.27,-16.075 -289.852,35.616l-54.428,-53.816Z"/><path d="M418.424,756.278c0,0 31.85,-96.366 151.503,-43.879c0,0 59.736,31.217 126.457,-16.6c0,0 -33.483,97.277 -148.299,45.29c0,0 -64.44,-31.34 -129.661,15.189Z"/><path d="M540.382,849.602c0,0 31.85,-96.366 151.503,-43.879c0,0 59.735,31.217 126.457,-16.6c0,0 -33.483,97.277 -148.299,45.291c0,0 -64.44,-31.34 -129.661,15.188Z"/><path d="M1100.26,539.896c0,0 4.19,29.88 30.882,30.882c0,0 26.144,1.822 31.064,-30.973l-0.873,-34.227c0,0 -10.361,-85.674 -108.775,-89.844c0,0 -95.912,-1.668 -106.476,102.862l-93.687,-33.639l0.278,-33.638c0,0 27.8,-70.335 84.791,-15.29c0,0 20.016,-26.967 46.705,-40.589c0,0 -25.021,-41.701 -85.626,-42.257c0,0 -98.135,1.39 -108.143,99.526l-0.607,243.936c0,0 4.697,29.322 31.029,29.037c26.333,-0.284 30.603,-29.321 30.603,-29.321l0.569,-37.15l92.876,33.44l0.712,66.365c0,0 2.669,28.646 30.958,28.646c28.29,0 30.461,-27.72 30.461,-27.72l0.017,-247.377c0,0 11.16,-35.072 46.573,-35.072c35.414,0 46.346,35.3 46.346,35.3l0.323,27.103Zm-248.292,1.977l93.231,32.916l0.178,62.273l-93.054,-33.449l-0.355,-61.74Z"/><path d="M1361.03,362.381c0,-183.645 -149.097,-332.742 -332.742,-332.742l-665.483,0c-183.645,0 -332.741,149.097 -332.741,332.742l0,665.483c0,183.645 149.096,332.741 332.741,332.741l665.483,0c183.645,0 332.742,-149.096 332.742,-332.741l0,-665.483Z" style="fill:none;stroke:#000;stroke-width:58.75px;"/></g></svg>