<?xml version="1.0" encoding="UTF-8" standalone="no"?><!DOCTYPE svg PUBLIC "-//W3C//DTD SVG 1.1//EN" "http://www.w3.org/Graphics/SVG/1.1/DTD/svg11.dtd"><svg width="100%" height="100%" viewBox="0 0 1390 1390" version="1.1" xmlns="http://www.w3.org/2000/svg" xmlns:xlink="http://www.w3.org/1999/xlink" xml:space="preserve" xmlns:serif="http://www.serif.com/" style="fill-rule:evenodd;clip-rule:evenodd;stroke-linecap:round;stroke-linejoin:round;stroke-miterlimit:1.5;"><g id="sauna-vector"><circle cx="552.336" cy="401.663" r="91.784"/><path d="M550.433,516.773l28.269,-0.464c0,0 42.016,3.09 52.365,57l-0.154,200.968l121.414,0c0,0 24.716,2.471 27.033,29.195l-0.006,247.005c1.08,0.692 -37.709,65.608 -82.111,1.928l-0.173,-196.028l-177.764,-0.473c0,0 -45.021,-11.68 -50.092,-56.616l-0.311,-225.746c0,0 1.255,-44.951 52.54,-57.308l28.99,0.539Z"/><path d="M677.895,909.249c0,-18.234 -14.803,-33.037 -33.037,-33.037l-197.614,0c-18.233,0 -33.037,14.803 -33.037,33.037c0,18.233 14.804,33.036 33.037,33.036l197.614,0c18.234,0 33.037,-14.803 33.037,-33.036Z"/><path d="M1041.58,1056.47l20.757,-0.482c0,0 86.397,5.777 98.958,-81.4c5.799,-40.247 -4.103,-64.634 -0.965,-90.932c2.753,-23.078 -1.69,-27.516 19.791,-66.857c0,0 -38.135,1.689 -76.028,22.205c0,0 -5.793,-31.619 13.757,-86.649c0,0 -6.275,0.241 -47.548,27.274c0,0 -22.688,-31.86 -2.414,-80.615c0,0 -151.164,86.739 -165.863,215.56c-1.481,12.982 -0.778,26.213 0.734,39.192c4.758,40.86 10.315,98.866 113.799,101.883l25.022,0.821Zm32.473,-42.342l-80.325,-0.193c0,0 -35.754,-2.581 -40.163,-56.961c-1.292,-15.934 3.283,-38.039 13.709,-45.956c0,0 -1.582,14.176 -0.193,21.24c0.991,5.041 4.634,26.453 38.425,40.356c0,0 -9.307,-14.405 -6.604,-25.758c0,0 10.08,-37.768 43.484,-57.27c0,0 2.124,64.684 19.116,82.835c0,0 34.949,-26.26 48.272,-74.919c0,0 8.152,40.487 7.337,54.644c-0.938,16.303 -9.654,59.665 -43.058,61.982Z"/><path d="M952.747,419.053c2.403,2.822 21.874,26.742 22.929,51.591c1.623,38.244 -34.887,63.104 -35.299,97.45c-0.459,38.208 22.944,54.927 27.455,58.228" style="fill:none;stroke:#000;stroke-width:18.75px;"/><path d="M222.195,333.635c2.404,2.821 21.875,26.741 22.929,51.591c1.624,38.243 -34.886,63.104 -35.299,97.45c-0.459,38.207 22.944,54.927 27.455,58.228" style="fill:none;stroke:#000;stroke-width:18.75px;"/><path d="M222.195,659.573c2.404,2.822 21.875,26.742 22.929,51.591c1.624,38.244 -34.886,63.104 -35.299,97.45c-0.459,38.208 22.944,54.927 27.455,58.228" style="fill:none;stroke:#000;stroke-width:18.75px;"/><path d="M1029.89,419.053c2.403,2.822 21.874,26.742 22.929,51.591c1.623,38.244 -34.887,63.104 -35.299,97.45c-0.459,38.208 22.944,54.927 27.455,58.228" style="fill:none;stroke:#000;stroke-width:18.75px;"/><path d="M299.342,333.635c2.404,2.821 21.875,26.741 22.929,51.591c1.624,38.243 -34.886,63.104 -35.299,97.45c-0.458,38.207 22.944,54.927 27.455,58.228" style="fill:none;stroke:#000;stroke-width:18.75px;"/><path d="M299.342,659.573c2.404,2.822 21.875,26.742 22.929,51.591c1.624,38.244 -34.886,63.104 -35.299,97.45c-0.458,38.208 22.944,54.927 27.455,58.228" style="fill:none;stroke:#000;stroke-width:18.75px;"/><path d="M1107.04,419.053c2.404,2.822 21.874,26.742 22.929,51.591c1.623,38.244 -34.887,63.104 -35.299,97.45c-0.459,38.208 22.944,54.927 27.455,58.228" style="fill:none;stroke:#000;stroke-width:18.75px;"/><path d="M1360.45,362.381c0,-183.645 -149.096,-332.742 -332.741,-332.742l-665.483,0c-183.645,0 -332.741,149.097 -332.741,332.742l0,665.483c0,183.645 149.096,332.741 332.741,332.741l665.483,0c183.645,0 332.741,-149.096 332.741,-332.741l0,-665.483Z" style="fill:none;stroke:#000;stroke-width:58.75px;"/></g></svg>