<?xml version="1.0" encoding="UTF-8" standalone="no"?><!DOCTYPE svg PUBLIC "-//W3C//DTD SVG 1.1//EN" "http://www.w3.org/Graphics/SVG/1.1/DTD/svg11.dtd"><svg width="100%" height="100%" viewBox="0 0 1000 1000" version="1.1" xmlns="http://www.w3.org/2000/svg" xmlns:xlink="http://www.w3.org/1999/xlink" xml:space="preserve" xmlns:serif="http://www.serif.com/" style="fill-rule:evenodd;clip-rule:evenodd;stroke-linejoin:round;stroke-miterlimit:1.5;"><path d="M364.865,694.591l-0.189,0l-0.184,0.002l-0.184,0.003l-0.183,0.004l-0.184,0.005l-0.182,0.006l-0.183,0.008l-0.182,0.009l-0.182,0.009l-0.182,0.011l-0.181,0.013l-0.181,0.013l-0.181,0.014l-0.18,0.016l-0.18,0.016l-0.18,0.018l-0.179,0.019l-0.179,0.02l-0.179,0.021l-0.178,0.022l-0.178,0.023l-0.178,0.024l-0.177,0.026l-0.177,0.026l-0.177,0.028l-0.176,0.028l-0.176,0.03l-0.175,0.031l-0.175,0.032l-0.175,0.033l-0.174,0.034l-0.174,0.035l-0.174,0.036l-0.173,0.037l-0.173,0.038l-0.172,0.04l-0.172,0.04l-0.172,0.041l-0.171,0.043l-0.171,0.043l-0.17,0.045l-0.17,0.045l-0.17,0.046l-0.169,0.048l-0.168,0.049l-0.169,0.049l-0.168,0.051l-0.167,0.051l-0.167,0.053l-0.166,0.053l-0.166,0.055l-0.166,0.055l-0.165,0.057l-0.165,0.057l-0.164,0.059l-0.164,0.059l-0.163,0.061l-0.163,0.061l-0.162,0.062l-0.162,0.064l-0.162,0.064l-0.161,0.065l-0.16,0.066l-0.16,0.068l-0.16,0.068l-0.159,0.069l-0.158,0.07l-0.158,0.07l-0.158,0.072l-0.156,0.073l-0.157,0.074l-0.156,0.074l-0.155,0.076l-0.155,0.076l-0.154,0.078l-0.154,0.078l-0.154,0.079l-0.152,0.08l-0.152,0.081l-0.152,0.082l-0.151,0.082l-0.151,0.084l-0.15,0.085l-0.149,0.085l-0.149,0.086l-0.148,0.087l-0.148,0.088l-0.147,0.089l-0.147,0.09l-0.146,0.09l-0.145,0.092l-0.145,0.092l-0.144,0.093l-0.144,0.094l-0.143,0.095l-0.143,0.096l-0.141,0.096l-0.142,0.098l-0.14,0.098l-0.14,0.099l-0.14,0.099l-0.138,0.101l-0.139,0.101l-0.137,0.103l-0.137,0.103l-0.136,0.103l-0.136,0.105l-0.135,0.105l-0.134,0.107l-0.134,0.107l-0.133,0.107l-0.132,0.109l-0.132,0.109l-0.131,0.11l-0.13,0.111l-0.13,0.112l-0.129,0.112l-0.128,0.114l-0.127,0.113l-0.127,0.115l-0.127,0.116l-0.125,0.116l-0.125,0.117l-0.124,0.117l-0.123,0.119l-0.123,0.119l-0.122,0.12l-0.122,0.12l-0.12,0.122l-0.12,0.121l-0.119,0.123l-0.119,0.124l-0.117,0.124l-0.117,0.125l-0.116,0.125l-0.116,0.126l-0.114,0.127l-0.114,0.128l-0.113,0.128l-0.113,0.129l-0.111,0.13l-0.111,0.13l-0.11,0.131l-0.11,0.132l-0.108,0.132l-0.108,0.133l-0.107,0.134l-0.106,0.134l-0.106,0.135l-0.104,0.136l-0.104,0.136l-0.103,0.137l-0.102,0.137l-0.102,0.138l-0.1,0.139l-0.1,0.139l-0.099,0.14l-0.098,0.141l-0.098,0.141l-0.096,0.142l-0.096,0.143l-0.094,0.143l-0.094,0.143l-0.094,0.145l-0.092,0.144l-0.091,0.146l-0.091,0.146l-0.09,0.146l-0.088,0.147l-0.088,0.148l-0.088,0.149l-0.086,0.148l-0.085,0.15l-0.085,0.15l-0.083,0.151l-0.083,0.151l-0.082,0.151l-0.081,0.152l-0.08,0.153l-0.079,0.154l-0.078,0.153l-0.078,0.155l-0.076,0.155l-0.076,0.155l-0.074,0.156l-0.074,0.156l-0.073,0.157l-0.071,0.158l-0.071,0.158l-0.07,0.158l-0.069,0.159l-0.068,0.16l-0.067,0.16l-0.067,0.16l-0.065,0.161l-0.064,0.161l-0.063,0.162l-0.063,0.163l-0.061,0.162l-0.061,0.164l-0.059,0.164l-0.058,0.164l-0.058,0.165l-0.056,0.165l-0.056,0.165l-0.055,0.166l-0.053,0.167l-0.053,0.167l-0.051,0.167l-0.051,0.168l-0.049,0.168l-0.049,0.169l-0.047,0.169l-0.047,0.17l-0.045,0.17l-0.045,0.17l-0.043,0.171l-0.042,0.171l-0.042,0.172l-0.04,0.172l-0.039,0.172l-0.039,0.173l-0.037,0.173l-0.036,0.173l-0.035,0.174l-0.034,0.175l-0.033,0.175l-0.032,0.175l-0.031,0.175l-0.029,0.176l-0.029,0.176l-0.028,0.177l-0.026,0.177l-0.026,0.177l-0.024,0.178l-0.023,0.178l-0.022,0.178l-0.021,0.179l-0.02,0.179l-0.019,0.179l-0.018,0.18l-0.016,0.18l-0.016,0.18l-0.014,0.181l-0.013,0.181l-0.012,0.181l-0.011,0.182l-0.01,0.182l-0.009,0.182l-0.007,0.182l-0.007,0.183l-0.005,0.183l-0.004,0.184l-0.003,0.184l-0.002,0.184l0,0.189l-3,-0.01l0,-0.198l0.002,-0.203l0.004,-0.203l0.004,-0.203l0.006,-0.202l0.007,-0.202l0.008,-0.201l0.01,-0.202l0.011,-0.201l0.012,-0.2l0.013,-0.2l0.015,-0.2l0.015,-0.2l0.018,-0.199l0.018,-0.199l0.019,-0.199l0.021,-0.198l0.022,-0.198l0.023,-0.197l0.025,-0.197l0.026,-0.197l0.026,-0.196l0.029,-0.196l0.029,-0.196l0.03,-0.195l0.032,-0.195l0.033,-0.194l0.034,-0.195l0.035,-0.193l0.037,-0.193l0.037,-0.193l0.039,-0.193l0.04,-0.192l0.041,-0.191l0.042,-0.191l0.044,-0.191l0.044,-0.19l0.046,-0.19l0.047,-0.189l0.048,-0.189l0.049,-0.189l0.051,-0.188l0.051,-0.187l0.053,-0.187l0.053,-0.187l0.055,-0.186l0.056,-0.186l0.057,-0.185l0.058,-0.185l0.059,-0.184l0.061,-0.183l0.061,-0.184l0.063,-0.182l0.063,-0.183l0.065,-0.181l0.066,-0.181l0.066,-0.181l0.068,-0.18l0.069,-0.18l0.07,-0.179l0.071,-0.178l0.073,-0.178l0.073,-0.178l0.074,-0.177l0.075,-0.176l0.077,-0.176l0.077,-0.175l0.078,-0.175l0.08,-0.174l0.08,-0.174l0.082,-0.173l0.082,-0.172l0.084,-0.172l0.084,-0.171l0.086,-0.171l0.086,-0.17l0.088,-0.169l0.088,-0.169l0.09,-0.168l0.09,-0.168l0.092,-0.167l0.092,-0.167l0.093,-0.165l0.095,-0.166l0.095,-0.164l0.096,-0.164l0.098,-0.163l0.098,-0.163l0.099,-0.162l0.1,-0.161l0.101,-0.161l0.102,-0.16l0.103,-0.159l0.104,-0.159l0.105,-0.158l0.105,-0.158l0.107,-0.156l0.107,-0.156l0.109,-0.156l0.109,-0.155l0.11,-0.153l0.112,-0.154l0.112,-0.152l0.113,-0.152l0.113,-0.152l0.115,-0.15l0.116,-0.15l0.116,-0.149l0.117,-0.148l0.119,-0.148l0.119,-0.147l0.12,-0.146l0.12,-0.145l0.122,-0.145l0.122,-0.144l0.124,-0.143l0.124,-0.143l0.125,-0.141l0.126,-0.141l0.126,-0.14l0.128,-0.14l0.128,-0.138l0.129,-0.138l0.13,-0.138l0.131,-0.136l0.132,-0.135l0.132,-0.135l0.133,-0.134l0.134,-0.133l0.135,-0.133l0.135,-0.131l0.137,-0.131l0.137,-0.13l0.138,-0.129l0.138,-0.128l0.14,-0.128l0.14,-0.126l0.141,-0.126l0.142,-0.125l0.142,-0.124l0.143,-0.124l0.144,-0.122l0.145,-0.122l0.145,-0.121l0.147,-0.12l0.146,-0.119l0.148,-0.118l0.148,-0.117l0.149,-0.117l0.15,-0.115l0.151,-0.115l0.151,-0.114l0.152,-0.113l0.152,-0.112l0.154,-0.111l0.154,-0.11l0.154,-0.109l0.156,-0.109l0.156,-0.107l0.157,-0.107l0.157,-0.106l0.158,-0.104l0.159,-0.104l0.159,-0.103l0.16,-0.102l0.161,-0.101l0.161,-0.1l0.162,-0.099l0.163,-0.099l0.163,-0.097l0.164,-0.096l0.165,-0.095l0.165,-0.095l0.166,-0.093l0.166,-0.093l0.167,-0.091l0.168,-0.091l0.168,-0.089l0.169,-0.089l0.169,-0.087l0.17,-0.087l0.171,-0.085l0.171,-0.085l0.172,-0.083l0.173,-0.083l0.173,-0.081l0.173,-0.08l0.174,-0.08l0.175,-0.078l0.175,-0.078l0.176,-0.076l0.176,-0.075l0.177,-0.074l0.178,-0.074l0.178,-0.072l0.178,-0.071l0.179,-0.07l0.18,-0.069l0.18,-0.068l0.181,-0.067l0.181,-0.065l0.182,-0.065l0.182,-0.064l0.182,-0.062l0.184,-0.062l0.184,-0.06l0.184,-0.059l0.184,-0.058l0.186,-0.057l0.185,-0.056l0.186,-0.055l0.187,-0.054l0.187,-0.052l0.188,-0.052l0.188,-0.05l0.188,-0.049l0.189,-0.048l0.189,-0.047l0.19,-0.046l0.19,-0.044l0.191,-0.044l0.191,-0.042l0.192,-0.041l0.192,-0.04l0.192,-0.039l0.193,-0.037l0.193,-0.037l0.194,-0.035l0.194,-0.034l0.194,-0.033l0.195,-0.032l0.195,-0.03l0.196,-0.03l0.196,-0.028l0.196,-0.027l0.197,-0.025l0.197,-0.025l0.198,-0.023l0.197,-0.022l0.199,-0.021l0.198,-0.019l0.199,-0.019l0.199,-0.017l0.2,-0.016l0.2,-0.014l0.2,-0.014l0.201,-0.012l0.201,-0.01l0.201,-0.01l0.202,-0.008l0.201,-0.007l0.203,-0.006l0.202,-0.005l0.203,-0.003l0.203,-0.002l0.199,0l0.009,3Z" style="fill:#5e5e5e;"/><g id="kulso-falak" serif:id="kulso falak"><rect x="512.049" y="381.62" width="95.755" height="15" style="fill:#d9a03e;"/><rect x="656.157" y="381.62" width="22.88" height="15" style="fill:#d9a03e;"/><rect x="437.213" y="381.62" width="50.876" height="15" style="fill:#d9a03e;"/><path d="M567.475,360.216l-93.005,0l0,31.904l-6,0l0,-37.904l99.005,0l0,6Z" style="fill:#d9a03e;"/><rect x="339.198" y="381.62" width="64.019" height="15" style="fill:#d9a03e;"/><rect x="287.387" y="381.62" width="25.185" height="15" style="fill:#d9a03e;"/><rect x="214.799" y="381.62" width="44.21" height="15" style="fill:#d9a03e;"/><path d="M190.329,396.62l-105.354,0l0,58.075l-15,0l0,-73.075l120.354,0l0,15Z" style="fill:#d9a03e;"/><rect x="69.975" y="481.021" width="15" height="28.323" style="fill:#d9a03e;"/><rect x="69.975" y="531.85" width="15" height="111.324" style="fill:#d9a03e;"/><rect x="69.975" y="673.657" width="15" height="63.404" style="fill:#d9a03e;"/><rect x="69.975" y="722.061" width="229.73" height="15" style="fill:#d9a03e;"/><rect x="69.975" y="722.061" width="229.73" height="15" style="fill:#d9a03e;"/><rect x="324.841" y="722.061" width="73.599" height="15" style="fill:#d9a03e;"/><rect x="419.785" y="722.061" width="88.396" height="15" style="fill:#d9a03e;"/><path d="M679.038,737.061l-146.311,0l0,-15l131.311,0l0,-46.875l15,0l0,61.875Z" style="fill:#d9a03e;"/><rect x="664.038" y="545.205" width="15" height="97.346" style="fill:#d9a03e;"/><rect x="664.038" y="463.441" width="15" height="49.189" style="fill:#d9a03e;"/><path d="M813.972,497.63l120.064,0l0,239.431l-269.998,0l0,-15l254.998,0l0,-209.431l-120.064,0l0,-116.01l-119.934,0l0,17.275l-15,0l0,-32.275l149.934,0l0,116.01Z" style="fill:#d9a03e;"/><path d="M567.507,390.62l-10.55,0l0,-34.904l10.55,0l0,34.904Zm-7.55,-31.904l0,28.904l4.55,0l0,-28.904l-4.55,0Z" style="fill:#d9a03e;"/><g id="lepcso-2" serif:id="lepcso 2"><path d="M263.116,390.62l-10.55,0l0,-34.904l10.55,0l0,34.904Zm-7.55,-31.904l0,28.904l4.55,0l0,-28.904l-4.55,0Z" style="fill:#d9a03e;"/><path d="M255.566,390.62l-10.551,0l0,-34.904l10.551,0l0,34.904Zm-7.551,-31.904l0,28.904l4.551,0l0,-28.904l-4.551,0Z" style="fill:#d9a03e;"/><path d="M248.015,390.62l-10.551,0l0,-34.904l10.551,0l0,34.904Zm-7.551,-31.904l0,28.904l4.551,0l0,-28.904l-4.551,0Z" style="fill:#d9a03e;"/><path d="M240.464,390.62l-10.55,0l0,-34.904l10.55,0l0,34.904Zm-7.55,-31.904l0,28.904l4.55,0l0,-28.904l-4.55,0Z" style="fill:#d9a03e;"/><path d="M232.914,390.62l-10.551,0l0,-34.904l10.551,0l0,34.904Zm-7.551,-31.904l0,28.904l4.551,0l0,-28.904l-4.551,0Z" style="fill:#d9a03e;"/><path d="M225.363,390.62l-10.551,0l0,-34.904l10.551,0l0,34.904Zm-7.551,-31.904l0,28.904l4.551,0l0,-28.904l-4.551,0Z" style="fill:#d9a03e;"/></g><path d="M559.957,390.62l-10.551,0l0,-34.904l10.551,0l0,34.904Zm-7.551,-31.904l0,28.904l4.551,0l0,-28.904l-4.551,0Z" style="fill:#d9a03e;"/><path d="M552.406,390.62l-10.551,0l0,-34.904l10.551,0l0,34.904Zm-7.551,-31.904l0,28.904l4.551,0l0,-28.904l-4.551,0Z" style="fill:#d9a03e;"/><path d="M544.855,390.62l-10.55,0l0,-34.904l10.55,0l0,34.904Zm-7.55,-31.904l0,28.904l4.55,0l0,-28.904l-4.55,0Z" style="fill:#d9a03e;"/><path d="M537.305,390.62l-10.551,0l0,-34.904l10.551,0l0,34.904Zm-7.551,-31.904l0,28.904l4.551,0l0,-28.904l-4.551,0Z" style="fill:#d9a03e;"/><path d="M529.754,390.62l-10.551,0l0,-34.904l10.551,0l0,34.904Zm-7.551,-31.904l0,28.904l4.551,0l0,-28.904l-4.551,0Z" style="fill:#d9a03e;"/></g><g id="belso-falak" serif:id="belso falak"><path d="M468.892,638.051l-8.634,0l0,94.51l-6,0l0,-100.51l14.634,0l0,6Z" style="fill:#d9a03e;"/><path d="M495.402,689.205l-41.144,0l0,-6l35.144,0l0,-51.154l6,0l0,57.154Z" style="fill:#d9a03e;"/><path d="M553.869,732.608l-5.999,-0.095l1.485,-94.462l-35.625,0l0,-6l41.721,0l-1.582,100.557Z" style="fill:#d9a03e;"/><rect x="486.739" y="632.051" width="11.616" height="6" style="fill:#d9a03e;"/><rect x="460.483" y="386.12" width="6" height="85.144" style="fill:#d9a03e;"/><rect x="531.566" y="386.12" width="6" height="85.144" style="fill:#d9a03e;"/><rect x="363.87" y="386.12" width="6" height="149.366" style="fill:#d9a03e;"/><rect x="233.47" y="386.12" width="6" height="85.144" style="fill:#d9a03e;"/><rect x="180.418" y="674.233" width="6" height="58.328" style="fill:#d9a03e;"/><rect x="74.475" y="492.617" width="111.943" height="6" style="fill:#d9a03e;"/><rect x="74.475" y="594.898" width="145.541" height="6" style="fill:#d9a03e;"/><rect x="270.509" y="594.898" width="189.749" height="6" style="fill:#d9a03e;"/><rect x="497" y="594.898" width="177.538" height="6" style="fill:#d9a03e;"/><rect x="180.418" y="519.972" width="6" height="132.959" style="fill:#d9a03e;"/><rect x="180.418" y="386.12" width="6" height="85.144" style="fill:#d9a03e;"/><rect x="363.87" y="559.516" width="96.388" height="6" style="fill:#d9a03e;"/><rect x="363.87" y="559.516" width="6" height="173.045" style="fill:#d9a03e;"/><path d="M329.612,637.767l-53.103,0l0,53.275l-6,0l0,-59.275l53.103,0l0,-36.869l6,0l0,42.869Z" style="fill:#d9a03e;"/><rect x="270.509" y="712.343" width="6" height="20.218" style="fill:#d9a03e;"/></g><g id="ablakok"><path d="M663.657,389.12l-63.353,0" style="fill:none;stroke:#619cf3;stroke-width:15px;"/><path d="M444.713,389.12l-48.996,0" style="fill:none;stroke:#619cf3;stroke-width:15px;"/><path d="M346.698,389.12l-41.625,0" style="fill:none;stroke:#619cf3;stroke-width:15px;"/><path d="M294.887,389.12l-43.378,0" style="fill:none;stroke:#619cf3;stroke-width:15px;"/><path d="M263.102,360.216l-214.531,0l0,365.066l28.904,0l0,6l-34.904,0l0,-377.066l220.531,0l0,6Z" style="fill:#d9a03e;"/><path d="M77.475,447.195l0,41.326" style="fill:none;stroke:#619cf3;stroke-width:15px;"/><path d="M77.475,501.844l0,37.506" style="fill:none;stroke:#619cf3;stroke-width:15px;"/><path d="M77.475,635.674l0,45.483" style="fill:none;stroke:#619cf3;stroke-width:15px;"/><path d="M292.205,729.561l40.136,0" style="fill:none;stroke:#619cf3;stroke-width:15px;"/><path d="M390.939,729.561l36.346,0" style="fill:none;stroke:#619cf3;stroke-width:15px;"/><path d="M500.682,729.561l39.545,0" style="fill:none;stroke:#619cf3;stroke-width:15px;"/><path d="M671.538,682.686l0,-47.635" style="fill:none;stroke:#619cf3;stroke-width:15px;"/><path d="M671.538,470.941l0,-64.546" style="fill:none;stroke:#619cf3;stroke-width:15px;"/></g><g id="wc"><rect x="314.62" y="607.275" width="3" height="19.077" style="fill:#5e5e5e;"/><path d="M323.624,626.358l-4.892,-0.004l-3.545,-0.002l-4.168,-0.001l-0.146,-0.001l-0.149,-0.002l-0.149,-0.003l-0.148,-0.005l-0.148,-0.007l-0.147,-0.008l-0.147,-0.009l-0.147,-0.011l-0.145,-0.012l-0.146,-0.014l-0.145,-0.015l-0.144,-0.016l-0.144,-0.017l-0.143,-0.02l-0.143,-0.02l-0.142,-0.022l-0.142,-0.023l-0.141,-0.024l-0.14,-0.026l-0.14,-0.027l-0.139,-0.028l-0.139,-0.03l-0.138,-0.031l-0.137,-0.032l-0.137,-0.033l-0.136,-0.035l-0.135,-0.036l-0.135,-0.037l-0.134,-0.039l-0.133,-0.04l-0.132,-0.041l-0.132,-0.042l-0.131,-0.043l-0.131,-0.045l-0.129,-0.046l-0.129,-0.047l-0.128,-0.048l-0.127,-0.049l-0.126,-0.051l-0.126,-0.052l-0.125,-0.053l-0.123,-0.054l-0.123,-0.055l-0.123,-0.057l-0.121,-0.057l-0.12,-0.059l-0.12,-0.06l-0.119,-0.061l-0.117,-0.062l-0.117,-0.063l-0.116,-0.064l-0.115,-0.066l-0.115,-0.066l-0.112,-0.068l-0.112,-0.068l-0.112,-0.07l-0.11,-0.071l-0.109,-0.072l-0.108,-0.073l-0.107,-0.074l-0.106,-0.075l-0.105,-0.076l-0.104,-0.078l-0.103,-0.078l-0.102,-0.079l-0.1,-0.08l-0.099,-0.082l-0.099,-0.082l-0.097,-0.083l-0.096,-0.085l-0.095,-0.085l-0.093,-0.086l-0.093,-0.088l-0.091,-0.088l-0.091,-0.089l-0.088,-0.091l-0.088,-0.091l-0.086,-0.092l-0.085,-0.093l-0.084,-0.095l-0.082,-0.095l-0.081,-0.096l-0.08,-0.097l-0.079,-0.098l-0.076,-0.098l-0.076,-0.101l-0.074,-0.1l-0.073,-0.102l-0.071,-0.102l-0.07,-0.104l-0.069,-0.104l-0.067,-0.105l-0.065,-0.106l-0.064,-0.107l-0.062,-0.108l-0.061,-0.109l-0.059,-0.109l-0.058,-0.111l-0.056,-0.111l-0.054,-0.112l-0.052,-0.112l-0.052,-0.114l-0.049,-0.115l-0.047,-0.114l-0.046,-0.116l-0.044,-0.117l-0.043,-0.117l-0.04,-0.118l-0.039,-0.119l-0.037,-0.119l-0.035,-0.12l-0.033,-0.121l-0.031,-0.121l-0.029,-0.122l-0.028,-0.123l-0.025,-0.123l-0.024,-0.124l-0.021,-0.124l-0.02,-0.125l-0.017,-0.125l-0.016,-0.126l-0.014,-0.126l-0.011,-0.127l-0.009,-0.127l-0.008,-0.127l-0.005,-0.128l-0.003,-0.128l-0.001,-0.129l0.001,-0.128l0.003,-0.128l0.005,-0.128l0.008,-0.128l0.009,-0.127l0.011,-0.127l0.014,-0.126l0.016,-0.125l0.017,-0.126l0.02,-0.125l0.021,-0.124l0.024,-0.124l0.025,-0.123l0.028,-0.122l0.029,-0.122l0.031,-0.122l0.033,-0.12l0.035,-0.12l0.037,-0.12l0.039,-0.118l0.041,-0.118l0.042,-0.118l0.044,-0.116l0.046,-0.116l0.047,-0.115l0.05,-0.115l0.05,-0.113l0.053,-0.113l0.054,-0.112l0.056,-0.111l0.058,-0.11l0.059,-0.11l0.061,-0.108l0.062,-0.108l0.064,-0.107l0.065,-0.106l0.067,-0.105l0.069,-0.105l0.07,-0.103l0.071,-0.103l0.073,-0.101l0.074,-0.101l0.076,-0.1l0.076,-0.099l0.079,-0.098l0.08,-0.097l0.081,-0.096l0.082,-0.095l0.084,-0.094l0.085,-0.093l0.086,-0.093l0.088,-0.091l0.089,-0.09l0.09,-0.089l0.091,-0.089l0.092,-0.087l0.094,-0.086l0.095,-0.086l0.096,-0.084l0.097,-0.084l0.098,-0.082l0.1,-0.081l0.101,-0.081l0.101,-0.079l0.103,-0.078l0.104,-0.077l0.105,-0.076l0.106,-0.075l0.107,-0.074l0.108,-0.073l0.109,-0.072l0.11,-0.071l0.111,-0.07l0.113,-0.069l0.113,-0.067l0.114,-0.067l0.115,-0.065l0.116,-0.065l0.116,-0.063l0.118,-0.062l0.119,-0.061l0.119,-0.06l0.121,-0.058l0.121,-0.058l0.122,-0.056l0.123,-0.055l0.124,-0.055l0.125,-0.053l0.126,-0.051l0.126,-0.051l0.127,-0.049l0.128,-0.049l0.129,-0.047l0.13,-0.046l0.13,-0.044l0.131,-0.044l0.132,-0.042l0.132,-0.041l0.134,-0.04l0.133,-0.038l0.135,-0.038l0.135,-0.035l0.136,-0.035l0.137,-0.034l0.137,-0.032l0.138,-0.031l0.139,-0.029l0.139,-0.029l0.14,-0.027l0.14,-0.025l0.141,-0.025l0.142,-0.023l0.142,-0.022l0.143,-0.02l0.143,-0.019l0.144,-0.018l0.144,-0.016l0.145,-0.015l0.146,-0.013l0.146,-0.013l0.146,-0.01l0.147,-0.01l0.147,-0.008l0.148,-0.006l0.148,-0.005l0.149,-0.004l0.149,-0.002l0.146,-0.001l12.605,0l0,19.083Zm-12.598,-16.083l-0.124,0.001l-0.12,0.002l-0.119,0.003l-0.119,0.004l-0.118,0.005l-0.118,0.006l-0.118,0.008l-0.118,0.008l-0.116,0.01l-0.116,0.011l-0.116,0.012l-0.115,0.013l-0.115,0.014l-0.114,0.015l-0.114,0.016l-0.113,0.017l-0.112,0.019l-0.112,0.019l-0.112,0.021l-0.111,0.021l-0.11,0.022l-0.109,0.024l-0.109,0.024l-0.109,0.026l-0.107,0.026l-0.108,0.028l-0.106,0.028l-0.106,0.029l-0.105,0.03l-0.105,0.032l-0.103,0.032l-0.103,0.033l-0.103,0.034l-0.102,0.034l-0.1,0.036l-0.1,0.037l-0.1,0.037l-0.099,0.039l-0.098,0.039l-0.097,0.04l-0.096,0.041l-0.095,0.041l-0.095,0.043l-0.094,0.043l-0.093,0.044l-0.092,0.045l-0.091,0.046l-0.091,0.046l-0.089,0.048l-0.089,0.048l-0.088,0.048l-0.087,0.05l-0.086,0.05l-0.085,0.051l-0.084,0.051l-0.083,0.053l-0.083,0.053l-0.081,0.053l-0.08,0.054l-0.08,0.055l-0.078,0.056l-0.077,0.056l-0.077,0.057l-0.075,0.057l-0.075,0.058l-0.073,0.059l-0.072,0.059l-0.072,0.06l-0.07,0.06l-0.069,0.06l-0.068,0.062l-0.067,0.061l-0.066,0.063l-0.065,0.063l-0.064,0.063l-0.062,0.064l-0.062,0.064l-0.06,0.064l-0.06,0.065l-0.058,0.066l-0.057,0.066l-0.056,0.066l-0.055,0.067l-0.054,0.067l-0.052,0.068l-0.052,0.067l-0.05,0.069l-0.049,0.068l-0.048,0.069l-0.047,0.069l-0.045,0.07l-0.045,0.07l-0.043,0.07l-0.042,0.07l-0.041,0.071l-0.04,0.071l-0.038,0.072l-0.038,0.071l-0.036,0.072l-0.035,0.072l-0.034,0.073l-0.032,0.072l-0.032,0.073l-0.03,0.073l-0.029,0.074l-0.028,0.073l-0.026,0.074l-0.026,0.074l-0.024,0.075l-0.023,0.074l-0.022,0.075l-0.02,0.075l-0.02,0.075l-0.018,0.075l-0.017,0.076l-0.016,0.076l-0.014,0.076l-0.013,0.077l-0.012,0.076l-0.011,0.077l-0.01,0.078l-0.008,0.077l-0.007,0.078l-0.006,0.077l-0.004,0.079l-0.004,0.078l-0.002,0.079l0,0.079l0,0.079l0.002,0.079l0.004,0.079l0.004,0.078l0.006,0.078l0.007,0.078l0.008,0.077l0.01,0.077l0.011,0.077l0.012,0.077l0.013,0.076l0.014,0.076l0.016,0.076l0.017,0.076l0.018,0.075l0.02,0.076l0.02,0.075l0.022,0.074l0.023,0.075l0.024,0.074l0.026,0.075l0.026,0.073l0.028,0.074l0.029,0.073l0.03,0.073l0.032,0.073l0.032,0.073l0.034,0.072l0.035,0.072l0.036,0.072l0.038,0.072l0.038,0.071l0.04,0.071l0.041,0.071l0.042,0.07l0.043,0.071l0.045,0.07l0.045,0.069l0.047,0.069l0.048,0.069l0.049,0.069l0.05,0.068l0.052,0.068l0.052,0.067l0.054,0.068l0.055,0.066l0.056,0.066l0.057,0.067l0.058,0.065l0.06,0.065l0.06,0.065l0.062,0.064l0.062,0.064l0.064,0.063l0.065,0.063l0.066,0.062l0.067,0.062l0.068,0.061l0.069,0.061l0.07,0.06l0.072,0.06l0.072,0.059l0.074,0.058l0.074,0.058l0.075,0.058l0.076,0.056l0.078,0.056l0.078,0.056l0.08,0.055l0.08,0.054l0.082,0.054l0.082,0.053l0.083,0.052l0.084,0.051l0.085,0.052l0.086,0.05l0.087,0.049l0.088,0.049l0.088,0.048l0.091,0.047l0.09,0.046l0.091,0.046l0.092,0.045l0.093,0.044l0.094,0.043l0.094,0.043l0.096,0.042l0.097,0.041l0.097,0.04l0.097,0.039l0.099,0.038l0.099,0.038l0.1,0.036l0.102,0.036l0.101,0.035l0.102,0.034l0.104,0.033l0.104,0.032l0.104,0.031l0.105,0.03l0.106,0.03l0.106,0.028l0.107,0.027l0.108,0.027l0.109,0.025l0.109,0.025l0.109,0.023l0.111,0.022l0.11,0.022l0.112,0.02l0.112,0.02l0.112,0.018l0.113,0.017l0.114,0.016l0.114,0.016l0.115,0.014l0.115,0.013l0.116,0.012l0.116,0.01l0.117,0.01l0.117,0.009l0.118,0.007l0.118,0.007l0.118,0.005l0.119,0.004l0.119,0.003l0.12,0.002l0.124,0l4.162,0.001l3.547,0.002l1.889,0.002l0,-13.081l-9.598,0Z" style="fill:#5e5e5e;"/></g><g id="wc1" serif:id="wc"><path d="M356.783,609.904l-19.077,0l0,-3l19.077,0l0,3Z" style="fill:#5e5e5e;"/><path d="M356.785,605.792l-0.002,3.545l-0.001,4.169l-0.001,0.146l-0.002,0.149l-0.004,0.148l-0.005,0.148l-0.006,0.148l-0.008,0.148l-0.009,0.146l-0.011,0.147l-0.012,0.146l-0.014,0.145l-0.015,0.145l-0.016,0.144l-0.018,0.144l-0.019,0.143l-0.02,0.143l-0.022,0.142l-0.023,0.142l-0.024,0.141l-0.026,0.141l-0.027,0.139l-0.028,0.139l-0.03,0.139l-0.031,0.138l-0.032,0.137l-0.033,0.137l-0.035,0.136l-0.036,0.135l-0.037,0.135l-0.039,0.134l-0.04,0.133l-0.041,0.133l-0.042,0.131l-0.043,0.131l-0.045,0.131l-0.046,0.129l-0.047,0.129l-0.048,0.128l-0.05,0.127l-0.05,0.126l-0.052,0.126l-0.053,0.125l-0.054,0.124l-0.056,0.123l-0.056,0.122l-0.057,0.121l-0.059,0.121l-0.06,0.119l-0.061,0.119l-0.062,0.118l-0.063,0.117l-0.065,0.116l-0.065,0.115l-0.067,0.114l-0.067,0.113l-0.069,0.112l-0.07,0.111l-0.07,0.11l-0.072,0.109l-0.073,0.108l-0.074,0.107l-0.075,0.106l-0.076,0.105l-0.078,0.104l-0.078,0.103l-0.079,0.102l-0.08,0.1l-0.082,0.1l-0.082,0.098l-0.083,0.097l-0.085,0.096l-0.085,0.095l-0.086,0.094l-0.088,0.092l-0.088,0.092l-0.089,0.09l-0.091,0.088l-0.091,0.088l-0.092,0.087l-0.093,0.084l-0.095,0.084l-0.095,0.083l-0.096,0.081l-0.097,0.079l-0.098,0.079l-0.099,0.077l-0.1,0.075l-0.1,0.075l-0.102,0.072l-0.103,0.072l-0.103,0.07l-0.104,0.068l-0.105,0.067l-0.107,0.065l-0.106,0.064l-0.108,0.062l-0.109,0.061l-0.11,0.06l-0.109,0.057l-0.112,0.056l-0.112,0.054l-0.113,0.053l-0.113,0.051l-0.115,0.049l-0.115,0.048l-0.115,0.045l-0.117,0.044l-0.118,0.043l-0.117,0.04l-0.119,0.039l-0.12,0.037l-0.119,0.035l-0.121,0.033l-0.122,0.031l-0.121,0.029l-0.123,0.028l-0.124,0.026l-0.123,0.023l-0.124,0.022l-0.125,0.019l-0.125,0.018l-0.126,0.015l-0.126,0.014l-0.127,0.011l-0.127,0.01l-0.127,0.007l-0.128,0.005l-0.128,0.003l-0.129,0.002l-0.129,-0.002l-0.128,-0.003l-0.127,-0.005l-0.128,-0.007l-0.127,-0.01l-0.127,-0.011l-0.126,-0.014l-0.125,-0.015l-0.126,-0.018l-0.125,-0.019l-0.124,-0.022l-0.123,-0.023l-0.124,-0.026l-0.122,-0.028l-0.122,-0.029l-0.122,-0.031l-0.12,-0.033l-0.12,-0.035l-0.12,-0.037l-0.119,-0.039l-0.117,-0.04l-0.118,-0.043l-0.117,-0.044l-0.115,-0.045l-0.115,-0.048l-0.115,-0.049l-0.113,-0.051l-0.113,-0.053l-0.112,-0.054l-0.111,-0.056l-0.11,-0.057l-0.11,-0.06l-0.109,-0.061l-0.107,-0.062l-0.107,-0.064l-0.106,-0.065l-0.106,-0.067l-0.104,-0.068l-0.103,-0.07l-0.103,-0.072l-0.102,-0.072l-0.1,-0.075l-0.1,-0.075l-0.099,-0.077l-0.098,-0.079l-0.097,-0.079l-0.096,-0.081l-0.095,-0.083l-0.094,-0.084l-0.093,-0.084l-0.093,-0.087l-0.091,-0.088l-0.09,-0.088l-0.09,-0.09l-0.088,-0.092l-0.087,-0.092l-0.087,-0.094l-0.085,-0.095l-0.084,-0.096l-0.084,-0.097l-0.082,-0.098l-0.081,-0.1l-0.081,-0.1l-0.079,-0.102l-0.078,-0.103l-0.077,-0.104l-0.076,-0.105l-0.076,-0.106l-0.074,-0.107l-0.072,-0.108l-0.072,-0.109l-0.071,-0.11l-0.07,-0.111l-0.069,-0.112l-0.067,-0.113l-0.067,-0.115l-0.065,-0.114l-0.064,-0.116l-0.064,-0.117l-0.062,-0.118l-0.061,-0.119l-0.06,-0.119l-0.058,-0.121l-0.058,-0.121l-0.056,-0.122l-0.056,-0.123l-0.054,-0.124l-0.053,-0.125l-0.052,-0.126l-0.05,-0.126l-0.05,-0.127l-0.048,-0.128l-0.047,-0.129l-0.046,-0.129l-0.044,-0.131l-0.044,-0.131l-0.042,-0.131l-0.041,-0.133l-0.04,-0.133l-0.038,-0.134l-0.038,-0.135l-0.036,-0.135l-0.034,-0.136l-0.034,-0.137l-0.032,-0.137l-0.031,-0.138l-0.03,-0.139l-0.028,-0.139l-0.027,-0.14l-0.026,-0.14l-0.024,-0.141l-0.023,-0.142l-0.022,-0.142l-0.02,-0.143l-0.019,-0.143l-0.018,-0.144l-0.016,-0.144l-0.015,-0.145l-0.014,-0.145l-0.012,-0.146l-0.01,-0.147l-0.01,-0.146l-0.008,-0.148l-0.006,-0.148l-0.005,-0.148l-0.004,-0.149l-0.002,-0.149l-0.001,-0.145l0,-12.606l19.083,0l-0.004,4.892Zm-16.079,-1.892l0,9.598l0.001,0.124l0.002,0.12l0.003,0.119l0.004,0.119l0.005,0.119l0.006,0.118l0.008,0.117l0.008,0.118l0.01,0.116l0.011,0.116l0.012,0.116l0.013,0.115l0.014,0.115l0.015,0.114l0.016,0.114l0.017,0.113l0.019,0.113l0.019,0.111l0.02,0.112l0.022,0.111l0.022,0.11l0.024,0.11l0.024,0.109l0.026,0.108l0.026,0.108l0.027,0.107l0.029,0.107l0.029,0.105l0.03,0.105l0.031,0.105l0.032,0.104l0.034,0.103l0.033,0.102l0.035,0.102l0.036,0.101l0.037,0.1l0.037,0.099l0.038,0.099l0.04,0.098l0.04,0.097l0.041,0.096l0.041,0.096l0.043,0.094l0.043,0.094l0.044,0.093l0.045,0.092l0.046,0.092l0.046,0.09l0.048,0.09l0.048,0.088l0.048,0.088l0.05,0.087l0.05,0.086l0.051,0.085l0.051,0.084l0.053,0.084l0.053,0.082l0.053,0.081l0.054,0.081l0.055,0.079l0.056,0.078l0.056,0.078l0.057,0.076l0.057,0.076l0.058,0.074l0.059,0.073l0.059,0.072l0.059,0.072l0.061,0.07l0.06,0.069l0.061,0.068l0.062,0.067l0.063,0.066l0.062,0.065l0.064,0.064l0.064,0.063l0.064,0.061l0.064,0.061l0.065,0.059l0.066,0.058l0.066,0.057l0.066,0.057l0.067,0.054l0.067,0.054l0.067,0.053l0.068,0.051l0.069,0.05l0.068,0.049l0.069,0.048l0.069,0.047l0.07,0.046l0.07,0.044l0.07,0.043l0.07,0.043l0.071,0.041l0.071,0.039l0.071,0.038l0.072,0.038l0.072,0.036l0.072,0.035l0.073,0.034l0.072,0.033l0.073,0.031l0.073,0.03l0.074,0.029l0.073,0.028l0.074,0.027l0.074,0.025l0.074,0.024l0.075,0.023l0.075,0.022l0.075,0.021l0.075,0.019l0.076,0.018l0.075,0.017l0.076,0.016l0.076,0.014l0.077,0.014l0.076,0.012l0.077,0.01l0.077,0.01l0.078,0.008l0.077,0.007l0.078,0.006l0.079,0.005l0.078,0.003l0.079,0.002l0.079,0l0.079,0l0.079,-0.002l0.079,-0.003l0.078,-0.005l0.078,-0.006l0.077,-0.007l0.078,-0.008l0.077,-0.01l0.077,-0.01l0.076,-0.012l0.077,-0.014l0.077,-0.014l0.075,-0.016l0.076,-0.017l0.075,-0.018l0.076,-0.019l0.075,-0.021l0.075,-0.022l0.074,-0.023l0.074,-0.024l0.074,-0.025l0.074,-0.027l0.073,-0.028l0.074,-0.029l0.073,-0.03l0.073,-0.031l0.073,-0.033l0.072,-0.034l0.072,-0.035l0.072,-0.036l0.072,-0.038l0.071,-0.038l0.071,-0.039l0.071,-0.041l0.07,-0.043l0.071,-0.043l0.069,-0.044l0.07,-0.046l0.069,-0.047l0.069,-0.048l0.069,-0.049l0.068,-0.05l0.068,-0.051l0.067,-0.053l0.067,-0.054l0.067,-0.054l0.067,-0.057l0.065,-0.057l0.066,-0.058l0.065,-0.059l0.065,-0.061l0.064,-0.061l0.063,-0.063l0.064,-0.064l0.063,-0.065l0.062,-0.066l0.062,-0.067l0.061,-0.068l0.061,-0.069l0.06,-0.07l0.06,-0.071l0.059,-0.073l0.058,-0.073l0.058,-0.074l0.057,-0.076l0.057,-0.076l0.056,-0.078l0.056,-0.078l0.055,-0.079l0.054,-0.081l0.054,-0.081l0.053,-0.082l0.052,-0.084l0.051,-0.084l0.051,-0.085l0.05,-0.086l0.05,-0.087l0.049,-0.088l0.048,-0.088l0.047,-0.09l0.046,-0.09l0.046,-0.092l0.045,-0.092l0.044,-0.093l0.043,-0.094l0.043,-0.094l0.042,-0.096l0.041,-0.096l0.039,-0.097l0.04,-0.098l0.038,-0.099l0.038,-0.099l0.036,-0.1l0.036,-0.101l0.035,-0.102l0.034,-0.102l0.033,-0.103l0.032,-0.104l0.031,-0.105l0.03,-0.105l0.03,-0.106l0.028,-0.106l0.027,-0.107l0.027,-0.108l0.025,-0.108l0.024,-0.109l0.024,-0.11l0.022,-0.11l0.022,-0.111l0.02,-0.111l0.02,-0.112l0.018,-0.113l0.017,-0.113l0.016,-0.114l0.015,-0.114l0.015,-0.115l0.013,-0.115l0.011,-0.116l0.011,-0.116l0.01,-0.116l0.009,-0.118l0.007,-0.117l0.006,-0.118l0.006,-0.119l0.004,-0.119l0.003,-0.119l0.001,-0.12l0.001,-0.124l0.001,-4.162l0.002,-3.546l0.002,-1.89l-13.081,0Z" style="fill:#5e5e5e;"/></g><g id="wc2" serif:id="wc"><rect x="466.266" y="695.935" width="3" height="19.077" style="fill:#5e5e5e;"/><path d="M465.153,695.933l3.546,0.002l4.169,0.001l0.145,0.001l0.149,0.002l0.149,0.003l0.148,0.005l0.148,0.007l0.147,0.008l0.147,0.009l0.146,0.011l0.146,0.012l0.146,0.014l0.145,0.015l0.144,0.016l0.144,0.018l0.143,0.018l0.143,0.021l0.142,0.022l0.141,0.023l0.142,0.024l0.14,0.026l0.14,0.027l0.139,0.028l0.139,0.03l0.138,0.031l0.137,0.032l0.137,0.033l0.136,0.035l0.135,0.036l0.135,0.037l0.133,0.039l0.133,0.039l0.133,0.042l0.132,0.042l0.131,0.043l0.13,0.045l0.13,0.046l0.129,0.047l0.128,0.048l0.127,0.049l0.126,0.051l0.126,0.052l0.124,0.053l0.124,0.054l0.124,0.055l0.121,0.057l0.122,0.057l0.12,0.059l0.12,0.06l0.119,0.061l0.118,0.062l0.116,0.063l0.116,0.064l0.115,0.066l0.114,0.066l0.113,0.068l0.113,0.069l0.111,0.069l0.109,0.071l0.11,0.072l0.108,0.073l0.107,0.074l0.106,0.075l0.105,0.076l0.104,0.077l0.102,0.079l0.102,0.079l0.101,0.08l0.099,0.082l0.099,0.082l0.097,0.083l0.096,0.085l0.095,0.085l0.093,0.086l0.093,0.088l0.091,0.088l0.09,0.089l0.089,0.091l0.088,0.091l0.086,0.092l0.085,0.093l0.084,0.094l0.082,0.096l0.081,0.096l0.08,0.097l0.078,0.098l0.077,0.098l0.076,0.1l0.074,0.101l0.073,0.102l0.071,0.102l0.07,0.104l0.069,0.104l0.066,0.105l0.066,0.106l0.064,0.107l0.062,0.108l0.061,0.109l0.059,0.109l0.057,0.111l0.056,0.11l0.055,0.113l0.052,0.112l0.051,0.114l0.05,0.114l0.047,0.115l0.046,0.116l0.044,0.117l0.042,0.117l0.041,0.118l0.038,0.119l0.037,0.119l0.035,0.12l0.034,0.121l0.031,0.121l0.029,0.122l0.028,0.123l0.025,0.123l0.024,0.124l0.021,0.124l0.02,0.125l0.017,0.125l0.016,0.126l0.013,0.126l0.012,0.127l0.009,0.127l0.008,0.127l0.005,0.128l0.003,0.128l0.001,0.129l-0.001,0.128l-0.003,0.128l-0.005,0.128l-0.008,0.128l-0.009,0.127l-0.012,0.127l-0.013,0.126l-0.016,0.125l-0.017,0.126l-0.02,0.125l-0.021,0.124l-0.024,0.123l-0.025,0.123l-0.028,0.123l-0.029,0.122l-0.031,0.121l-0.034,0.121l-0.035,0.12l-0.037,0.12l-0.038,0.118l-0.041,0.118l-0.042,0.117l-0.044,0.117l-0.046,0.116l-0.047,0.115l-0.05,0.114l-0.051,0.114l-0.052,0.113l-0.055,0.112l-0.056,0.111l-0.057,0.11l-0.059,0.11l-0.061,0.109l-0.062,0.107l-0.064,0.107l-0.065,0.106l-0.067,0.105l-0.069,0.105l-0.07,0.103l-0.071,0.103l-0.073,0.101l-0.074,0.101l-0.076,0.1l-0.077,0.099l-0.078,0.098l-0.08,0.097l-0.081,0.096l-0.082,0.095l-0.084,0.094l-0.085,0.093l-0.086,0.092l-0.088,0.092l-0.089,0.09l-0.09,0.089l-0.091,0.089l-0.093,0.087l-0.093,0.086l-0.095,0.086l-0.096,0.084l-0.097,0.084l-0.099,0.082l-0.099,0.081l-0.101,0.08l-0.101,0.08l-0.103,0.078l-0.104,0.077l-0.105,0.076l-0.106,0.075l-0.107,0.075l-0.108,0.072l-0.109,0.072l-0.11,0.071l-0.112,0.07l-0.112,0.069l-0.113,0.067l-0.114,0.067l-0.115,0.065l-0.116,0.064l-0.116,0.064l-0.118,0.062l-0.119,0.061l-0.12,0.06l-0.12,0.058l-0.121,0.058l-0.123,0.056l-0.123,0.056l-0.124,0.054l-0.124,0.052l-0.126,0.052l-0.126,0.051l-0.127,0.049l-0.129,0.049l-0.128,0.047l-0.13,0.046l-0.13,0.044l-0.131,0.044l-0.132,0.042l-0.132,0.041l-0.133,0.04l-0.134,0.038l-0.135,0.037l-0.136,0.036l-0.135,0.035l-0.137,0.034l-0.137,0.032l-0.138,0.031l-0.139,0.029l-0.139,0.029l-0.14,0.027l-0.14,0.025l-0.141,0.025l-0.142,0.023l-0.142,0.022l-0.143,0.02l-0.143,0.019l-0.144,0.018l-0.145,0.016l-0.144,0.015l-0.146,0.013l-0.146,0.012l-0.146,0.011l-0.147,0.01l-0.147,0.007l-0.148,0.007l-0.148,0.005l-0.149,0.004l-0.149,0.002l-0.146,0.001l-12.605,0l0,-19.083l4.891,0.004Zm-1.891,16.079l9.598,0l0.124,-0.001l0.12,-0.002l0.119,-0.003l0.119,-0.004l0.118,-0.005l0.118,-0.006l0.118,-0.008l0.117,-0.008l0.117,-0.01l0.116,-0.011l0.116,-0.012l0.115,-0.013l0.114,-0.014l0.115,-0.015l0.114,-0.016l0.112,-0.018l0.113,-0.018l0.112,-0.019l0.111,-0.021l0.111,-0.021l0.111,-0.022l0.109,-0.024l0.109,-0.024l0.109,-0.026l0.107,-0.026l0.108,-0.028l0.106,-0.028l0.106,-0.029l0.105,-0.03l0.104,-0.032l0.104,-0.032l0.103,-0.033l0.103,-0.034l0.101,-0.034l0.101,-0.036l0.1,-0.037l0.1,-0.037l0.099,-0.039l0.097,-0.039l0.097,-0.04l0.097,-0.041l0.095,-0.042l0.095,-0.042l0.094,-0.043l0.093,-0.045l0.092,-0.044l0.091,-0.046l0.091,-0.047l0.089,-0.047l0.089,-0.048l0.088,-0.048l0.087,-0.05l0.086,-0.05l0.085,-0.051l0.084,-0.052l0.083,-0.052l0.082,-0.053l0.082,-0.053l0.08,-0.055l0.079,-0.054l0.079,-0.056l0.078,-0.056l0.076,-0.057l0.075,-0.057l0.074,-0.058l0.074,-0.059l0.072,-0.059l0.071,-0.059l0.071,-0.061l0.069,-0.06l0.068,-0.062l0.067,-0.062l0.066,-0.062l0.065,-0.063l0.064,-0.063l0.062,-0.064l0.062,-0.064l0.06,-0.064l0.06,-0.065l0.058,-0.066l0.057,-0.066l0.056,-0.066l0.055,-0.067l0.054,-0.067l0.052,-0.068l0.051,-0.067l0.051,-0.069l0.049,-0.068l0.048,-0.069l0.047,-0.07l0.045,-0.069l0.045,-0.07l0.043,-0.07l0.042,-0.071l0.041,-0.071l0.04,-0.07l0.038,-0.072l0.038,-0.071l0.036,-0.072l0.035,-0.072l0.034,-0.073l0.032,-0.072l0.031,-0.073l0.031,-0.074l0.029,-0.073l0.028,-0.073l0.026,-0.074l0.026,-0.075l0.024,-0.074l0.023,-0.074l0.022,-0.075l0.02,-0.075l0.02,-0.075l0.018,-0.076l0.017,-0.075l0.015,-0.076l0.015,-0.076l0.013,-0.077l0.012,-0.076l0.011,-0.077l0.01,-0.078l0.008,-0.077l0.007,-0.078l0.006,-0.078l0.004,-0.078l0.003,-0.078l0.002,-0.079l0.001,-0.079l-0.001,-0.079l-0.002,-0.079l-0.003,-0.079l-0.004,-0.078l-0.006,-0.078l-0.007,-0.078l-0.008,-0.077l-0.01,-0.077l-0.011,-0.077l-0.012,-0.077l-0.013,-0.076l-0.015,-0.077l-0.015,-0.075l-0.017,-0.076l-0.018,-0.076l-0.02,-0.075l-0.02,-0.075l-0.022,-0.075l-0.023,-0.074l-0.024,-0.074l-0.026,-0.074l-0.026,-0.074l-0.028,-0.074l-0.029,-0.073l-0.03,-0.073l-0.032,-0.073l-0.032,-0.073l-0.034,-0.072l-0.035,-0.072l-0.036,-0.072l-0.038,-0.072l-0.038,-0.071l-0.04,-0.071l-0.041,-0.071l-0.042,-0.07l-0.043,-0.071l-0.045,-0.069l-0.045,-0.07l-0.047,-0.069l-0.048,-0.069l-0.049,-0.069l-0.05,-0.068l-0.052,-0.068l-0.052,-0.067l-0.054,-0.067l-0.055,-0.067l-0.056,-0.067l-0.057,-0.065l-0.058,-0.066l-0.06,-0.065l-0.06,-0.065l-0.062,-0.064l-0.062,-0.064l-0.064,-0.063l-0.065,-0.063l-0.066,-0.062l-0.067,-0.062l-0.068,-0.061l-0.069,-0.061l-0.071,-0.06l-0.071,-0.06l-0.072,-0.059l-0.073,-0.058l-0.075,-0.058l-0.075,-0.058l-0.077,-0.056l-0.077,-0.057l-0.079,-0.055l-0.079,-0.055l-0.08,-0.054l-0.081,-0.054l-0.083,-0.053l-0.083,-0.052l-0.084,-0.052l-0.085,-0.05l-0.086,-0.05l-0.087,-0.05l-0.088,-0.049l-0.089,-0.048l-0.089,-0.047l-0.091,-0.046l-0.091,-0.046l-0.092,-0.045l-0.093,-0.044l-0.094,-0.044l-0.095,-0.042l-0.095,-0.042l-0.097,-0.041l-0.096,-0.04l-0.098,-0.039l-0.099,-0.038l-0.1,-0.038l-0.1,-0.036l-0.101,-0.036l-0.101,-0.035l-0.103,-0.034l-0.103,-0.033l-0.103,-0.032l-0.105,-0.031l-0.105,-0.03l-0.106,-0.03l-0.107,-0.028l-0.107,-0.028l-0.107,-0.026l-0.109,-0.025l-0.109,-0.025l-0.109,-0.023l-0.11,-0.023l-0.112,-0.021l-0.111,-0.02l-0.112,-0.02l-0.113,-0.018l-0.112,-0.017l-0.114,-0.016l-0.115,-0.016l-0.114,-0.014l-0.115,-0.013l-0.116,-0.012l-0.116,-0.01l-0.117,-0.01l-0.117,-0.009l-0.118,-0.007l-0.118,-0.007l-0.118,-0.005l-0.119,-0.004l-0.119,-0.003l-0.12,-0.002l-0.124,0l-4.162,-0.001l-3.547,-0.002l-1.889,-0.002l0,13.081Z" style="fill:#5e5e5e;"/></g><g id="wc3" serif:id="wc"><path d="M484.31,677.209l-19.077,0l0,-3l19.077,0l0,3Z" style="fill:#5e5e5e;"/><path d="M474.901,658.674l0.128,0.003l0.128,0.005l0.128,0.008l0.127,0.009l0.126,0.012l0.126,0.013l0.126,0.016l0.126,0.017l0.125,0.02l0.123,0.021l0.124,0.024l0.124,0.025l0.122,0.028l0.122,0.029l0.121,0.031l0.121,0.034l0.12,0.035l0.12,0.036l0.118,0.039l0.118,0.041l0.118,0.042l0.116,0.044l0.116,0.046l0.115,0.047l0.114,0.05l0.114,0.05l0.113,0.053l0.112,0.055l0.111,0.056l0.11,0.057l0.11,0.059l0.108,0.061l0.108,0.062l0.107,0.064l0.106,0.065l0.105,0.067l0.104,0.069l0.104,0.069l0.103,0.072l0.101,0.073l0.101,0.074l0.1,0.075l0.099,0.078l0.098,0.078l0.097,0.08l0.096,0.081l0.095,0.082l0.094,0.084l0.093,0.085l0.092,0.086l0.092,0.088l0.09,0.089l0.089,0.09l0.089,0.091l0.087,0.092l0.086,0.094l0.086,0.095l0.084,0.096l0.083,0.097l0.083,0.099l0.081,0.099l0.08,0.101l0.08,0.101l0.078,0.103l0.077,0.104l0.076,0.105l0.075,0.106l0.074,0.107l0.073,0.108l0.072,0.109l0.071,0.111l0.07,0.111l0.068,0.111l0.068,0.114l0.067,0.114l0.065,0.115l0.064,0.116l0.064,0.117l0.062,0.117l0.061,0.119l0.059,0.119l0.059,0.121l0.058,0.122l0.056,0.122l0.055,0.123l0.055,0.124l0.052,0.124l0.052,0.126l0.051,0.126l0.049,0.127l0.049,0.128l0.047,0.129l0.046,0.13l0.044,0.13l0.044,0.131l0.042,0.132l0.041,0.132l0.04,0.133l0.038,0.134l0.037,0.135l0.036,0.135l0.035,0.136l0.034,0.137l0.032,0.137l0.031,0.138l0.029,0.139l0.029,0.139l0.027,0.14l0.025,0.14l0.025,0.141l0.023,0.142l0.021,0.142l0.021,0.143l0.019,0.143l0.017,0.144l0.017,0.144l0.015,0.145l0.013,0.146l0.012,0.146l0.011,0.146l0.009,0.147l0.008,0.147l0.007,0.148l0.005,0.148l0.004,0.149l0.002,0.149l0,0.146l0,12.605l-19.082,0l0.004,-4.891l0.002,-3.546l0.001,-4.169l0,-0.145l0.003,-0.149l0.003,-0.149l0.005,-0.148l0.007,-0.148l0.008,-0.147l0.009,-0.147l0.011,-0.146l0.012,-0.146l0.014,-0.146l0.014,-0.145l0.017,-0.144l0.017,-0.144l0.019,-0.143l0.021,-0.143l0.021,-0.142l0.023,-0.142l0.025,-0.141l0.026,-0.14l0.027,-0.14l0.028,-0.139l0.03,-0.139l0.03,-0.138l0.033,-0.137l0.033,-0.137l0.035,-0.136l0.036,-0.135l0.037,-0.135l0.039,-0.134l0.039,-0.133l0.041,-0.132l0.043,-0.132l0.043,-0.131l0.045,-0.13l0.046,-0.13l0.047,-0.129l0.048,-0.127l0.049,-0.128l0.051,-0.126l0.052,-0.126l0.053,-0.124l0.054,-0.124l0.055,-0.124l0.057,-0.122l0.057,-0.121l0.059,-0.12l0.06,-0.12l0.061,-0.119l0.062,-0.117l0.063,-0.117l0.064,-0.116l0.066,-0.115l0.066,-0.114l0.068,-0.114l0.069,-0.112l0.069,-0.11l0.071,-0.111l0.072,-0.109l0.073,-0.108l0.074,-0.107l0.075,-0.106l0.076,-0.105l0.077,-0.104l0.079,-0.103l0.079,-0.101l0.08,-0.101l0.081,-0.099l0.083,-0.099l0.083,-0.097l0.084,-0.096l0.086,-0.095l0.086,-0.094l0.088,-0.092l0.088,-0.091l0.089,-0.09l0.091,-0.089l0.091,-0.088l0.092,-0.086l0.093,-0.085l0.094,-0.084l0.096,-0.082l0.095,-0.081l0.098,-0.08l0.097,-0.078l0.099,-0.078l0.1,-0.075l0.101,-0.074l0.102,-0.073l0.102,-0.072l0.104,-0.069l0.104,-0.069l0.105,-0.067l0.106,-0.065l0.107,-0.064l0.108,-0.062l0.109,-0.061l0.109,-0.059l0.11,-0.057l0.111,-0.056l0.113,-0.055l0.113,-0.053l0.113,-0.05l0.114,-0.05l0.115,-0.047l0.116,-0.046l0.117,-0.044l0.117,-0.042l0.118,-0.041l0.119,-0.039l0.119,-0.036l0.12,-0.035l0.121,-0.034l0.121,-0.031l0.122,-0.029l0.123,-0.028l0.123,-0.025l0.124,-0.024l0.124,-0.021l0.124,-0.02l0.126,-0.017l0.126,-0.016l0.126,-0.013l0.126,-0.012l0.128,-0.009l0.127,-0.008l0.128,-0.005l0.128,-0.003l0.129,-0.001l0.128,0.001Zm-0.207,3l-0.079,0.001l-0.079,0.004l-0.078,0.004l-0.078,0.006l-0.078,0.007l-0.078,0.008l-0.077,0.01l-0.076,0.011l-0.077,0.012l-0.076,0.013l-0.077,0.015l-0.075,0.015l-0.076,0.017l-0.076,0.018l-0.075,0.02l-0.075,0.02l-0.074,0.022l-0.075,0.023l-0.075,0.024l-0.074,0.026l-0.073,0.026l-0.074,0.028l-0.073,0.029l-0.073,0.03l-0.073,0.032l-0.073,0.032l-0.072,0.034l-0.072,0.035l-0.072,0.036l-0.072,0.038l-0.071,0.038l-0.071,0.04l-0.071,0.041l-0.071,0.042l-0.07,0.043l-0.07,0.045l-0.069,0.045l-0.07,0.047l-0.068,0.048l-0.069,0.049l-0.068,0.05l-0.068,0.052l-0.067,0.052l-0.068,0.054l-0.066,0.055l-0.067,0.056l-0.066,0.057l-0.065,0.058l-0.065,0.059l-0.065,0.061l-0.064,0.062l-0.064,0.062l-0.063,0.064l-0.063,0.065l-0.062,0.066l-0.062,0.067l-0.061,0.068l-0.061,0.069l-0.06,0.07l-0.06,0.072l-0.059,0.072l-0.059,0.073l-0.057,0.075l-0.058,0.075l-0.056,0.076l-0.057,0.078l-0.055,0.078l-0.055,0.08l-0.054,0.08l-0.054,0.081l-0.053,0.083l-0.052,0.083l-0.052,0.084l-0.051,0.085l-0.05,0.086l-0.049,0.087l-0.049,0.088l-0.048,0.089l-0.047,0.089l-0.047,0.091l-0.045,0.091l-0.045,0.092l-0.044,0.093l-0.044,0.094l-0.042,0.095l-0.042,0.095l-0.041,0.097l-0.04,0.097l-0.039,0.097l-0.038,0.099l-0.038,0.099l-0.037,0.101l-0.035,0.101l-0.035,0.101l-0.034,0.103l-0.033,0.103l-0.032,0.104l-0.031,0.104l-0.031,0.105l-0.029,0.106l-0.028,0.106l-0.028,0.107l-0.026,0.108l-0.025,0.109l-0.025,0.109l-0.023,0.11l-0.023,0.11l-0.021,0.11l-0.02,0.112l-0.02,0.112l-0.018,0.112l-0.017,0.114l-0.017,0.113l-0.015,0.114l-0.014,0.115l-0.013,0.115l-0.012,0.116l-0.011,0.116l-0.009,0.117l-0.009,0.117l-0.007,0.118l-0.007,0.118l-0.005,0.118l-0.004,0.119l-0.003,0.119l-0.002,0.12l0,0.124l-0.001,4.162l-0.002,3.547l-0.002,1.889l13.08,0l0,-9.598l0,-0.124l-0.002,-0.12l-0.003,-0.119l-0.004,-0.119l-0.005,-0.118l-0.006,-0.118l-0.008,-0.118l-0.009,-0.117l-0.009,-0.117l-0.011,-0.116l-0.012,-0.116l-0.013,-0.115l-0.014,-0.115l-0.015,-0.114l-0.016,-0.113l-0.018,-0.114l-0.018,-0.112l-0.019,-0.112l-0.021,-0.112l-0.021,-0.11l-0.023,-0.111l-0.023,-0.109l-0.024,-0.109l-0.026,-0.109l-0.026,-0.108l-0.028,-0.107l-0.028,-0.106l-0.029,-0.106l-0.03,-0.105l-0.032,-0.104l-0.032,-0.104l-0.033,-0.103l-0.034,-0.103l-0.035,-0.101l-0.035,-0.101l-0.037,-0.1l-0.037,-0.1l-0.039,-0.099l-0.039,-0.097l-0.04,-0.097l-0.041,-0.097l-0.042,-0.095l-0.042,-0.095l-0.044,-0.094l-0.044,-0.093l-0.044,-0.092l-0.046,-0.091l-0.047,-0.091l-0.047,-0.089l-0.048,-0.089l-0.049,-0.088l-0.049,-0.087l-0.05,-0.086l-0.051,-0.085l-0.052,-0.084l-0.052,-0.083l-0.053,-0.082l-0.053,-0.082l-0.055,-0.08l-0.055,-0.08l-0.055,-0.078l-0.056,-0.077l-0.057,-0.077l-0.057,-0.075l-0.058,-0.075l-0.059,-0.073l-0.059,-0.072l-0.06,-0.071l-0.06,-0.071l-0.061,-0.069l-0.061,-0.068l-0.062,-0.067l-0.062,-0.066l-0.063,-0.065l-0.063,-0.064l-0.064,-0.062l-0.064,-0.062l-0.065,-0.061l-0.065,-0.059l-0.065,-0.058l-0.066,-0.057l-0.066,-0.056l-0.067,-0.055l-0.067,-0.054l-0.068,-0.052l-0.068,-0.052l-0.068,-0.05l-0.068,-0.049l-0.069,-0.048l-0.069,-0.047l-0.07,-0.045l-0.07,-0.045l-0.07,-0.043l-0.071,-0.042l-0.071,-0.041l-0.07,-0.04l-0.072,-0.038l-0.072,-0.038l-0.072,-0.036l-0.071,-0.035l-0.073,-0.034l-0.072,-0.032l-0.073,-0.032l-0.073,-0.03l-0.074,-0.029l-0.074,-0.028l-0.073,-0.026l-0.074,-0.026l-0.075,-0.024l-0.074,-0.023l-0.075,-0.022l-0.075,-0.02l-0.075,-0.02l-0.076,-0.018l-0.075,-0.017l-0.076,-0.015l-0.076,-0.015l-0.077,-0.013l-0.077,-0.012l-0.076,-0.011l-0.077,-0.01l-0.078,-0.008l-0.078,-0.007l-0.078,-0.006l-0.078,-0.004l-0.078,-0.004l-0.079,-0.001l-0.079,-0.001l-0.079,0.001Z" style="fill:#5e5e5e;"/></g><circle cx="360.885" cy="719.214" r="1.505" style="fill:#5e5e5e;"/><g id="kad-1" serif:id="kad 1"><circle cx="316.159" cy="652.465" r="1.505" style="fill:#5e5e5e;"/><path d="M311.626,643.203l0.519,0.003l0.515,0.006l0.508,0.009l0.253,0.005l0.251,0.007l0.25,0.007l0.248,0.008l0.246,0.008l0.245,0.01l0.244,0.011l0.242,0.011l0.24,0.013l0.239,0.014l0.238,0.015l0.236,0.016l0.234,0.017l0.233,0.018l0.231,0.02l0.229,0.021l0.228,0.022l0.226,0.024l0.225,0.025l0.222,0.027l0.221,0.028l0.22,0.03l0.218,0.031l0.216,0.033l0.215,0.035l0.212,0.036l0.211,0.038l0.209,0.041l0.207,0.042l0.206,0.043l0.204,0.046l0.202,0.049l0.2,0.05l0.198,0.052l0.197,0.055l0.195,0.057l0.193,0.059l0.191,0.062l0.189,0.064l0.187,0.067l0.186,0.07l0.183,0.072l0.178,0.074l0.093,0.039l0.09,0.04l0.088,0.04l0.088,0.041l0.088,0.041l0.087,0.043l0.087,0.043l0.086,0.044l0.086,0.045l0.085,0.045l0.085,0.046l0.083,0.047l0.083,0.048l0.083,0.049l0.082,0.05l0.082,0.05l0.081,0.052l0.08,0.052l0.079,0.053l0.079,0.054l0.079,0.055l0.077,0.056l0.077,0.057l0.076,0.057l0.076,0.059l0.074,0.059l0.074,0.061l0.074,0.061l0.073,0.062l0.071,0.064l0.071,0.063l0.07,0.066l0.07,0.066l0.068,0.067l0.068,0.068l0.067,0.069l0.066,0.07l0.064,0.07l0.065,0.072l0.063,0.073l0.062,0.073l0.061,0.075l0.061,0.075l0.059,0.076l0.059,0.078l0.057,0.078l0.056,0.079l0.056,0.08l0.054,0.081l0.054,0.082l0.052,0.083l0.051,0.083l0.05,0.085l0.049,0.085l0.048,0.086l0.047,0.087l0.046,0.088l0.045,0.088l0.043,0.09l0.043,0.09l0.041,0.091l0.04,0.092l0.04,0.093l0.038,0.093l0.036,0.094l0.036,0.095l0.035,0.095l0.033,0.097l0.033,0.097l0.031,0.098l0.03,0.099l0.029,0.099l0.028,0.1l0.026,0.101l0.026,0.101l0.024,0.103l0.024,0.102l0.022,0.104l0.021,0.104l0.02,0.105l0.019,0.106l0.018,0.106l0.016,0.107l0.016,0.108l0.014,0.109l0.014,0.109l0.012,0.109l0.011,0.111l0.01,0.111l0.009,0.112l0.008,0.113l0.007,0.113l0.006,0.114l0.005,0.115l0.004,0.115l0.002,0.116l0.002,0.117l0,0.118l0,0.118l-0.002,0.117l-0.002,0.116l-0.004,0.115l-0.005,0.115l-0.006,0.114l-0.007,0.113l-0.008,0.113l-0.009,0.112l-0.01,0.111l-0.011,0.111l-0.012,0.11l-0.014,0.109l-0.014,0.108l-0.016,0.108l-0.016,0.107l-0.018,0.106l-0.019,0.106l-0.02,0.105l-0.021,0.104l-0.022,0.104l-0.023,0.102l-0.025,0.103l-0.026,0.101l-0.026,0.101l-0.028,0.1l-0.029,0.099l-0.03,0.099l-0.031,0.098l-0.033,0.097l-0.033,0.097l-0.035,0.095l-0.036,0.095l-0.036,0.094l-0.038,0.094l-0.04,0.092l-0.04,0.092l-0.041,0.091l-0.043,0.09l-0.043,0.09l-0.045,0.088l-0.046,0.088l-0.047,0.087l-0.048,0.086l-0.049,0.086l-0.05,0.084l-0.051,0.083l-0.052,0.083l-0.054,0.082l-0.054,0.081l-0.056,0.08l-0.056,0.079l-0.057,0.078l-0.059,0.077l-0.059,0.077l-0.061,0.075l-0.061,0.075l-0.062,0.074l-0.063,0.072l-0.064,0.072l-0.066,0.071l-0.066,0.07l-0.066,0.068l-0.068,0.068l-0.068,0.067l-0.07,0.066l-0.07,0.065l-0.07,0.064l-0.073,0.064l-0.072,0.062l-0.073,0.061l-0.074,0.061l-0.075,0.059l-0.076,0.059l-0.075,0.057l-0.078,0.057l-0.077,0.056l-0.079,0.055l-0.079,0.054l-0.079,0.053l-0.08,0.052l-0.081,0.052l-0.082,0.05l-0.082,0.05l-0.082,0.048l-0.084,0.049l-0.083,0.047l-0.085,0.046l-0.085,0.046l-0.086,0.045l-0.086,0.043l-0.086,0.043l-0.088,0.043l-0.088,0.041l-0.088,0.041l-0.089,0.04l-0.089,0.039l-0.093,0.04l-0.178,0.074l-0.184,0.073l-0.185,0.069l-0.187,0.067l-0.189,0.064l-0.191,0.062l-0.193,0.06l-0.195,0.056l-0.196,0.055l-0.199,0.052l-0.2,0.051l-0.202,0.048l-0.204,0.046l-0.206,0.044l-0.207,0.042l-0.209,0.04l-0.211,0.038l-0.213,0.036l-0.214,0.035l-0.216,0.033l-0.218,0.031l-0.219,0.03l-0.222,0.028l-0.222,0.027l-0.225,0.025l-0.226,0.024l-0.228,0.022l-0.229,0.021l-0.231,0.02l-0.233,0.018l-0.234,0.017l-0.236,0.016l-0.238,0.015l-0.238,0.014l-0.241,0.013l-0.242,0.011l-0.244,0.011l-0.245,0.01l-0.246,0.008l-0.248,0.008l-0.25,0.007l-0.251,0.007l-0.253,0.005l-0.508,0.009l-0.514,0.006l-0.52,0.004l-0.526,0.001l-0.53,0l-0.535,-0.002l-0.54,-0.004l-0.545,-0.004l-1.101,-0.011l-1.12,-0.012l-1.135,-0.012l-0.573,-0.004l-0.576,-0.004l-0.579,-0.002l-0.584,-0.001l0.004,-3l0.588,0.001l0.587,0.002l0.582,0.004l0.578,0.004l1.139,0.012l1.12,0.012l1.098,0.011l0.539,0.004l0.533,0.004l0.527,0.002l0.521,0l0.513,-0.001l0.506,-0.004l0.5,-0.006l0.493,-0.008l0.242,-0.006l0.241,-0.006l0.238,-0.006l0.237,-0.008l0.235,-0.008l0.233,-0.009l0.231,-0.011l0.229,-0.01l0.226,-0.012l0.224,-0.013l0.223,-0.014l0.219,-0.015l0.218,-0.016l0.215,-0.017l0.213,-0.018l0.21,-0.02l0.208,-0.02l0.205,-0.022l0.204,-0.022l0.2,-0.024l0.198,-0.025l0.195,-0.027l0.193,-0.028l0.19,-0.029l0.187,-0.03l0.185,-0.032l0.182,-0.032l0.179,-0.035l0.176,-0.036l0.173,-0.037l0.171,-0.038l0.167,-0.04l0.165,-0.041l0.161,-0.043l0.159,-0.044l0.155,-0.045l0.152,-0.047l0.149,-0.048l0.146,-0.05l0.143,-0.051l0.14,-0.052l0.136,-0.054l0.137,-0.056l0.062,-0.027l0.065,-0.029l0.064,-0.029l0.063,-0.029l0.062,-0.029l0.061,-0.03l0.061,-0.03l0.06,-0.031l0.059,-0.031l0.057,-0.03l0.058,-0.032l0.057,-0.032l0.055,-0.032l0.055,-0.032l0.055,-0.033l0.053,-0.033l0.052,-0.034l0.052,-0.033l0.051,-0.035l0.051,-0.034l0.049,-0.035l0.049,-0.035l0.048,-0.035l0.047,-0.036l0.047,-0.036l0.045,-0.036l0.045,-0.037l0.045,-0.038l0.044,-0.037l0.042,-0.037l0.043,-0.039l0.041,-0.038l0.041,-0.039l0.04,-0.04l0.04,-0.039l0.039,-0.041l0.038,-0.04l0.037,-0.041l0.038,-0.041l0.036,-0.042l0.036,-0.042l0.035,-0.043l0.034,-0.043l0.034,-0.044l0.034,-0.044l0.033,-0.045l0.032,-0.045l0.032,-0.046l0.03,-0.046l0.031,-0.046l0.03,-0.048l0.03,-0.048l0.029,-0.049l0.028,-0.05l0.028,-0.049l0.027,-0.051l0.027,-0.052l0.026,-0.052l0.026,-0.052l0.025,-0.054l0.025,-0.054l0.024,-0.055l0.023,-0.056l0.023,-0.056l0.023,-0.058l0.022,-0.058l0.021,-0.059l0.021,-0.06l0.02,-0.061l0.02,-0.062l0.019,-0.062l0.019,-0.064l0.018,-0.064l0.017,-0.066l0.017,-0.066l0.016,-0.067l0.015,-0.069l0.015,-0.069l0.014,-0.07l0.014,-0.071l0.013,-0.073l0.012,-0.073l0.012,-0.074l0.01,-0.076l0.011,-0.076l0.009,-0.078l0.009,-0.078l0.008,-0.08l0.007,-0.081l0.007,-0.082l0.006,-0.083l0.005,-0.084l0.004,-0.085l0.004,-0.086l0.003,-0.087l0.002,-0.089l0.001,-0.089l0,-0.091l0,-0.09l-0.001,-0.09l-0.002,-0.089l-0.003,-0.087l-0.004,-0.086l-0.004,-0.085l-0.005,-0.084l-0.006,-0.083l-0.007,-0.082l-0.007,-0.081l-0.008,-0.079l-0.009,-0.079l-0.009,-0.078l-0.011,-0.076l-0.01,-0.075l-0.012,-0.075l-0.012,-0.073l-0.013,-0.073l-0.014,-0.071l-0.014,-0.07l-0.015,-0.069l-0.015,-0.069l-0.016,-0.067l-0.017,-0.066l-0.017,-0.066l-0.018,-0.064l-0.019,-0.064l-0.019,-0.062l-0.02,-0.062l-0.02,-0.061l-0.021,-0.059l-0.021,-0.06l-0.022,-0.058l-0.023,-0.058l-0.023,-0.056l-0.023,-0.056l-0.024,-0.055l-0.025,-0.054l-0.025,-0.054l-0.026,-0.052l-0.026,-0.053l-0.027,-0.051l-0.027,-0.051l-0.028,-0.049l-0.028,-0.05l-0.029,-0.048l-0.03,-0.049l-0.03,-0.047l-0.03,-0.047l-0.031,-0.046l-0.032,-0.046l-0.033,-0.045l-0.033,-0.045l-0.033,-0.044l-0.033,-0.043l-0.035,-0.044l-0.035,-0.043l-0.036,-0.042l-0.036,-0.042l-0.037,-0.041l-0.038,-0.041l-0.039,-0.041l-0.038,-0.04l-0.04,-0.039l-0.04,-0.04l-0.041,-0.039l-0.041,-0.038l-0.043,-0.038l-0.043,-0.038l-0.043,-0.038l-0.044,-0.037l-0.045,-0.036l-0.047,-0.037l-0.046,-0.036l-0.047,-0.036l-0.048,-0.035l-0.049,-0.035l-0.049,-0.035l-0.051,-0.034l-0.051,-0.034l-0.052,-0.034l-0.052,-0.034l-0.053,-0.033l-0.055,-0.033l-0.055,-0.032l-0.055,-0.032l-0.057,-0.032l-0.057,-0.031l-0.059,-0.032l-0.059,-0.03l-0.059,-0.031l-0.061,-0.03l-0.061,-0.03l-0.062,-0.029l-0.063,-0.029l-0.064,-0.029l-0.064,-0.028l-0.063,-0.027l-0.137,-0.057l-0.136,-0.054l-0.14,-0.052l-0.142,-0.051l-0.147,-0.05l-0.149,-0.048l-0.152,-0.047l-0.155,-0.045l-0.159,-0.044l-0.161,-0.043l-0.165,-0.041l-0.167,-0.04l-0.17,-0.038l-0.174,-0.037l-0.176,-0.036l-0.179,-0.034l-0.182,-0.033l-0.185,-0.032l-0.187,-0.03l-0.19,-0.029l-0.193,-0.028l-0.195,-0.026l-0.198,-0.026l-0.2,-0.024l-0.204,-0.022l-0.205,-0.022l-0.208,-0.02l-0.21,-0.02l-0.213,-0.018l-0.215,-0.017l-0.218,-0.016l-0.219,-0.015l-0.223,-0.013l-0.224,-0.013l-0.226,-0.012l-0.229,-0.011l-0.231,-0.01l-0.233,-0.01l-0.234,-0.008l-0.238,-0.008l-0.239,-0.006l-0.24,-0.006l-0.242,-0.006l-0.493,-0.008l-0.499,-0.006l-0.507,-0.003l-0.514,-0.002l-0.52,0.001l-0.527,0.002l-0.533,0.003l-0.539,0.004l-1.098,0.011l-1.12,0.012l-1.139,0.012l-0.578,0.004l-0.582,0.004l-0.587,0.002l-0.588,0.001l-0.004,-3l0.584,-0.001l0.579,-0.002l0.576,-0.004l0.573,-0.004l1.135,-0.011l1.119,-0.013l1.102,-0.011l0.545,-0.004l0.54,-0.003l0.535,-0.002l0.531,-0.001l0.525,0.002Z" style="fill:#5e5e5e;"/><path d="M296.738,643.202l0.535,0.002l0.54,0.003l0.545,0.004l1.102,0.011l1.119,0.013l1.135,0.011l0.573,0.004l0.576,0.004l0.579,0.002l0.585,0.001l-0.005,3l-0.588,-0.001l-0.587,-0.002l-0.582,-0.004l-0.578,-0.004l-1.139,-0.012l-1.12,-0.012l-1.097,-0.011l-0.54,-0.004l-0.533,-0.003l-0.527,-0.002l-0.52,-0.001l-0.514,0.002l-0.506,0.003l-0.5,0.006l-0.492,0.008l-0.242,0.006l-0.241,0.006l-0.239,0.006l-0.237,0.008l-0.235,0.008l-0.233,0.01l-0.231,0.01l-0.229,0.011l-0.226,0.012l-0.224,0.013l-0.222,0.013l-0.22,0.015l-0.218,0.016l-0.215,0.017l-0.213,0.018l-0.21,0.02l-0.208,0.02l-0.205,0.022l-0.203,0.022l-0.201,0.024l-0.198,0.026l-0.195,0.026l-0.193,0.028l-0.19,0.029l-0.187,0.03l-0.185,0.032l-0.182,0.033l-0.178,0.034l-0.177,0.036l-0.173,0.037l-0.17,0.038l-0.168,0.04l-0.165,0.041l-0.161,0.043l-0.158,0.044l-0.156,0.045l-0.152,0.047l-0.149,0.048l-0.146,0.05l-0.143,0.051l-0.14,0.052l-0.136,0.054l-0.137,0.057l-0.062,0.027l-0.064,0.028l-0.064,0.029l-0.064,0.029l-0.062,0.029l-0.061,0.03l-0.061,0.03l-0.059,0.031l-0.059,0.03l-0.059,0.032l-0.057,0.031l-0.056,0.032l-0.056,0.032l-0.055,0.032l-0.055,0.033l-0.053,0.033l-0.052,0.034l-0.052,0.033l-0.051,0.035l-0.051,0.034l-0.049,0.035l-0.049,0.035l-0.048,0.035l-0.047,0.036l-0.046,0.036l-0.046,0.037l-0.046,0.036l-0.043,0.037l-0.044,0.038l-0.043,0.038l-0.043,0.038l-0.041,0.038l-0.041,0.039l-0.04,0.04l-0.04,0.039l-0.038,0.04l-0.039,0.041l-0.038,0.041l-0.036,0.041l-0.037,0.042l-0.035,0.042l-0.035,0.043l-0.035,0.043l-0.034,0.044l-0.033,0.044l-0.033,0.045l-0.033,0.045l-0.031,0.046l-0.031,0.046l-0.031,0.047l-0.03,0.047l-0.029,0.048l-0.029,0.049l-0.029,0.05l-0.028,0.049l-0.027,0.051l-0.027,0.051l-0.026,0.053l-0.026,0.052l-0.025,0.054l-0.025,0.054l-0.024,0.055l-0.023,0.056l-0.023,0.056l-0.023,0.058l-0.022,0.058l-0.021,0.059l-0.021,0.06l-0.02,0.061l-0.02,0.062l-0.019,0.062l-0.018,0.064l-0.018,0.064l-0.018,0.066l-0.016,0.066l-0.017,0.067l-0.015,0.069l-0.015,0.069l-0.014,0.07l-0.014,0.072l-0.013,0.072l-0.012,0.073l-0.011,0.075l-0.011,0.075l-0.011,0.077l-0.009,0.077l-0.009,0.079l-0.008,0.079l-0.007,0.081l-0.007,0.082l-0.006,0.083l-0.005,0.084l-0.004,0.085l-0.004,0.086l-0.003,0.087l-0.002,0.089l-0.001,0.089l0,0.091l0,0.091l0.001,0.089l0.002,0.089l0.003,0.087l0.004,0.086l0.004,0.085l0.005,0.084l0.006,0.083l0.007,0.082l0.007,0.081l0.008,0.08l0.009,0.078l0.009,0.078l0.011,0.076l0.011,0.076l0.011,0.074l0.012,0.073l0.013,0.073l0.014,0.071l0.014,0.07l0.015,0.069l0.016,0.069l0.016,0.067l0.016,0.066l0.018,0.066l0.018,0.064l0.018,0.064l0.019,0.062l0.02,0.062l0.02,0.061l0.021,0.06l0.021,0.059l0.022,0.058l0.023,0.058l0.023,0.056l0.023,0.056l0.025,0.055l0.024,0.054l0.025,0.054l0.026,0.053l0.026,0.051l0.027,0.052l0.027,0.051l0.028,0.049l0.029,0.05l0.029,0.049l0.029,0.048l0.03,0.047l0.031,0.047l0.031,0.046l0.031,0.046l0.033,0.045l0.032,0.045l0.034,0.044l0.034,0.044l0.035,0.043l0.035,0.043l0.035,0.042l0.037,0.042l0.037,0.041l0.037,0.041l0.038,0.04l0.039,0.041l0.04,0.039l0.04,0.04l0.041,0.039l0.042,0.038l0.042,0.039l0.042,0.037l0.044,0.038l0.045,0.037l0.045,0.037l0.045,0.036l0.047,0.036l0.048,0.036l0.047,0.035l0.049,0.035l0.049,0.035l0.051,0.035l0.051,0.034l0.052,0.033l0.052,0.034l0.053,0.033l0.055,0.033l0.055,0.032l0.056,0.032l0.056,0.032l0.058,0.032l0.057,0.03l0.059,0.031l0.06,0.031l0.061,0.03l0.061,0.03l0.062,0.029l0.063,0.029l0.064,0.029l0.065,0.029l0.063,0.027l0.136,0.056l0.136,0.054l0.14,0.052l0.143,0.051l0.146,0.05l0.149,0.048l0.152,0.047l0.155,0.045l0.159,0.044l0.162,0.043l0.164,0.041l0.167,0.04l0.171,0.038l0.173,0.037l0.176,0.036l0.179,0.035l0.182,0.032l0.185,0.032l0.187,0.03l0.19,0.029l0.193,0.028l0.195,0.027l0.198,0.025l0.201,0.024l0.203,0.022l0.205,0.022l0.208,0.02l0.21,0.02l0.213,0.018l0.215,0.017l0.218,0.016l0.22,0.015l0.222,0.014l0.224,0.013l0.226,0.012l0.229,0.01l0.231,0.011l0.233,0.009l0.235,0.008l0.237,0.008l0.239,0.006l0.241,0.006l0.242,0.006l0.493,0.008l0.499,0.006l0.506,0.004l0.514,0.001l0.52,0l0.527,-0.002l0.533,-0.004l0.54,-0.004l1.097,-0.011l1.12,-0.012l1.139,-0.012l0.578,-0.004l0.582,-0.004l0.587,-0.002l0.588,-0.001l0.005,3l-0.585,0.001l-0.579,0.002l-0.576,0.004l-0.573,0.004l-1.135,0.012l-1.119,0.012l-1.102,0.011l-0.545,0.004l-0.54,0.004l-0.535,0.002l-0.53,0l-0.525,-0.001l-0.52,-0.004l-0.515,-0.006l-0.508,-0.009l-0.253,-0.005l-0.251,-0.007l-0.249,-0.007l-0.249,-0.008l-0.246,-0.008l-0.245,-0.01l-0.244,-0.011l-0.242,-0.011l-0.241,-0.013l-0.238,-0.014l-0.238,-0.015l-0.236,-0.016l-0.234,-0.017l-0.233,-0.018l-0.23,-0.02l-0.23,-0.021l-0.228,-0.022l-0.226,-0.024l-0.224,-0.025l-0.223,-0.027l-0.222,-0.028l-0.219,-0.03l-0.218,-0.031l-0.216,-0.033l-0.214,-0.035l-0.213,-0.036l-0.211,-0.038l-0.209,-0.04l-0.207,-0.042l-0.206,-0.044l-0.204,-0.046l-0.202,-0.048l-0.2,-0.051l-0.199,-0.052l-0.196,-0.055l-0.195,-0.056l-0.193,-0.06l-0.191,-0.062l-0.189,-0.064l-0.187,-0.067l-0.185,-0.069l-0.184,-0.073l-0.178,-0.074l-0.093,-0.04l-0.089,-0.039l-0.088,-0.04l-0.089,-0.041l-0.088,-0.041l-0.088,-0.043l-0.086,-0.043l-0.086,-0.043l-0.085,-0.045l-0.086,-0.046l-0.084,-0.046l-0.084,-0.047l-0.084,-0.049l-0.082,-0.048l-0.082,-0.05l-0.082,-0.05l-0.081,-0.052l-0.08,-0.052l-0.079,-0.053l-0.079,-0.054l-0.078,-0.055l-0.078,-0.056l-0.077,-0.057l-0.076,-0.057l-0.076,-0.059l-0.075,-0.059l-0.074,-0.061l-0.073,-0.061l-0.072,-0.062l-0.072,-0.064l-0.071,-0.064l-0.07,-0.065l-0.07,-0.066l-0.068,-0.067l-0.068,-0.068l-0.066,-0.068l-0.066,-0.07l-0.065,-0.071l-0.064,-0.072l-0.064,-0.072l-0.062,-0.074l-0.061,-0.075l-0.061,-0.075l-0.059,-0.077l-0.058,-0.077l-0.058,-0.078l-0.056,-0.079l-0.056,-0.08l-0.054,-0.081l-0.053,-0.082l-0.053,-0.083l-0.051,-0.083l-0.05,-0.085l-0.049,-0.085l-0.048,-0.086l-0.047,-0.087l-0.046,-0.088l-0.045,-0.088l-0.043,-0.09l-0.043,-0.09l-0.041,-0.091l-0.04,-0.092l-0.039,-0.092l-0.038,-0.094l-0.037,-0.094l-0.036,-0.095l-0.035,-0.095l-0.033,-0.097l-0.033,-0.097l-0.031,-0.098l-0.03,-0.099l-0.029,-0.099l-0.028,-0.1l-0.026,-0.101l-0.026,-0.101l-0.024,-0.103l-0.024,-0.102l-0.022,-0.104l-0.021,-0.104l-0.02,-0.105l-0.019,-0.106l-0.018,-0.106l-0.016,-0.107l-0.016,-0.108l-0.014,-0.108l-0.014,-0.11l-0.012,-0.109l-0.011,-0.111l-0.01,-0.111l-0.009,-0.112l-0.008,-0.113l-0.007,-0.113l-0.006,-0.114l-0.005,-0.115l-0.003,-0.115l-0.003,-0.116l-0.002,-0.117l0,-0.118l0,-0.118l0.002,-0.117l0.003,-0.116l0.003,-0.115l0.005,-0.115l0.006,-0.114l0.007,-0.113l0.008,-0.113l0.009,-0.112l0.01,-0.111l0.011,-0.111l0.012,-0.109l0.014,-0.11l0.014,-0.108l0.016,-0.108l0.016,-0.107l0.018,-0.106l0.019,-0.106l0.02,-0.105l0.021,-0.104l0.022,-0.104l0.024,-0.102l0.024,-0.103l0.026,-0.101l0.026,-0.101l0.028,-0.1l0.029,-0.099l0.03,-0.099l0.032,-0.098l0.032,-0.097l0.033,-0.096l0.035,-0.096l0.036,-0.095l0.037,-0.094l0.037,-0.093l0.04,-0.093l0.04,-0.092l0.041,-0.091l0.043,-0.09l0.043,-0.09l0.045,-0.088l0.046,-0.088l0.047,-0.087l0.048,-0.086l0.049,-0.085l0.05,-0.085l0.051,-0.083l0.053,-0.083l0.053,-0.082l0.054,-0.081l0.056,-0.08l0.056,-0.079l0.057,-0.078l0.059,-0.078l0.06,-0.076l0.06,-0.075l0.061,-0.075l0.062,-0.073l0.064,-0.073l0.064,-0.072l0.065,-0.07l0.065,-0.07l0.067,-0.069l0.068,-0.068l0.068,-0.067l0.07,-0.066l0.07,-0.065l0.071,-0.064l0.072,-0.064l0.072,-0.062l0.074,-0.061l0.074,-0.061l0.074,-0.059l0.076,-0.059l0.076,-0.057l0.077,-0.057l0.077,-0.056l0.079,-0.055l0.079,-0.054l0.079,-0.053l0.08,-0.052l0.081,-0.052l0.082,-0.05l0.082,-0.05l0.083,-0.049l0.083,-0.048l0.084,-0.047l0.084,-0.046l0.085,-0.045l0.086,-0.045l0.086,-0.044l0.087,-0.043l0.087,-0.043l0.088,-0.041l0.088,-0.041l0.089,-0.04l0.09,-0.04l0.092,-0.039l0.178,-0.074l0.183,-0.072l0.186,-0.07l0.187,-0.067l0.189,-0.064l0.191,-0.062l0.193,-0.059l0.195,-0.057l0.197,-0.055l0.198,-0.052l0.2,-0.05l0.202,-0.049l0.204,-0.046l0.206,-0.043l0.207,-0.042l0.209,-0.041l0.211,-0.038l0.213,-0.036l0.214,-0.035l0.216,-0.033l0.218,-0.031l0.22,-0.03l0.221,-0.028l0.223,-0.027l0.224,-0.025l0.226,-0.024l0.228,-0.022l0.23,-0.021l0.231,-0.02l0.232,-0.018l0.234,-0.017l0.236,-0.016l0.238,-0.015l0.239,-0.014l0.24,-0.013l0.242,-0.011l0.244,-0.011l0.245,-0.01l0.247,-0.008l0.248,-0.008l0.249,-0.007l0.251,-0.007l0.253,-0.005l0.508,-0.009l0.515,-0.006l0.519,-0.003l0.526,-0.002l0.53,0.001Z" style="fill:#5e5e5e;"/></g><g id="kad-11" serif:id="kad 1"><path d="M536.383,651.233c0,-0.831 0.675,-1.506 1.506,-1.506c0.83,0 1.505,0.675 1.505,1.506c0,0.831 -0.675,1.505 -1.505,1.505c-0.831,0 -1.506,-0.674 -1.506,-1.505Z" style="fill:#5e5e5e;"/><path d="M538.006,639.869l0.117,0.001l0.117,0.003l0.115,0.004l0.114,0.004l0.114,0.006l0.114,0.007l0.112,0.008l0.112,0.009l0.112,0.01l0.11,0.012l0.11,0.012l0.109,0.013l0.109,0.015l0.107,0.015l0.107,0.017l0.107,0.018l0.105,0.019l0.105,0.019l0.104,0.022l0.104,0.022l0.103,0.023l0.102,0.025l0.101,0.025l0.102,0.027l0.099,0.028l0.1,0.029l0.098,0.03l0.098,0.031l0.097,0.032l0.097,0.034l0.096,0.034l0.095,0.036l0.094,0.037l0.093,0.038l0.092,0.039l0.092,0.04l0.092,0.042l0.09,0.042l0.089,0.044l0.089,0.045l0.088,0.046l0.086,0.046l0.087,0.048l0.085,0.049l0.084,0.05l0.084,0.052l0.082,0.052l0.082,0.053l0.082,0.055l0.079,0.055l0.079,0.056l0.079,0.058l0.077,0.059l0.076,0.059l0.076,0.06l0.075,0.062l0.073,0.062l0.072,0.063l0.073,0.064l0.07,0.065l0.07,0.066l0.069,0.067l0.068,0.067l0.067,0.069l0.066,0.069l0.065,0.07l0.064,0.071l0.063,0.072l0.063,0.073l0.061,0.073l0.06,0.074l0.06,0.075l0.058,0.075l0.058,0.076l0.057,0.077l0.055,0.078l0.055,0.078l0.054,0.079l0.054,0.08l0.052,0.08l0.051,0.081l0.051,0.081l0.05,0.083l0.048,0.082l0.048,0.083l0.047,0.084l0.047,0.085l0.045,0.085l0.045,0.085l0.044,0.086l0.043,0.087l0.042,0.087l0.042,0.088l0.041,0.088l0.04,0.089l0.039,0.09l0.04,0.092l0.074,0.179l0.072,0.183l0.07,0.185l0.067,0.187l0.064,0.19l0.062,0.191l0.059,0.193l0.057,0.194l0.054,0.197l0.053,0.198l0.05,0.201l0.048,0.202l0.046,0.204l0.044,0.205l0.042,0.208l0.04,0.209l0.038,0.211l0.037,0.212l0.034,0.215l0.033,0.216l0.032,0.217l0.029,0.22l0.029,0.221l0.026,0.223l0.025,0.224l0.024,0.227l0.022,0.227l0.021,0.23l0.02,0.231l0.019,0.233l0.017,0.234l0.016,0.236l0.015,0.237l0.013,0.239l0.013,0.241l0.012,0.242l0.01,0.243l0.01,0.245l0.009,0.247l0.008,0.248l0.007,0.25l0.006,0.25l0.006,0.254l0.008,0.508l0.006,0.514l0.004,0.52l0.001,0.525l0,0.53l-0.002,0.535l-0.003,0.54l-0.005,0.545l-0.011,1.102l-0.012,1.119l-0.011,1.136l-0.005,0.572l-0.004,0.576l-0.002,0.579l-0.001,0.585l-3,-0.004l0.001,-0.589l0.002,-0.586l0.004,-0.583l0.005,-0.577l0.011,-1.14l0.012,-1.119l0.011,-1.098l0.005,-0.539l0.003,-0.534l0.002,-0.527l0,-0.52l-0.001,-0.513l-0.004,-0.507l-0.005,-0.499l-0.009,-0.493l-0.005,-0.242l-0.006,-0.241l-0.007,-0.239l-0.007,-0.237l-0.009,-0.235l-0.009,-0.233l-0.01,-0.231l-0.011,-0.228l-0.012,-0.227l-0.013,-0.224l-0.014,-0.222l-0.015,-0.22l-0.016,-0.217l-0.017,-0.215l-0.018,-0.213l-0.019,-0.21l-0.021,-0.209l-0.021,-0.205l-0.023,-0.203l-0.024,-0.201l-0.025,-0.197l-0.026,-0.196l-0.028,-0.192l-0.029,-0.19l-0.03,-0.188l-0.032,-0.185l-0.033,-0.181l-0.034,-0.179l-0.036,-0.176l-0.037,-0.174l-0.039,-0.17l-0.039,-0.168l-0.042,-0.164l-0.042,-0.162l-0.044,-0.158l-0.046,-0.155l-0.047,-0.153l-0.048,-0.149l-0.049,-0.146l-0.051,-0.143l-0.053,-0.139l-0.054,-0.137l-0.056,-0.136l-0.027,-0.063l-0.028,-0.064l-0.029,-0.064l-0.029,-0.063l-0.03,-0.062l-0.03,-0.062l-0.03,-0.06l-0.03,-0.06l-0.031,-0.059l-0.031,-0.058l-0.031,-0.057l-0.032,-0.057l-0.033,-0.056l-0.032,-0.055l-0.033,-0.054l-0.033,-0.053l-0.033,-0.053l-0.034,-0.052l-0.034,-0.051l-0.034,-0.05l-0.035,-0.049l-0.035,-0.049l-0.036,-0.048l-0.035,-0.047l-0.036,-0.047l-0.037,-0.046l-0.037,-0.045l-0.037,-0.044l-0.037,-0.044l-0.038,-0.043l-0.038,-0.042l-0.039,-0.042l-0.039,-0.04l-0.039,-0.041l-0.04,-0.039l-0.04,-0.039l-0.04,-0.038l-0.042,-0.038l-0.04,-0.037l-0.042,-0.036l-0.043,-0.036l-0.043,-0.035l-0.043,-0.035l-0.044,-0.034l-0.044,-0.033l-0.044,-0.033l-0.045,-0.032l-0.047,-0.032l-0.046,-0.031l-0.046,-0.03l-0.048,-0.031l-0.048,-0.029l-0.049,-0.029l-0.049,-0.028l-0.05,-0.028l-0.051,-0.028l-0.051,-0.026l-0.052,-0.027l-0.053,-0.025l-0.053,-0.026l-0.054,-0.024l-0.055,-0.024l-0.057,-0.024l-0.056,-0.023l-0.058,-0.022l-0.058,-0.022l-0.059,-0.022l-0.059,-0.02l-0.061,-0.021l-0.062,-0.019l-0.063,-0.019l-0.063,-0.019l-0.065,-0.018l-0.065,-0.017l-0.066,-0.017l-0.068,-0.016l-0.068,-0.016l-0.069,-0.014l-0.07,-0.015l-0.072,-0.013l-0.072,-0.013l-0.074,-0.012l-0.074,-0.012l-0.076,-0.011l-0.076,-0.01l-0.077,-0.01l-0.079,-0.008l-0.08,-0.008l-0.08,-0.008l-0.082,-0.006l-0.083,-0.006l-0.084,-0.005l-0.085,-0.005l-0.087,-0.003l-0.087,-0.003l-0.088,-0.002l-0.09,-0.001l-0.091,-0.001l-0.09,0.001l-0.09,0.001l-0.088,0.002l-0.087,0.003l-0.087,0.003l-0.085,0.005l-0.084,0.005l-0.083,0.006l-0.082,0.006l-0.08,0.008l-0.08,0.008l-0.079,0.008l-0.077,0.01l-0.076,0.01l-0.076,0.011l-0.074,0.012l-0.074,0.012l-0.072,0.013l-0.072,0.013l-0.07,0.015l-0.069,0.014l-0.068,0.016l-0.067,0.016l-0.067,0.017l-0.065,0.017l-0.065,0.018l-0.063,0.019l-0.063,0.019l-0.062,0.019l-0.06,0.021l-0.06,0.02l-0.059,0.022l-0.058,0.022l-0.058,0.022l-0.056,0.023l-0.057,0.024l-0.055,0.024l-0.054,0.024l-0.053,0.026l-0.053,0.026l-0.052,0.026l-0.051,0.026l-0.051,0.028l-0.05,0.028l-0.049,0.028l-0.049,0.029l-0.048,0.029l-0.048,0.031l-0.046,0.03l-0.047,0.031l-0.046,0.032l-0.045,0.032l-0.044,0.033l-0.045,0.033l-0.043,0.034l-0.043,0.035l-0.043,0.035l-0.043,0.036l-0.042,0.036l-0.041,0.037l-0.04,0.038l-0.041,0.038l-0.04,0.039l-0.04,0.039l-0.039,0.041l-0.039,0.04l-0.039,0.042l-0.038,0.042l-0.038,0.043l-0.037,0.044l-0.037,0.044l-0.037,0.045l-0.036,0.046l-0.037,0.047l-0.036,0.047l-0.035,0.048l-0.035,0.049l-0.035,0.049l-0.034,0.05l-0.034,0.051l-0.034,0.052l-0.033,0.053l-0.033,0.053l-0.033,0.054l-0.033,0.055l-0.032,0.056l-0.031,0.056l-0.032,0.058l-0.031,0.058l-0.031,0.059l-0.03,0.06l-0.03,0.061l-0.03,0.061l-0.03,0.062l-0.029,0.063l-0.028,0.063l-0.029,0.065l-0.027,0.063l-0.056,0.136l-0.054,0.137l-0.053,0.139l-0.051,0.143l-0.049,0.146l-0.049,0.149l-0.046,0.153l-0.046,0.155l-0.044,0.158l-0.042,0.162l-0.042,0.164l-0.039,0.168l-0.039,0.17l-0.037,0.174l-0.036,0.176l-0.034,0.179l-0.033,0.182l-0.032,0.184l-0.03,0.188l-0.029,0.19l-0.028,0.192l-0.026,0.196l-0.025,0.198l-0.024,0.2l-0.023,0.203l-0.021,0.206l-0.021,0.208l-0.019,0.21l-0.018,0.213l-0.017,0.215l-0.016,0.217l-0.015,0.22l-0.014,0.222l-0.013,0.224l-0.012,0.227l-0.011,0.229l-0.01,0.23l-0.009,0.233l-0.009,0.235l-0.007,0.237l-0.007,0.239l-0.006,0.241l-0.005,0.242l-0.009,0.493l-0.005,0.499l-0.004,0.507l-0.001,0.513l0,0.52l0.002,0.527l0.003,0.534l0.005,0.539l0.011,1.098l0.012,1.119l0.011,1.14l0.005,0.578l0.004,0.582l0.002,0.586l0.001,0.589l-3,0.004l-0.001,-0.585l-0.002,-0.579l-0.004,-0.576l-0.005,-0.572l-0.011,-1.136l-0.012,-1.119l-0.011,-1.102l-0.005,-0.545l-0.003,-0.54l-0.002,-0.535l0,-0.53l0.001,-0.525l0.004,-0.52l0.006,-0.514l0.008,-0.508l0.006,-0.254l0.006,-0.25l0.007,-0.25l0.008,-0.248l0.009,-0.247l0.01,-0.245l0.01,-0.243l0.012,-0.242l0.013,-0.241l0.013,-0.239l0.015,-0.237l0.016,-0.236l0.017,-0.234l0.019,-0.233l0.02,-0.231l0.021,-0.23l0.022,-0.227l0.024,-0.226l0.025,-0.225l0.026,-0.223l0.029,-0.221l0.029,-0.219l0.032,-0.218l0.033,-0.216l0.034,-0.215l0.037,-0.212l0.038,-0.211l0.04,-0.209l0.042,-0.208l0.044,-0.205l0.046,-0.204l0.048,-0.202l0.05,-0.201l0.053,-0.198l0.054,-0.197l0.057,-0.194l0.059,-0.193l0.062,-0.191l0.065,-0.19l0.066,-0.187l0.07,-0.185l0.072,-0.183l0.074,-0.179l0.04,-0.092l0.039,-0.09l0.04,-0.089l0.041,-0.088l0.042,-0.088l0.042,-0.087l0.043,-0.087l0.044,-0.086l0.045,-0.085l0.045,-0.085l0.047,-0.085l0.047,-0.084l0.048,-0.083l0.049,-0.083l0.05,-0.082l0.05,-0.081l0.051,-0.081l0.053,-0.081l0.053,-0.079l0.054,-0.079l0.055,-0.078l0.055,-0.078l0.057,-0.077l0.058,-0.076l0.058,-0.075l0.06,-0.075l0.06,-0.074l0.061,-0.073l0.063,-0.073l0.063,-0.072l0.064,-0.071l0.065,-0.07l0.066,-0.069l0.067,-0.069l0.068,-0.067l0.069,-0.067l0.07,-0.066l0.071,-0.065l0.072,-0.064l0.072,-0.063l0.074,-0.062l0.074,-0.062l0.076,-0.06l0.076,-0.06l0.077,-0.058l0.079,-0.058l0.079,-0.056l0.079,-0.055l0.082,-0.055l0.082,-0.053l0.082,-0.052l0.084,-0.052l0.084,-0.049l0.085,-0.05l0.087,-0.048l0.086,-0.046l0.088,-0.047l0.089,-0.044l0.089,-0.044l0.09,-0.042l0.092,-0.042l0.092,-0.04l0.092,-0.039l0.093,-0.038l0.094,-0.037l0.095,-0.036l0.096,-0.034l0.097,-0.034l0.097,-0.032l0.098,-0.031l0.098,-0.03l0.1,-0.029l0.099,-0.028l0.102,-0.027l0.101,-0.025l0.102,-0.025l0.103,-0.023l0.104,-0.022l0.104,-0.022l0.105,-0.019l0.105,-0.019l0.107,-0.018l0.107,-0.017l0.107,-0.015l0.109,-0.015l0.109,-0.013l0.11,-0.012l0.11,-0.012l0.112,-0.01l0.112,-0.009l0.112,-0.008l0.114,-0.007l0.114,-0.006l0.114,-0.004l0.115,-0.004l0.117,-0.003l0.117,-0.001l0.117,-0.001l0.118,0.001Z" style="fill:#5e5e5e;"/><path d="M547.097,663.95l0.002,0.579l0.004,0.576l0.005,0.572l0.011,1.136l0.012,1.119l0.011,1.102l0.005,0.545l0.003,0.54l0.002,0.535l0,0.53l-0.001,0.525l-0.004,0.52l-0.006,0.514l-0.008,0.508l-0.006,0.254l-0.006,0.251l-0.007,0.249l-0.008,0.248l-0.009,0.247l-0.01,0.245l-0.01,0.243l-0.012,0.242l-0.013,0.241l-0.013,0.239l-0.015,0.237l-0.016,0.236l-0.017,0.234l-0.019,0.233l-0.02,0.231l-0.021,0.23l-0.022,0.227l-0.024,0.227l-0.025,0.224l-0.026,0.223l-0.029,0.221l-0.029,0.219l-0.032,0.218l-0.033,0.216l-0.034,0.215l-0.037,0.212l-0.038,0.211l-0.04,0.209l-0.042,0.208l-0.044,0.205l-0.046,0.204l-0.048,0.202l-0.05,0.201l-0.052,0.198l-0.055,0.197l-0.057,0.194l-0.059,0.193l-0.062,0.191l-0.064,0.189l-0.067,0.188l-0.07,0.185l-0.072,0.183l-0.074,0.178l-0.04,0.093l-0.039,0.09l-0.04,0.089l-0.041,0.088l-0.042,0.088l-0.042,0.087l-0.043,0.087l-0.044,0.086l-0.045,0.085l-0.045,0.085l-0.047,0.085l-0.047,0.084l-0.048,0.083l-0.049,0.083l-0.049,0.082l-0.051,0.081l-0.051,0.081l-0.052,0.08l-0.054,0.08l-0.054,0.079l-0.054,0.078l-0.057,0.078l-0.056,0.077l-0.058,0.076l-0.058,0.075l-0.06,0.075l-0.06,0.074l-0.062,0.074l-0.062,0.072l-0.063,0.071l-0.064,0.072l-0.065,0.07l-0.066,0.069l-0.067,0.069l-0.069,0.068l-0.068,0.066l-0.07,0.066l-0.071,0.065l-0.071,0.064l-0.073,0.063l-0.073,0.062l-0.076,0.062l-0.075,0.06l-0.076,0.059l-0.077,0.059l-0.079,0.057l-0.079,0.057l-0.08,0.055l-0.081,0.055l-0.081,0.053l-0.083,0.052l-0.084,0.052l-0.085,0.05l-0.084,0.049l-0.087,0.048l-0.087,0.047l-0.087,0.045l-0.089,0.045l-0.089,0.044l-0.09,0.042l-0.092,0.042l-0.092,0.04l-0.092,0.039l-0.093,0.038l-0.095,0.037l-0.094,0.036l-0.096,0.034l-0.097,0.034l-0.096,0.032l-0.098,0.031l-0.099,0.03l-0.1,0.029l-0.1,0.028l-0.101,0.027l-0.101,0.025l-0.102,0.025l-0.103,0.023l-0.104,0.022l-0.103,0.021l-0.106,0.02l-0.105,0.019l-0.107,0.018l-0.107,0.017l-0.108,0.015l-0.108,0.015l-0.109,0.013l-0.11,0.013l-0.111,0.011l-0.111,0.01l-0.111,0.009l-0.114,0.008l-0.113,0.007l-0.113,0.006l-0.115,0.004l-0.116,0.004l-0.116,0.003l-0.117,0.001l-0.118,0.001l-0.117,-0.001l-0.117,-0.001l-0.116,-0.003l-0.116,-0.004l-0.115,-0.004l-0.113,-0.006l-0.113,-0.007l-0.114,-0.008l-0.111,-0.009l-0.111,-0.01l-0.111,-0.011l-0.11,-0.013l-0.109,-0.013l-0.108,-0.015l-0.108,-0.015l-0.107,-0.017l-0.107,-0.018l-0.105,-0.019l-0.106,-0.02l-0.103,-0.021l-0.104,-0.022l-0.103,-0.023l-0.102,-0.025l-0.101,-0.025l-0.101,-0.027l-0.1,-0.028l-0.1,-0.029l-0.099,-0.03l-0.098,-0.031l-0.096,-0.032l-0.097,-0.034l-0.096,-0.034l-0.094,-0.036l-0.095,-0.037l-0.093,-0.038l-0.092,-0.039l-0.092,-0.04l-0.092,-0.042l-0.09,-0.042l-0.089,-0.044l-0.089,-0.045l-0.088,-0.045l-0.086,-0.047l-0.087,-0.048l-0.085,-0.049l-0.084,-0.05l-0.084,-0.052l-0.083,-0.052l-0.081,-0.053l-0.081,-0.055l-0.08,-0.055l-0.08,-0.057l-0.078,-0.057l-0.077,-0.058l-0.076,-0.06l-0.076,-0.06l-0.074,-0.062l-0.074,-0.062l-0.073,-0.063l-0.071,-0.064l-0.071,-0.065l-0.07,-0.066l-0.068,-0.066l-0.069,-0.068l-0.067,-0.069l-0.066,-0.069l-0.065,-0.07l-0.064,-0.072l-0.063,-0.071l-0.062,-0.072l-0.062,-0.074l-0.06,-0.074l-0.06,-0.075l-0.058,-0.075l-0.058,-0.076l-0.056,-0.077l-0.057,-0.078l-0.055,-0.078l-0.053,-0.079l-0.053,-0.08l-0.053,-0.08l-0.051,-0.081l-0.051,-0.081l-0.049,-0.082l-0.049,-0.083l-0.048,-0.083l-0.047,-0.084l-0.047,-0.085l-0.045,-0.085l-0.045,-0.085l-0.044,-0.086l-0.043,-0.087l-0.042,-0.087l-0.042,-0.088l-0.041,-0.088l-0.04,-0.089l-0.039,-0.09l-0.04,-0.093l-0.074,-0.178l-0.072,-0.183l-0.07,-0.185l-0.067,-0.188l-0.064,-0.189l-0.062,-0.19l-0.059,-0.194l-0.057,-0.194l-0.055,-0.197l-0.052,-0.198l-0.05,-0.201l-0.048,-0.202l-0.046,-0.204l-0.044,-0.205l-0.042,-0.208l-0.04,-0.209l-0.038,-0.211l-0.037,-0.212l-0.034,-0.215l-0.033,-0.216l-0.032,-0.218l-0.029,-0.219l-0.029,-0.221l-0.026,-0.223l-0.025,-0.225l-0.024,-0.226l-0.022,-0.227l-0.021,-0.23l-0.02,-0.231l-0.019,-0.233l-0.017,-0.234l-0.016,-0.236l-0.015,-0.237l-0.013,-0.239l-0.013,-0.241l-0.012,-0.242l-0.01,-0.243l-0.01,-0.245l-0.009,-0.247l-0.008,-0.248l-0.007,-0.249l-0.006,-0.251l-0.006,-0.254l-0.008,-0.508l-0.006,-0.514l-0.004,-0.52l-0.001,-0.525l0,-0.53l0.002,-0.535l0.003,-0.54l0.005,-0.545l0.011,-1.102l0.012,-1.119l0.011,-1.136l0.005,-0.572l0.004,-0.576l0.002,-0.579l0.001,-0.585l3,0.004l-0.001,0.589l-0.002,0.586l-0.004,0.582l-0.005,0.578l-0.011,1.14l-0.012,1.119l-0.011,1.098l-0.005,0.539l-0.003,0.534l-0.002,0.527l0,0.52l0.001,0.513l0.004,0.507l0.005,0.499l0.009,0.493l0.005,0.242l0.006,0.241l0.007,0.239l0.007,0.237l0.009,0.235l0.009,0.233l0.01,0.23l0.011,0.229l0.012,0.227l0.013,0.224l0.014,0.222l0.015,0.22l0.016,0.217l0.017,0.215l0.018,0.213l0.019,0.21l0.021,0.208l0.021,0.206l0.023,0.203l0.024,0.2l0.025,0.198l0.026,0.196l0.028,0.192l0.029,0.19l0.03,0.188l0.032,0.184l0.033,0.182l0.034,0.179l0.036,0.176l0.037,0.174l0.039,0.17l0.039,0.168l0.042,0.164l0.042,0.162l0.044,0.158l0.046,0.155l0.046,0.153l0.049,0.149l0.049,0.146l0.051,0.143l0.053,0.139l0.054,0.137l0.056,0.136l0.027,0.063l0.028,0.064l0.029,0.064l0.029,0.063l0.03,0.062l0.03,0.062l0.03,0.06l0.03,0.06l0.031,0.059l0.031,0.058l0.032,0.058l0.031,0.056l0.032,0.056l0.033,0.055l0.033,0.054l0.033,0.053l0.033,0.053l0.034,0.052l0.034,0.051l0.035,0.05l0.034,0.05l0.035,0.048l0.035,0.048l0.036,0.047l0.037,0.047l0.036,0.046l0.037,0.045l0.037,0.044l0.037,0.044l0.038,0.043l0.038,0.042l0.039,0.042l0.039,0.041l0.039,0.04l0.04,0.039l0.04,0.039l0.041,0.039l0.04,0.037l0.042,0.037l0.042,0.037l0.042,0.035l0.042,0.035l0.043,0.034l0.044,0.035l0.045,0.033l0.044,0.033l0.046,0.032l0.045,0.032l0.047,0.031l0.047,0.031l0.047,0.03l0.048,0.029l0.048,0.029l0.05,0.028l0.05,0.028l0.051,0.027l0.051,0.027l0.052,0.027l0.053,0.025l0.053,0.026l0.054,0.024l0.055,0.024l0.057,0.024l0.056,0.023l0.057,0.022l0.059,0.022l0.059,0.022l0.06,0.02l0.061,0.021l0.062,0.02l0.062,0.018l0.063,0.019l0.064,0.018l0.066,0.017l0.067,0.017l0.067,0.016l0.068,0.016l0.069,0.014l0.071,0.015l0.071,0.013l0.072,0.013l0.074,0.012l0.074,0.012l0.075,0.011l0.077,0.01l0.078,0.01l0.078,0.008l0.079,0.008l0.081,0.008l0.083,0.006l0.082,0.006l0.084,0.005l0.086,0.005l0.085,0.003l0.088,0.003l0.089,0.002l0.089,0.001l0.09,0.001l0.091,-0.001l0.089,-0.001l0.089,-0.002l0.088,-0.003l0.085,-0.003l0.086,-0.005l0.084,-0.005l0.083,-0.006l0.082,-0.006l0.081,-0.008l0.079,-0.008l0.078,-0.008l0.078,-0.01l0.077,-0.01l0.075,-0.011l0.074,-0.012l0.074,-0.012l0.072,-0.013l0.071,-0.013l0.071,-0.015l0.069,-0.014l0.068,-0.016l0.068,-0.016l0.066,-0.017l0.066,-0.017l0.064,-0.018l0.063,-0.019l0.062,-0.018l0.062,-0.02l0.062,-0.021l0.059,-0.02l0.059,-0.022l0.059,-0.022l0.057,-0.022l0.056,-0.023l0.057,-0.024l0.055,-0.024l0.054,-0.024l0.053,-0.026l0.053,-0.025l0.052,-0.026l0.052,-0.028l0.05,-0.027l0.05,-0.028l0.05,-0.028l0.048,-0.029l0.048,-0.029l0.047,-0.03l0.047,-0.031l0.047,-0.031l0.045,-0.032l0.046,-0.032l0.044,-0.033l0.044,-0.033l0.045,-0.035l0.043,-0.034l0.042,-0.035l0.042,-0.035l0.042,-0.037l0.042,-0.037l0.041,-0.038l0.04,-0.038l0.04,-0.039l0.04,-0.039l0.039,-0.04l0.039,-0.041l0.039,-0.042l0.038,-0.042l0.038,-0.043l0.037,-0.044l0.037,-0.044l0.037,-0.045l0.037,-0.046l0.036,-0.047l0.035,-0.047l0.036,-0.048l0.035,-0.048l0.034,-0.05l0.035,-0.05l0.034,-0.051l0.034,-0.052l0.033,-0.053l0.033,-0.053l0.033,-0.054l0.032,-0.055l0.033,-0.056l0.032,-0.057l0.031,-0.057l0.031,-0.058l0.031,-0.059l0.03,-0.06l0.03,-0.06l0.03,-0.062l0.03,-0.062l0.029,-0.063l0.029,-0.064l0.028,-0.064l0.027,-0.063l0.056,-0.136l0.054,-0.137l0.053,-0.139l0.051,-0.143l0.049,-0.146l0.049,-0.149l0.046,-0.153l0.046,-0.155l0.044,-0.158l0.042,-0.162l0.042,-0.164l0.039,-0.168l0.039,-0.17l0.037,-0.174l0.036,-0.176l0.034,-0.179l0.033,-0.181l0.032,-0.185l0.03,-0.188l0.029,-0.19l0.028,-0.192l0.026,-0.196l0.025,-0.197l0.024,-0.201l0.023,-0.203l0.021,-0.205l0.021,-0.209l0.019,-0.21l0.018,-0.213l0.017,-0.215l0.016,-0.217l0.015,-0.22l0.014,-0.222l0.013,-0.224l0.012,-0.227l0.011,-0.228l0.01,-0.231l0.009,-0.233l0.009,-0.235l0.007,-0.237l0.007,-0.239l0.006,-0.241l0.005,-0.242l0.009,-0.493l0.005,-0.499l0.004,-0.507l0.001,-0.513l0,-0.52l-0.002,-0.527l-0.003,-0.534l-0.005,-0.539l-0.011,-1.098l-0.012,-1.119l-0.011,-1.14l-0.005,-0.578l-0.004,-0.582l-0.002,-0.586l-0.001,-0.589l3,-0.004l0.001,0.585Z" style="fill:#5e5e5e;"/></g></svg>