<?xml version="1.0" encoding="UTF-8" standalone="no"?><!DOCTYPE svg PUBLIC "-//W3C//DTD SVG 1.1//EN" "http://www.w3.org/Graphics/SVG/1.1/DTD/svg11.dtd"><svg width="100%" height="100%" viewBox="0 0 900 392" version="1.1" xmlns="http://www.w3.org/2000/svg" xmlns:xlink="http://www.w3.org/1999/xlink" xml:space="preserve" xmlns:serif="http://www.serif.com/" style="fill-rule:evenodd;clip-rule:evenodd;stroke-linejoin:round;stroke-miterlimit:1.5;"><g id="kieg"><g id="zuhany"><path d="M324.702,342.783l-0.189,0.001l-0.184,0.002l-0.184,0.002l-0.183,0.005l-0.183,0.005l-0.183,0.006l-0.183,0.008l-0.182,0.008l-0.182,0.01l-0.182,0.011l-0.181,0.012l-0.181,0.013l-0.181,0.015l-0.18,0.015l-0.18,0.017l-0.18,0.017l-0.179,0.019l-0.179,0.02l-0.179,0.021l-0.178,0.022l-0.178,0.024l-0.178,0.024l-0.177,0.025l-0.177,0.027l-0.176,0.027l-0.177,0.029l-0.175,0.03l-0.176,0.031l-0.175,0.031l-0.175,0.033l-0.174,0.034l-0.174,0.036l-0.174,0.036l-0.173,0.037l-0.173,0.038l-0.172,0.039l-0.172,0.041l-0.172,0.041l-0.171,0.042l-0.17,0.044l-0.171,0.044l-0.17,0.046l-0.169,0.046l-0.169,0.048l-0.169,0.048l-0.168,0.05l-0.168,0.05l-0.168,0.052l-0.167,0.052l-0.166,0.054l-0.166,0.054l-0.166,0.056l-0.165,0.057l-0.165,0.057l-0.164,0.058l-0.164,0.06l-0.163,0.06l-0.163,0.062l-0.162,0.062l-0.162,0.063l-0.162,0.065l-0.16,0.065l-0.161,0.066l-0.16,0.067l-0.159,0.068l-0.159,0.069l-0.159,0.07l-0.158,0.071l-0.157,0.072l-0.157,0.073l-0.157,0.073l-0.156,0.075l-0.155,0.075l-0.155,0.077l-0.154,0.077l-0.154,0.078l-0.153,0.08l-0.153,0.08l-0.152,0.081l-0.152,0.081l-0.151,0.083l-0.151,0.084l-0.15,0.084l-0.149,0.086l-0.149,0.086l-0.148,0.087l-0.148,0.088l-0.147,0.089l-0.147,0.09l-0.146,0.09l-0.145,0.092l-0.145,0.092l-0.144,0.093l-0.144,0.094l-0.143,0.095l-0.142,0.095l-0.142,0.097l-0.141,0.097l-0.141,0.098l-0.14,0.099l-0.139,0.1l-0.139,0.101l-0.138,0.101l-0.138,0.102l-0.137,0.103l-0.136,0.104l-0.135,0.105l-0.135,0.105l-0.135,0.106l-0.133,0.107l-0.133,0.108l-0.133,0.109l-0.131,0.109l-0.131,0.11l-0.131,0.111l-0.129,0.112l-0.129,0.112l-0.129,0.113l-0.127,0.114l-0.127,0.115l-0.126,0.115l-0.126,0.116l-0.125,0.117l-0.124,0.118l-0.123,0.118l-0.123,0.12l-0.122,0.119l-0.121,0.121l-0.121,0.121l-0.12,0.122l-0.119,0.123l-0.118,0.123l-0.118,0.124l-0.117,0.125l-0.116,0.126l-0.115,0.126l-0.115,0.127l-0.114,0.128l-0.113,0.128l-0.113,0.129l-0.111,0.129l-0.111,0.131l-0.11,0.131l-0.109,0.131l-0.109,0.133l-0.108,0.133l-0.107,0.133l-0.106,0.135l-0.105,0.135l-0.105,0.135l-0.104,0.137l-0.103,0.136l-0.102,0.138l-0.102,0.138l-0.1,0.139l-0.1,0.139l-0.099,0.14l-0.098,0.141l-0.097,0.141l-0.097,0.142l-0.095,0.142l-0.095,0.143l-0.094,0.144l-0.093,0.144l-0.093,0.145l-0.091,0.146l-0.091,0.146l-0.089,0.146l-0.089,0.147l-0.088,0.148l-0.087,0.148l-0.087,0.149l-0.085,0.15l-0.084,0.15l-0.084,0.15l-0.083,0.151l-0.082,0.152l-0.08,0.152l-0.081,0.153l-0.079,0.153l-0.078,0.154l-0.077,0.154l-0.077,0.155l-0.075,0.156l-0.075,0.155l-0.073,0.157l-0.073,0.157l-0.072,0.157l-0.071,0.158l-0.07,0.159l-0.069,0.159l-0.068,0.159l-0.067,0.16l-0.066,0.161l-0.066,0.161l-0.064,0.161l-0.063,0.162l-0.062,0.162l-0.062,0.163l-0.06,0.164l-0.06,0.163l-0.058,0.164l-0.058,0.165l-0.056,0.165l-0.056,0.166l-0.054,0.166l-0.054,0.167l-0.052,0.167l-0.052,0.167l-0.05,0.168l-0.05,0.168l-0.048,0.169l-0.048,0.169l-0.046,0.169l-0.046,0.17l-0.044,0.171l-0.044,0.171l-0.042,0.171l-0.042,0.171l-0.04,0.172l-0.039,0.173l-0.038,0.172l-0.038,0.174l-0.036,0.173l-0.035,0.174l-0.034,0.174l-0.033,0.175l-0.032,0.175l-0.03,0.176l-0.03,0.176l-0.029,0.176l-0.027,0.176l-0.027,0.177l-0.025,0.178l-0.025,0.177l-0.023,0.178l-0.022,0.179l-0.021,0.178l-0.02,0.179l-0.019,0.18l-0.017,0.179l-0.017,0.18l-0.015,0.181l-0.015,0.18l-0.013,0.181l-0.012,0.182l-0.011,0.181l-0.01,0.182l-0.008,0.182l-0.008,0.183l-0.006,0.183l-0.006,0.183l-0.004,0.184l-0.003,0.183l-0.001,0.184l-0.001,0.19l-3,-0.01l0.001,-0.199l0.002,-0.203l0.003,-0.203l0.004,-0.202l0.006,-0.202l0.007,-0.202l0.008,-0.202l0.01,-0.201l0.011,-0.201l0.012,-0.2l0.013,-0.201l0.015,-0.2l0.016,-0.199l0.017,-0.199l0.018,-0.199l0.02,-0.199l0.021,-0.198l0.022,-0.198l0.023,-0.197l0.024,-0.198l0.026,-0.196l0.027,-0.197l0.028,-0.196l0.029,-0.195l0.031,-0.196l0.031,-0.194l0.033,-0.195l0.034,-0.194l0.036,-0.193l0.036,-0.194l0.038,-0.192l0.038,-0.193l0.04,-0.192l0.041,-0.191l0.043,-0.192l0.043,-0.19l0.045,-0.19l0.045,-0.19l0.047,-0.19l0.048,-0.189l0.05,-0.188l0.05,-0.188l0.051,-0.188l0.053,-0.187l0.054,-0.186l0.054,-0.186l0.056,-0.186l0.057,-0.185l0.058,-0.185l0.06,-0.184l0.06,-0.184l0.061,-0.183l0.063,-0.183l0.063,-0.182l0.065,-0.182l0.066,-0.181l0.067,-0.18l0.068,-0.181l0.069,-0.179l0.07,-0.179l0.071,-0.179l0.072,-0.178l0.073,-0.177l0.074,-0.177l0.076,-0.177l0.076,-0.175l0.077,-0.176l0.079,-0.174l0.079,-0.174l0.081,-0.174l0.081,-0.173l0.082,-0.172l0.084,-0.172l0.084,-0.171l0.086,-0.171l0.087,-0.17l0.087,-0.17l0.088,-0.168l0.09,-0.169l0.09,-0.167l0.092,-0.167l0.092,-0.167l0.094,-0.166l0.094,-0.165l0.095,-0.164l0.097,-0.164l0.097,-0.164l0.098,-0.162l0.099,-0.162l0.1,-0.162l0.101,-0.16l0.102,-0.16l0.103,-0.16l0.104,-0.158l0.105,-0.159l0.106,-0.157l0.106,-0.157l0.108,-0.156l0.108,-0.155l0.109,-0.155l0.111,-0.154l0.111,-0.153l0.112,-0.153l0.113,-0.152l0.114,-0.151l0.114,-0.15l0.116,-0.15l0.116,-0.149l0.118,-0.149l0.118,-0.147l0.119,-0.147l0.12,-0.146l0.121,-0.146l0.121,-0.144l0.123,-0.144l0.123,-0.144l0.124,-0.142l0.125,-0.142l0.126,-0.141l0.127,-0.14l0.127,-0.139l0.128,-0.139l0.13,-0.138l0.13,-0.137l0.13,-0.136l0.132,-0.136l0.132,-0.134l0.133,-0.134l0.134,-0.134l0.135,-0.132l0.136,-0.131l0.136,-0.131l0.137,-0.13l0.138,-0.129l0.139,-0.129l0.139,-0.127l0.14,-0.127l0.141,-0.126l0.142,-0.125l0.142,-0.124l0.144,-0.123l0.144,-0.123l0.144,-0.121l0.146,-0.121l0.146,-0.12l0.147,-0.119l0.147,-0.118l0.149,-0.117l0.149,-0.117l0.15,-0.116l0.15,-0.114l0.151,-0.114l0.152,-0.113l0.153,-0.112l0.153,-0.111l0.154,-0.11l0.155,-0.11l0.155,-0.108l0.156,-0.108l0.157,-0.106l0.157,-0.106l0.158,-0.105l0.159,-0.104l0.159,-0.102l0.16,-0.102l0.161,-0.101l0.162,-0.101l0.162,-0.099l0.162,-0.098l0.164,-0.097l0.163,-0.096l0.165,-0.096l0.165,-0.094l0.166,-0.094l0.166,-0.092l0.167,-0.091l0.168,-0.091l0.168,-0.089l0.169,-0.089l0.17,-0.087l0.17,-0.087l0.17,-0.085l0.172,-0.085l0.172,-0.083l0.172,-0.083l0.173,-0.081l0.173,-0.081l0.175,-0.079l0.174,-0.079l0.176,-0.077l0.175,-0.076l0.177,-0.076l0.177,-0.074l0.177,-0.073l0.178,-0.072l0.179,-0.071l0.179,-0.07l0.179,-0.069l0.18,-0.068l0.181,-0.067l0.181,-0.066l0.182,-0.064l0.182,-0.064l0.183,-0.062l0.183,-0.062l0.184,-0.06l0.184,-0.059l0.185,-0.059l0.185,-0.057l0.185,-0.056l0.187,-0.054l0.186,-0.054l0.187,-0.053l0.188,-0.051l0.188,-0.05l0.188,-0.049l0.189,-0.048l0.19,-0.047l0.189,-0.046l0.191,-0.045l0.19,-0.043l0.191,-0.042l0.192,-0.042l0.192,-0.039l0.192,-0.039l0.193,-0.038l0.193,-0.036l0.194,-0.036l0.194,-0.034l0.194,-0.032l0.195,-0.032l0.195,-0.031l0.196,-0.029l0.196,-0.028l0.196,-0.027l0.197,-0.026l0.197,-0.024l0.198,-0.023l0.198,-0.022l0.198,-0.021l0.198,-0.02l0.199,-0.018l0.2,-0.017l0.199,-0.016l0.2,-0.015l0.201,-0.013l0.2,-0.012l0.201,-0.011l0.201,-0.009l0.202,-0.009l0.202,-0.007l0.202,-0.005l0.202,-0.005l0.203,-0.003l0.203,-0.002l0.199,-0.001l0.009,3Z" style="fill:#5e5e5e;"/><circle cx="320.722" cy="367.407" r="1.505" style="fill:#5e5e5e;"/></g><g id="wc"><rect x="274.458" y="255.468" width="3" height="19.077" style="fill:#5e5e5e;"/><path d="M283.461,274.551l-4.891,-0.004l-3.546,-0.002l-4.168,-0.001l-0.146,-0.001l-0.149,-0.002l-0.149,-0.004l-0.148,-0.005l-0.148,-0.006l-0.147,-0.008l-0.147,-0.01l-0.146,-0.01l-0.146,-0.012l-0.145,-0.014l-0.145,-0.015l-0.145,-0.016l-0.143,-0.018l-0.144,-0.019l-0.142,-0.02l-0.143,-0.022l-0.142,-0.023l-0.14,-0.024l-0.141,-0.026l-0.14,-0.027l-0.139,-0.028l-0.138,-0.03l-0.138,-0.031l-0.138,-0.032l-0.136,-0.034l-0.136,-0.034l-0.136,-0.036l-0.134,-0.038l-0.135,-0.038l-0.133,-0.04l-0.132,-0.041l-0.132,-0.042l-0.131,-0.044l-0.13,-0.044l-0.129,-0.046l-0.129,-0.047l-0.128,-0.048l-0.127,-0.05l-0.127,-0.05l-0.126,-0.052l-0.124,-0.053l-0.124,-0.054l-0.123,-0.055l-0.123,-0.057l-0.121,-0.058l-0.12,-0.058l-0.12,-0.06l-0.119,-0.061l-0.117,-0.062l-0.117,-0.063l-0.116,-0.065l-0.115,-0.065l-0.114,-0.067l-0.113,-0.067l-0.112,-0.069l-0.111,-0.07l-0.111,-0.071l-0.109,-0.071l-0.108,-0.073l-0.107,-0.075l-0.105,-0.074l-0.106,-0.077l-0.104,-0.077l-0.103,-0.078l-0.101,-0.08l-0.101,-0.08l-0.099,-0.081l-0.098,-0.082l-0.098,-0.084l-0.096,-0.084l-0.095,-0.085l-0.093,-0.086l-0.093,-0.088l-0.091,-0.088l-0.09,-0.09l-0.089,-0.09l-0.088,-0.091l-0.086,-0.093l-0.085,-0.093l-0.084,-0.094l-0.082,-0.095l-0.081,-0.096l-0.08,-0.097l-0.078,-0.098l-0.077,-0.099l-0.076,-0.1l-0.074,-0.1l-0.073,-0.102l-0.071,-0.103l-0.07,-0.103l-0.069,-0.104l-0.066,-0.105l-0.066,-0.107l-0.064,-0.107l-0.062,-0.107l-0.061,-0.109l-0.059,-0.11l-0.057,-0.11l-0.056,-0.111l-0.055,-0.112l-0.052,-0.113l-0.051,-0.113l-0.05,-0.115l-0.047,-0.115l-0.046,-0.115l-0.044,-0.117l-0.042,-0.118l-0.041,-0.117l-0.038,-0.119l-0.037,-0.12l-0.035,-0.12l-0.033,-0.121l-0.032,-0.121l-0.029,-0.122l-0.027,-0.122l-0.026,-0.123l-0.023,-0.124l-0.022,-0.124l-0.02,-0.125l-0.017,-0.126l-0.016,-0.125l-0.013,-0.126l-0.012,-0.127l-0.009,-0.127l-0.008,-0.128l-0.005,-0.127l-0.003,-0.128l-0.001,-0.129l0.001,-0.129l0.003,-0.128l0.005,-0.128l0.008,-0.127l0.009,-0.127l0.012,-0.127l0.013,-0.126l0.016,-0.126l0.017,-0.125l0.02,-0.125l0.022,-0.124l0.023,-0.124l0.026,-0.123l0.027,-0.122l0.029,-0.122l0.032,-0.122l0.033,-0.12l0.035,-0.121l0.037,-0.119l0.038,-0.119l0.041,-0.118l0.042,-0.117l0.044,-0.117l0.046,-0.115l0.047,-0.116l0.05,-0.114l0.051,-0.113l0.052,-0.113l0.055,-0.112l0.056,-0.111l0.057,-0.111l0.059,-0.109l0.061,-0.109l0.062,-0.107l0.064,-0.108l0.066,-0.106l0.066,-0.105l0.069,-0.104l0.07,-0.104l0.071,-0.102l0.073,-0.102l0.074,-0.101l0.076,-0.099l0.077,-0.099l0.078,-0.098l0.08,-0.097l0.081,-0.096l0.082,-0.095l0.084,-0.094l0.085,-0.094l0.086,-0.092l0.088,-0.091l0.089,-0.091l0.09,-0.089l0.091,-0.088l0.093,-0.087l0.093,-0.087l0.095,-0.085l0.096,-0.085l0.098,-0.083l0.098,-0.082l0.099,-0.082l0.101,-0.08l0.102,-0.079l0.102,-0.078l0.104,-0.077l0.105,-0.077l0.106,-0.075l0.107,-0.074l0.108,-0.073l0.11,-0.072l0.11,-0.07l0.111,-0.07l0.112,-0.069l0.113,-0.068l0.114,-0.066l0.115,-0.065l0.116,-0.065l0.117,-0.063l0.117,-0.062l0.119,-0.061l0.12,-0.06l0.12,-0.059l0.122,-0.057l0.122,-0.057l0.123,-0.055l0.124,-0.054l0.125,-0.053l0.125,-0.052l0.127,-0.05l0.127,-0.05l0.127,-0.048l0.129,-0.047l0.13,-0.046l0.13,-0.045l0.131,-0.043l0.132,-0.042l0.133,-0.041l0.133,-0.04l0.133,-0.038l0.135,-0.038l0.136,-0.036l0.135,-0.034l0.137,-0.034l0.138,-0.032l0.138,-0.031l0.138,-0.03l0.14,-0.028l0.139,-0.027l0.14,-0.026l0.142,-0.024l0.141,-0.023l0.143,-0.022l0.142,-0.02l0.143,-0.019l0.144,-0.018l0.145,-0.016l0.144,-0.015l0.146,-0.014l0.146,-0.012l0.146,-0.011l0.147,-0.009l0.147,-0.008l0.148,-0.006l0.148,-0.005l0.149,-0.004l0.149,-0.002l0.146,-0.001l12.605,0l0,19.083Zm-12.598,-16.083l-0.124,0.001l-0.119,0.001l-0.12,0.003l-0.119,0.004l-0.118,0.006l-0.118,0.006l-0.118,0.007l-0.117,0.009l-0.117,0.01l-0.116,0.01l-0.116,0.012l-0.115,0.013l-0.114,0.015l-0.115,0.015l-0.113,0.016l-0.113,0.017l-0.113,0.018l-0.112,0.02l-0.111,0.02l-0.111,0.022l-0.11,0.022l-0.11,0.024l-0.109,0.024l-0.108,0.025l-0.108,0.027l-0.108,0.027l-0.106,0.028l-0.105,0.03l-0.106,0.03l-0.105,0.031l-0.103,0.032l-0.103,0.033l-0.103,0.034l-0.101,0.035l-0.101,0.036l-0.1,0.036l-0.1,0.038l-0.098,0.038l-0.098,0.04l-0.097,0.04l-0.097,0.04l-0.095,0.042l-0.095,0.043l-0.094,0.043l-0.093,0.044l-0.092,0.045l-0.091,0.046l-0.091,0.046l-0.089,0.047l-0.089,0.048l-0.088,0.049l-0.087,0.05l-0.086,0.05l-0.085,0.051l-0.084,0.051l-0.083,0.052l-0.082,0.053l-0.082,0.054l-0.08,0.054l-0.079,0.055l-0.079,0.056l-0.077,0.056l-0.077,0.057l-0.075,0.057l-0.074,0.058l-0.074,0.058l-0.072,0.059l-0.071,0.06l-0.071,0.06l-0.069,0.061l-0.068,0.061l-0.067,0.062l-0.066,0.062l-0.065,0.063l-0.064,0.064l-0.062,0.063l-0.062,0.064l-0.06,0.065l-0.06,0.065l-0.058,0.066l-0.057,0.065l-0.056,0.067l-0.055,0.067l-0.053,0.067l-0.053,0.067l-0.052,0.068l-0.05,0.068l-0.049,0.069l-0.048,0.069l-0.047,0.069l-0.045,0.07l-0.045,0.07l-0.043,0.07l-0.042,0.07l-0.041,0.071l-0.04,0.071l-0.038,0.072l-0.038,0.071l-0.036,0.072l-0.035,0.072l-0.033,0.072l-0.033,0.073l-0.031,0.073l-0.031,0.073l-0.029,0.073l-0.028,0.074l-0.026,0.074l-0.026,0.074l-0.024,0.074l-0.023,0.075l-0.022,0.074l-0.02,0.076l-0.019,0.075l-0.019,0.075l-0.017,0.076l-0.015,0.076l-0.015,0.076l-0.013,0.076l-0.012,0.077l-0.011,0.077l-0.009,0.077l-0.009,0.078l-0.007,0.077l-0.006,0.078l-0.004,0.078l-0.003,0.079l-0.002,0.079l-0.001,0.079l0.001,0.079l0.002,0.079l0.003,0.079l0.004,0.078l0.006,0.078l0.007,0.077l0.009,0.077l0.009,0.078l0.011,0.077l0.012,0.076l0.013,0.077l0.015,0.076l0.015,0.076l0.017,0.076l0.018,0.075l0.02,0.075l0.02,0.075l0.022,0.075l0.023,0.074l0.024,0.075l0.026,0.074l0.027,0.074l0.027,0.073l0.029,0.074l0.031,0.073l0.031,0.073l0.032,0.072l0.034,0.073l0.035,0.072l0.036,0.072l0.038,0.071l0.038,0.072l0.04,0.071l0.041,0.071l0.042,0.07l0.043,0.07l0.045,0.07l0.045,0.07l0.047,0.069l0.048,0.069l0.049,0.068l0.051,0.069l0.051,0.068l0.053,0.067l0.053,0.067l0.055,0.067l0.056,0.066l0.057,0.066l0.058,0.066l0.06,0.065l0.06,0.064l0.062,0.065l0.063,0.063l0.063,0.064l0.065,0.062l0.066,0.062l0.067,0.063l0.068,0.061l0.069,0.06l0.071,0.061l0.071,0.059l0.072,0.059l0.074,0.059l0.074,0.058l0.075,0.057l0.077,0.057l0.077,0.056l0.079,0.056l0.079,0.055l0.08,0.054l0.082,0.054l0.082,0.052l0.083,0.052l0.084,0.052l0.086,0.051l0.085,0.05l0.087,0.05l0.088,0.048l0.089,0.048l0.09,0.048l0.09,0.046l0.091,0.046l0.093,0.045l0.093,0.044l0.093,0.043l0.095,0.043l0.095,0.041l0.097,0.041l0.097,0.04l0.098,0.04l0.098,0.038l0.1,0.037l0.1,0.037l0.101,0.036l0.101,0.035l0.103,0.033l0.103,0.034l0.104,0.032l0.104,0.031l0.105,0.03l0.106,0.029l0.106,0.029l0.108,0.027l0.108,0.026l0.108,0.026l0.109,0.024l0.11,0.024l0.11,0.022l0.111,0.022l0.111,0.02l0.112,0.019l0.113,0.019l0.113,0.017l0.114,0.016l0.113,0.015l0.115,0.014l0.115,0.013l0.116,0.012l0.116,0.011l0.117,0.01l0.117,0.008l0.118,0.008l0.118,0.006l0.118,0.005l0.119,0.004l0.12,0.003l0.119,0.002l0.124,0.001l4.162,0.001l3.547,0.002l1.889,0.001l0,-13.08l-9.598,0Z" style="fill:#5e5e5e;"/></g><g id="wc1" serif:id="wc"><path d="M316.621,258.097l-19.077,0l0,-3l19.077,0l0,3Z" style="fill:#5e5e5e;"/><path d="M316.622,253.984l-0.002,3.546l-0.001,4.169l0,0.145l-0.003,0.149l-0.003,0.149l-0.005,0.148l-0.007,0.148l-0.008,0.147l-0.009,0.147l-0.011,0.146l-0.012,0.146l-0.014,0.146l-0.014,0.144l-0.017,0.145l-0.017,0.144l-0.019,0.143l-0.021,0.143l-0.021,0.142l-0.024,0.142l-0.024,0.141l-0.026,0.14l-0.027,0.14l-0.028,0.139l-0.03,0.139l-0.03,0.138l-0.033,0.137l-0.033,0.137l-0.035,0.136l-0.036,0.135l-0.037,0.135l-0.039,0.133l-0.039,0.134l-0.041,0.132l-0.043,0.132l-0.043,0.131l-0.045,0.13l-0.046,0.13l-0.047,0.129l-0.048,0.128l-0.049,0.127l-0.051,0.126l-0.052,0.126l-0.053,0.125l-0.054,0.123l-0.055,0.124l-0.057,0.122l-0.057,0.121l-0.059,0.12l-0.06,0.12l-0.061,0.119l-0.062,0.118l-0.063,0.116l-0.064,0.116l-0.066,0.115l-0.066,0.114l-0.068,0.113l-0.068,0.113l-0.07,0.111l-0.071,0.11l-0.072,0.109l-0.073,0.108l-0.074,0.107l-0.075,0.106l-0.076,0.105l-0.077,0.104l-0.079,0.103l-0.079,0.101l-0.08,0.101l-0.081,0.099l-0.083,0.099l-0.083,0.097l-0.084,0.096l-0.086,0.095l-0.086,0.094l-0.088,0.092l-0.088,0.091l-0.089,0.09l-0.09,0.089l-0.092,0.088l-0.092,0.086l-0.093,0.085l-0.094,0.084l-0.096,0.082l-0.096,0.081l-0.096,0.08l-0.098,0.078l-0.099,0.078l-0.1,0.075l-0.101,0.074l-0.102,0.073l-0.102,0.072l-0.104,0.069l-0.104,0.069l-0.105,0.067l-0.106,0.065l-0.107,0.064l-0.108,0.062l-0.109,0.061l-0.109,0.059l-0.11,0.057l-0.111,0.056l-0.113,0.055l-0.112,0.052l-0.114,0.051l-0.115,0.05l-0.114,0.047l-0.116,0.046l-0.117,0.044l-0.117,0.043l-0.118,0.04l-0.119,0.039l-0.119,0.036l-0.12,0.035l-0.121,0.034l-0.121,0.031l-0.122,0.029l-0.123,0.028l-0.123,0.025l-0.124,0.024l-0.124,0.021l-0.124,0.02l-0.126,0.017l-0.126,0.016l-0.126,0.014l-0.127,0.011l-0.127,0.009l-0.127,0.008l-0.128,0.005l-0.128,0.003l-0.129,0.001l-0.128,-0.001l-0.128,-0.003l-0.128,-0.005l-0.128,-0.008l-0.126,-0.009l-0.127,-0.011l-0.127,-0.014l-0.125,-0.016l-0.126,-0.017l-0.125,-0.02l-0.123,-0.021l-0.124,-0.024l-0.124,-0.025l-0.122,-0.028l-0.122,-0.029l-0.121,-0.031l-0.121,-0.034l-0.12,-0.035l-0.12,-0.036l-0.118,-0.039l-0.118,-0.041l-0.118,-0.042l-0.116,-0.044l-0.116,-0.046l-0.115,-0.047l-0.114,-0.05l-0.114,-0.051l-0.113,-0.052l-0.112,-0.055l-0.111,-0.056l-0.11,-0.057l-0.11,-0.059l-0.109,-0.061l-0.107,-0.062l-0.107,-0.064l-0.106,-0.065l-0.105,-0.067l-0.105,-0.069l-0.103,-0.07l-0.102,-0.071l-0.102,-0.073l-0.101,-0.074l-0.1,-0.075l-0.099,-0.078l-0.098,-0.078l-0.097,-0.08l-0.096,-0.081l-0.095,-0.082l-0.094,-0.084l-0.093,-0.085l-0.092,-0.086l-0.092,-0.088l-0.09,-0.089l-0.089,-0.09l-0.089,-0.091l-0.087,-0.092l-0.086,-0.094l-0.086,-0.095l-0.084,-0.096l-0.083,-0.097l-0.083,-0.099l-0.081,-0.099l-0.08,-0.101l-0.08,-0.101l-0.078,-0.103l-0.077,-0.104l-0.076,-0.105l-0.075,-0.106l-0.074,-0.107l-0.073,-0.108l-0.072,-0.109l-0.071,-0.11l-0.07,-0.111l-0.068,-0.113l-0.068,-0.113l-0.067,-0.114l-0.065,-0.115l-0.064,-0.116l-0.063,-0.116l-0.063,-0.118l-0.061,-0.119l-0.059,-0.119l-0.059,-0.121l-0.058,-0.121l-0.056,-0.123l-0.055,-0.123l-0.054,-0.123l-0.053,-0.125l-0.052,-0.126l-0.051,-0.126l-0.049,-0.127l-0.049,-0.128l-0.047,-0.129l-0.045,-0.13l-0.045,-0.13l-0.044,-0.131l-0.042,-0.132l-0.041,-0.132l-0.04,-0.133l-0.038,-0.134l-0.037,-0.135l-0.036,-0.135l-0.035,-0.136l-0.034,-0.137l-0.032,-0.137l-0.031,-0.138l-0.029,-0.139l-0.029,-0.139l-0.027,-0.14l-0.025,-0.14l-0.025,-0.141l-0.023,-0.142l-0.021,-0.142l-0.021,-0.143l-0.019,-0.143l-0.018,-0.144l-0.016,-0.144l-0.015,-0.145l-0.013,-0.146l-0.012,-0.146l-0.011,-0.146l-0.009,-0.147l-0.008,-0.147l-0.007,-0.148l-0.005,-0.148l-0.004,-0.149l-0.002,-0.149l0,-0.146l0,-12.605l19.082,0l-0.004,4.891Zm-16.078,-1.891l0,9.598l0,0.124l0.002,0.12l0.003,0.119l0.004,0.119l0.005,0.118l0.006,0.118l0.008,0.118l0.008,0.117l0.01,0.117l0.011,0.116l0.012,0.116l0.013,0.115l0.014,0.115l0.015,0.114l0.016,0.113l0.018,0.114l0.018,0.112l0.019,0.112l0.021,0.112l0.021,0.11l0.023,0.111l0.023,0.109l0.024,0.109l0.026,0.109l0.026,0.107l0.028,0.108l0.028,0.106l0.029,0.106l0.03,0.105l0.032,0.105l0.032,0.103l0.033,0.103l0.034,0.103l0.035,0.101l0.035,0.101l0.037,0.1l0.037,0.1l0.039,0.099l0.039,0.097l0.04,0.098l0.041,0.096l0.042,0.095l0.042,0.095l0.043,0.094l0.045,0.093l0.044,0.092l0.046,0.091l0.047,0.091l0.047,0.089l0.048,0.089l0.049,0.088l0.049,0.087l0.05,0.086l0.051,0.085l0.052,0.084l0.052,0.083l0.053,0.083l0.053,0.081l0.055,0.08l0.055,0.08l0.055,0.078l0.056,0.078l0.057,0.076l0.057,0.075l0.058,0.075l0.059,0.073l0.059,0.072l0.059,0.071l0.061,0.071l0.061,0.069l0.061,0.068l0.062,0.067l0.062,0.066l0.063,0.065l0.063,0.064l0.064,0.063l0.064,0.061l0.064,0.06l0.066,0.06l0.065,0.058l0.066,0.057l0.066,0.056l0.067,0.055l0.067,0.054l0.068,0.052l0.068,0.052l0.068,0.05l0.068,0.049l0.069,0.048l0.069,0.047l0.07,0.045l0.07,0.045l0.07,0.043l0.071,0.042l0.071,0.041l0.07,0.04l0.071,0.038l0.073,0.038l0.072,0.036l0.071,0.035l0.073,0.034l0.073,0.032l0.072,0.032l0.073,0.03l0.074,0.029l0.074,0.028l0.073,0.026l0.074,0.026l0.075,0.024l0.074,0.023l0.075,0.022l0.075,0.02l0.075,0.02l0.076,0.018l0.075,0.017l0.076,0.015l0.076,0.015l0.077,0.013l0.077,0.012l0.076,0.011l0.078,0.01l0.077,0.008l0.077,0.007l0.079,0.006l0.078,0.004l0.078,0.004l0.079,0.001l0.079,0.001l0.079,-0.001l0.079,-0.001l0.079,-0.004l0.078,-0.004l0.078,-0.006l0.078,-0.007l0.077,-0.008l0.078,-0.01l0.076,-0.011l0.077,-0.012l0.076,-0.013l0.077,-0.015l0.075,-0.015l0.076,-0.017l0.076,-0.018l0.075,-0.02l0.075,-0.02l0.075,-0.022l0.074,-0.023l0.074,-0.024l0.075,-0.026l0.073,-0.026l0.074,-0.028l0.073,-0.029l0.074,-0.03l0.072,-0.032l0.073,-0.032l0.072,-0.034l0.072,-0.035l0.072,-0.036l0.072,-0.038l0.071,-0.038l0.071,-0.04l0.071,-0.041l0.071,-0.042l0.07,-0.043l0.07,-0.045l0.069,-0.045l0.07,-0.047l0.068,-0.048l0.069,-0.049l0.068,-0.05l0.068,-0.052l0.067,-0.052l0.068,-0.054l0.066,-0.055l0.067,-0.056l0.066,-0.057l0.065,-0.058l0.065,-0.06l0.065,-0.06l0.064,-0.061l0.064,-0.063l0.063,-0.064l0.063,-0.065l0.062,-0.066l0.062,-0.067l0.061,-0.068l0.061,-0.069l0.06,-0.071l0.06,-0.071l0.059,-0.072l0.058,-0.073l0.058,-0.075l0.058,-0.075l0.056,-0.076l0.057,-0.078l0.055,-0.078l0.055,-0.08l0.054,-0.08l0.054,-0.081l0.053,-0.083l0.052,-0.083l0.052,-0.084l0.051,-0.085l0.05,-0.086l0.049,-0.087l0.049,-0.088l0.048,-0.089l0.047,-0.089l0.046,-0.091l0.046,-0.091l0.045,-0.092l0.044,-0.093l0.044,-0.094l0.042,-0.095l0.042,-0.095l0.041,-0.097l0.04,-0.096l0.039,-0.098l0.038,-0.099l0.038,-0.1l0.036,-0.1l0.036,-0.101l0.035,-0.101l0.034,-0.103l0.033,-0.103l0.032,-0.103l0.031,-0.105l0.031,-0.105l0.029,-0.106l0.028,-0.106l0.028,-0.108l0.026,-0.107l0.025,-0.109l0.025,-0.109l0.023,-0.109l0.023,-0.111l0.021,-0.111l0.02,-0.111l0.02,-0.112l0.018,-0.112l0.017,-0.114l0.017,-0.113l0.015,-0.114l0.014,-0.115l0.013,-0.115l0.012,-0.116l0.011,-0.116l0.009,-0.117l0.009,-0.117l0.007,-0.118l0.007,-0.118l0.005,-0.118l0.004,-0.119l0.003,-0.119l0.002,-0.12l0,-0.124l0.001,-4.162l0.002,-3.547l0.002,-1.889l-13.08,0Z" style="fill:#5e5e5e;"/></g><g id="wc2" serif:id="wc"><rect x="426.103" y="344.127" width="3" height="19.077" style="fill:#5e5e5e;"/><path d="M424.991,344.126l3.545,0.002l4.169,0.001l0.145,0l0.149,0.002l0.149,0.004l0.148,0.005l0.148,0.007l0.147,0.008l0.147,0.009l0.147,0.011l0.145,0.012l0.146,0.013l0.145,0.015l0.144,0.016l0.144,0.018l0.143,0.019l0.143,0.02l0.142,0.022l0.142,0.023l0.141,0.025l0.14,0.025l0.14,0.027l0.139,0.029l0.139,0.029l0.138,0.031l0.137,0.032l0.137,0.034l0.136,0.035l0.135,0.036l0.135,0.037l0.134,0.038l0.133,0.04l0.133,0.041l0.131,0.042l0.131,0.044l0.13,0.044l0.13,0.046l0.129,0.048l0.128,0.048l0.127,0.049l0.126,0.051l0.126,0.051l0.125,0.053l0.124,0.055l0.123,0.055l0.122,0.056l0.121,0.058l0.121,0.059l0.119,0.059l0.119,0.061l0.118,0.063l0.117,0.063l0.116,0.064l0.114,0.065l0.114,0.067l0.113,0.067l0.113,0.069l0.111,0.07l0.11,0.071l0.109,0.072l0.108,0.073l0.107,0.074l0.106,0.075l0.105,0.076l0.104,0.077l0.103,0.078l0.101,0.08l0.101,0.08l0.1,0.081l0.098,0.083l0.097,0.083l0.096,0.084l0.095,0.086l0.094,0.086l0.092,0.087l0.091,0.089l0.09,0.089l0.089,0.09l0.088,0.092l0.086,0.092l0.085,0.093l0.084,0.094l0.083,0.095l0.081,0.096l0.079,0.097l0.079,0.098l0.077,0.099l0.075,0.1l0.075,0.101l0.072,0.102l0.072,0.102l0.07,0.103l0.068,0.105l0.067,0.105l0.065,0.106l0.064,0.107l0.062,0.108l0.061,0.108l0.059,0.11l0.058,0.11l0.056,0.111l0.054,0.112l0.053,0.113l0.051,0.114l0.049,0.114l0.047,0.115l0.046,0.116l0.044,0.117l0.043,0.117l0.04,0.118l0.039,0.118l0.037,0.12l0.035,0.12l0.033,0.121l0.031,0.121l0.029,0.122l0.028,0.123l0.025,0.123l0.024,0.123l0.021,0.124l0.02,0.125l0.018,0.126l0.015,0.125l0.014,0.127l0.011,0.126l0.01,0.127l0.007,0.128l0.005,0.128l0.003,0.128l0.001,0.128l-0.001,0.129l-0.003,0.128l-0.005,0.128l-0.007,0.127l-0.01,0.127l-0.011,0.127l-0.014,0.127l-0.015,0.125l-0.018,0.125l-0.02,0.125l-0.021,0.124l-0.024,0.124l-0.025,0.123l-0.028,0.123l-0.029,0.122l-0.031,0.121l-0.033,0.121l-0.035,0.12l-0.037,0.119l-0.039,0.119l-0.04,0.118l-0.043,0.117l-0.044,0.117l-0.046,0.116l-0.047,0.115l-0.049,0.114l-0.051,0.114l-0.053,0.112l-0.054,0.112l-0.056,0.112l-0.058,0.11l-0.059,0.109l-0.061,0.109l-0.062,0.108l-0.064,0.107l-0.065,0.106l-0.067,0.105l-0.069,0.105l-0.069,0.103l-0.072,0.102l-0.073,0.102l-0.074,0.101l-0.075,0.1l-0.077,0.098l-0.079,0.098l-0.08,0.098l-0.081,0.096l-0.082,0.094l-0.084,0.095l-0.085,0.093l-0.086,0.092l-0.088,0.092l-0.089,0.09l-0.09,0.089l-0.091,0.088l-0.092,0.088l-0.094,0.086l-0.095,0.086l-0.096,0.084l-0.097,0.083l-0.099,0.083l-0.099,0.081l-0.1,0.08l-0.102,0.079l-0.103,0.079l-0.104,0.077l-0.105,0.076l-0.106,0.075l-0.107,0.074l-0.108,0.073l-0.109,0.072l-0.11,0.071l-0.111,0.07l-0.113,0.068l-0.112,0.068l-0.114,0.066l-0.115,0.066l-0.116,0.064l-0.117,0.063l-0.118,0.062l-0.119,0.061l-0.12,0.06l-0.12,0.059l-0.121,0.057l-0.123,0.057l-0.123,0.055l-0.123,0.054l-0.125,0.053l-0.126,0.052l-0.126,0.051l-0.127,0.049l-0.128,0.048l-0.129,0.047l-0.129,0.046l-0.131,0.045l-0.131,0.043l-0.131,0.043l-0.133,0.041l-0.133,0.039l-0.134,0.039l-0.135,0.037l-0.135,0.036l-0.136,0.035l-0.137,0.033l-0.137,0.033l-0.138,0.03l-0.139,0.03l-0.139,0.028l-0.14,0.027l-0.14,0.026l-0.141,0.024l-0.142,0.024l-0.142,0.021l-0.143,0.021l-0.143,0.019l-0.144,0.017l-0.145,0.017l-0.144,0.014l-0.146,0.014l-0.145,0.012l-0.147,0.011l-0.147,0.009l-0.147,0.008l-0.148,0.007l-0.148,0.005l-0.149,0.003l-0.149,0.003l-0.146,0l-12.605,0l0,-19.083l4.892,0.005Zm-1.892,16.078l9.599,0l0.123,0l0.12,-0.002l0.119,-0.003l0.119,-0.004l0.119,-0.005l0.118,-0.007l0.117,-0.007l0.117,-0.009l0.117,-0.009l0.116,-0.011l0.116,-0.012l0.115,-0.013l0.115,-0.014l0.114,-0.015l0.114,-0.017l0.113,-0.017l0.112,-0.018l0.112,-0.02l0.112,-0.02l0.11,-0.021l0.111,-0.023l0.109,-0.023l0.109,-0.025l0.109,-0.025l0.108,-0.027l0.107,-0.027l0.106,-0.028l0.106,-0.029l0.105,-0.031l0.105,-0.031l0.103,-0.032l0.104,-0.033l0.102,-0.034l0.101,-0.035l0.102,-0.036l0.1,-0.036l0.099,-0.038l0.099,-0.038l0.097,-0.039l0.097,-0.04l0.097,-0.041l0.096,-0.042l0.094,-0.042l0.094,-0.044l0.093,-0.044l0.092,-0.045l0.092,-0.045l0.09,-0.047l0.089,-0.047l0.089,-0.048l0.088,-0.049l0.087,-0.049l0.086,-0.05l0.085,-0.051l0.084,-0.052l0.083,-0.052l0.083,-0.053l0.081,-0.054l0.081,-0.054l0.079,-0.055l0.078,-0.055l0.078,-0.057l0.076,-0.056l0.075,-0.057l0.075,-0.058l0.073,-0.059l0.073,-0.059l0.071,-0.06l0.07,-0.06l0.069,-0.061l0.068,-0.061l0.067,-0.062l0.066,-0.062l0.065,-0.063l0.064,-0.063l0.063,-0.064l0.061,-0.064l0.061,-0.065l0.059,-0.065l0.058,-0.065l0.057,-0.066l0.056,-0.067l0.055,-0.066l0.054,-0.067l0.053,-0.068l0.051,-0.068l0.05,-0.068l0.049,-0.068l0.048,-0.069l0.047,-0.07l0.046,-0.069l0.044,-0.07l0.043,-0.07l0.042,-0.071l0.041,-0.071l0.04,-0.071l0.038,-0.071l0.038,-0.072l0.036,-0.072l0.035,-0.072l0.034,-0.072l0.032,-0.073l0.032,-0.072l0.03,-0.074l0.029,-0.073l0.028,-0.074l0.026,-0.073l0.026,-0.075l0.024,-0.074l0.023,-0.074l0.022,-0.075l0.02,-0.075l0.02,-0.076l0.018,-0.075l0.017,-0.075l0.016,-0.076l0.014,-0.077l0.014,-0.076l0.012,-0.077l0.01,-0.077l0.01,-0.077l0.008,-0.077l0.007,-0.078l0.006,-0.078l0.004,-0.078l0.004,-0.079l0.002,-0.079l0,-0.079l0,-0.079l-0.002,-0.079l-0.004,-0.078l-0.004,-0.078l-0.006,-0.078l-0.007,-0.078l-0.008,-0.077l-0.01,-0.078l-0.01,-0.077l-0.012,-0.076l-0.014,-0.076l-0.014,-0.077l-0.016,-0.076l-0.017,-0.075l-0.018,-0.076l-0.019,-0.075l-0.021,-0.075l-0.022,-0.075l-0.023,-0.074l-0.024,-0.075l-0.026,-0.074l-0.026,-0.073l-0.028,-0.074l-0.029,-0.074l-0.03,-0.073l-0.031,-0.072l-0.033,-0.073l-0.034,-0.073l-0.035,-0.071l-0.036,-0.072l-0.038,-0.072l-0.038,-0.071l-0.04,-0.072l-0.041,-0.07l-0.042,-0.071l-0.043,-0.07l-0.044,-0.07l-0.046,-0.07l-0.047,-0.069l-0.048,-0.069l-0.049,-0.068l-0.05,-0.068l-0.051,-0.068l-0.053,-0.068l-0.054,-0.067l-0.055,-0.067l-0.056,-0.066l-0.057,-0.066l-0.058,-0.065l-0.059,-0.066l-0.061,-0.064l-0.061,-0.064l-0.063,-0.064l-0.064,-0.063l-0.065,-0.063l-0.066,-0.062l-0.067,-0.062l-0.068,-0.061l-0.069,-0.061l-0.07,-0.06l-0.072,-0.06l-0.072,-0.059l-0.073,-0.059l-0.075,-0.058l-0.075,-0.057l-0.076,-0.057l-0.078,-0.056l-0.078,-0.056l-0.08,-0.054l-0.08,-0.055l-0.081,-0.053l-0.083,-0.053l-0.083,-0.052l-0.084,-0.052l-0.085,-0.051l-0.086,-0.05l-0.087,-0.049l-0.088,-0.049l-0.089,-0.048l-0.089,-0.047l-0.09,-0.047l-0.092,-0.046l-0.092,-0.044l-0.093,-0.044l-0.094,-0.044l-0.095,-0.043l-0.095,-0.041l-0.096,-0.041l-0.097,-0.04l-0.098,-0.039l-0.099,-0.039l-0.1,-0.037l-0.1,-0.037l-0.1,-0.035l-0.102,-0.035l-0.103,-0.034l-0.103,-0.033l-0.103,-0.032l-0.105,-0.031l-0.105,-0.031l-0.106,-0.029l-0.106,-0.028l-0.108,-0.028l-0.107,-0.026l-0.109,-0.026l-0.109,-0.024l-0.109,-0.023l-0.11,-0.023l-0.111,-0.021l-0.112,-0.021l-0.112,-0.019l-0.112,-0.018l-0.113,-0.018l-0.114,-0.016l-0.114,-0.015l-0.115,-0.014l-0.115,-0.013l-0.116,-0.012l-0.116,-0.011l-0.117,-0.01l-0.117,-0.008l-0.117,-0.008l-0.118,-0.006l-0.119,-0.005l-0.119,-0.004l-0.119,-0.003l-0.12,-0.002l-0.124,0l-4.162,-0.001l-3.547,-0.002l-1.889,-0.002l0,13.08Z" style="fill:#5e5e5e;"/></g><g id="wc3" serif:id="wc"><path d="M444.148,325.402l-19.077,0l0,-3l19.077,0l0,3Z" style="fill:#5e5e5e;"/><path d="M434.739,306.866l0.128,0.004l0.127,0.005l0.128,0.007l0.127,0.01l0.127,0.011l0.125,0.014l0.126,0.015l0.126,0.018l0.125,0.019l0.124,0.022l0.123,0.023l0.124,0.026l0.123,0.028l0.121,0.029l0.121,0.031l0.121,0.033l0.121,0.035l0.119,0.037l0.118,0.039l0.118,0.04l0.118,0.043l0.116,0.044l0.116,0.045l0.115,0.048l0.115,0.049l0.113,0.051l0.113,0.053l0.112,0.054l0.111,0.056l0.11,0.058l0.11,0.059l0.109,0.061l0.107,0.062l0.107,0.064l0.106,0.065l0.106,0.067l0.104,0.068l0.103,0.07l0.103,0.072l0.102,0.072l0.1,0.075l0.1,0.075l0.099,0.077l0.098,0.079l0.097,0.079l0.096,0.081l0.095,0.083l0.094,0.084l0.094,0.085l0.092,0.086l0.091,0.087l0.09,0.089l0.09,0.09l0.088,0.092l0.087,0.092l0.087,0.094l0.085,0.095l0.084,0.096l0.084,0.097l0.082,0.098l0.081,0.1l0.081,0.1l0.079,0.102l0.078,0.103l0.077,0.104l0.076,0.105l0.076,0.106l0.074,0.107l0.072,0.108l0.072,0.109l0.071,0.11l0.07,0.111l0.069,0.112l0.067,0.113l0.067,0.115l0.065,0.114l0.064,0.116l0.064,0.117l0.062,0.118l0.061,0.119l0.06,0.119l0.058,0.121l0.058,0.121l0.056,0.122l0.056,0.123l0.054,0.124l0.053,0.125l0.051,0.125l0.051,0.127l0.05,0.127l0.048,0.128l0.047,0.129l0.046,0.129l0.044,0.131l0.044,0.131l0.042,0.132l0.041,0.132l0.04,0.133l0.038,0.134l0.038,0.135l0.036,0.135l0.034,0.136l0.034,0.137l0.032,0.137l0.031,0.138l0.03,0.139l0.028,0.139l0.027,0.14l0.026,0.14l0.024,0.141l0.023,0.142l0.022,0.142l0.02,0.143l0.019,0.143l0.018,0.144l0.016,0.144l0.015,0.145l0.013,0.145l0.013,0.146l0.01,0.147l0.01,0.146l0.008,0.148l0.006,0.148l0.005,0.148l0.004,0.148l0.002,0.149l0.001,0.146l0,12.606l-19.083,0l0.004,-4.892l0.002,-3.545l0.001,-4.169l0.001,-0.146l0.002,-0.149l0.004,-0.148l0.005,-0.148l0.006,-0.148l0.008,-0.148l0.009,-0.146l0.011,-0.147l0.012,-0.146l0.014,-0.145l0.015,-0.145l0.016,-0.144l0.018,-0.144l0.019,-0.143l0.02,-0.143l0.022,-0.142l0.023,-0.142l0.024,-0.141l0.026,-0.14l0.027,-0.14l0.028,-0.14l0.03,-0.138l0.031,-0.138l0.032,-0.137l0.033,-0.137l0.035,-0.136l0.036,-0.135l0.037,-0.135l0.039,-0.134l0.04,-0.133l0.041,-0.132l0.042,-0.132l0.043,-0.132l0.045,-0.13l0.046,-0.129l0.047,-0.129l0.048,-0.128l0.05,-0.127l0.05,-0.127l0.052,-0.125l0.053,-0.125l0.054,-0.124l0.055,-0.123l0.057,-0.122l0.057,-0.121l0.059,-0.121l0.06,-0.119l0.061,-0.119l0.062,-0.118l0.063,-0.117l0.064,-0.116l0.066,-0.114l0.066,-0.115l0.068,-0.113l0.069,-0.112l0.069,-0.111l0.071,-0.11l0.072,-0.109l0.073,-0.108l0.074,-0.107l0.075,-0.106l0.076,-0.105l0.078,-0.104l0.078,-0.103l0.079,-0.102l0.08,-0.1l0.082,-0.1l0.082,-0.098l0.083,-0.097l0.085,-0.096l0.085,-0.095l0.086,-0.094l0.088,-0.092l0.088,-0.092l0.089,-0.09l0.091,-0.089l0.091,-0.087l0.092,-0.086l0.093,-0.085l0.095,-0.084l0.095,-0.083l0.096,-0.081l0.097,-0.079l0.098,-0.079l0.099,-0.077l0.1,-0.075l0.1,-0.075l0.102,-0.072l0.103,-0.072l0.103,-0.07l0.104,-0.068l0.105,-0.067l0.107,-0.065l0.106,-0.064l0.108,-0.062l0.109,-0.061l0.109,-0.059l0.11,-0.058l0.112,-0.056l0.112,-0.054l0.113,-0.053l0.113,-0.051l0.114,-0.049l0.116,-0.048l0.115,-0.045l0.117,-0.044l0.117,-0.043l0.119,-0.04l0.118,-0.039l0.119,-0.037l0.12,-0.035l0.121,-0.033l0.122,-0.031l0.121,-0.029l0.123,-0.028l0.123,-0.026l0.124,-0.023l0.124,-0.022l0.125,-0.019l0.125,-0.018l0.126,-0.015l0.126,-0.014l0.127,-0.011l0.127,-0.01l0.127,-0.007l0.128,-0.005l0.128,-0.004l0.129,-0.001l0.129,0.001Zm-0.208,3l-0.079,0.002l-0.079,0.003l-0.078,0.005l-0.078,0.006l-0.077,0.007l-0.078,0.008l-0.077,0.01l-0.077,0.01l-0.077,0.012l-0.076,0.014l-0.077,0.014l-0.075,0.016l-0.076,0.017l-0.075,0.018l-0.076,0.019l-0.074,0.021l-0.075,0.022l-0.075,0.023l-0.074,0.024l-0.074,0.025l-0.074,0.027l-0.073,0.028l-0.074,0.029l-0.073,0.03l-0.073,0.031l-0.073,0.033l-0.072,0.034l-0.072,0.035l-0.072,0.036l-0.072,0.037l-0.071,0.039l-0.071,0.04l-0.071,0.04l-0.07,0.043l-0.071,0.043l-0.069,0.044l-0.07,0.046l-0.069,0.047l-0.069,0.048l-0.069,0.049l-0.068,0.05l-0.068,0.051l-0.067,0.053l-0.067,0.054l-0.067,0.054l-0.067,0.057l-0.065,0.057l-0.066,0.058l-0.065,0.059l-0.065,0.061l-0.064,0.061l-0.063,0.063l-0.064,0.064l-0.063,0.065l-0.062,0.066l-0.062,0.067l-0.061,0.068l-0.061,0.069l-0.06,0.07l-0.06,0.071l-0.059,0.073l-0.058,0.073l-0.058,0.074l-0.057,0.076l-0.057,0.076l-0.056,0.078l-0.056,0.078l-0.055,0.079l-0.054,0.081l-0.054,0.081l-0.053,0.082l-0.052,0.084l-0.052,0.084l-0.05,0.085l-0.05,0.086l-0.05,0.087l-0.049,0.088l-0.048,0.088l-0.047,0.09l-0.046,0.09l-0.046,0.092l-0.045,0.092l-0.044,0.093l-0.044,0.094l-0.042,0.094l-0.042,0.096l-0.041,0.096l-0.04,0.097l-0.039,0.098l-0.038,0.099l-0.038,0.099l-0.036,0.1l-0.036,0.101l-0.035,0.102l-0.034,0.102l-0.033,0.103l-0.032,0.104l-0.031,0.105l-0.03,0.105l-0.03,0.106l-0.028,0.106l-0.027,0.107l-0.027,0.108l-0.025,0.108l-0.025,0.11l-0.023,0.109l-0.022,0.11l-0.022,0.111l-0.02,0.112l-0.02,0.111l-0.018,0.113l-0.017,0.113l-0.016,0.114l-0.016,0.114l-0.014,0.115l-0.013,0.115l-0.011,0.116l-0.011,0.116l-0.01,0.116l-0.009,0.118l-0.007,0.117l-0.006,0.118l-0.006,0.119l-0.004,0.119l-0.003,0.119l-0.001,0.12l-0.001,0.124l-0.001,4.162l-0.002,3.546l-0.002,1.89l13.081,0l0,-9.598l-0.001,-0.124l-0.002,-0.12l-0.003,-0.119l-0.004,-0.119l-0.005,-0.119l-0.006,-0.118l-0.008,-0.117l-0.008,-0.118l-0.01,-0.116l-0.011,-0.116l-0.012,-0.116l-0.013,-0.115l-0.014,-0.115l-0.015,-0.114l-0.016,-0.114l-0.017,-0.113l-0.019,-0.113l-0.019,-0.111l-0.02,-0.112l-0.022,-0.111l-0.022,-0.11l-0.024,-0.109l-0.024,-0.109l-0.026,-0.109l-0.026,-0.108l-0.027,-0.107l-0.029,-0.106l-0.029,-0.106l-0.03,-0.105l-0.031,-0.105l-0.033,-0.104l-0.033,-0.103l-0.033,-0.102l-0.035,-0.102l-0.036,-0.101l-0.037,-0.1l-0.037,-0.099l-0.038,-0.099l-0.04,-0.098l-0.04,-0.097l-0.041,-0.096l-0.041,-0.096l-0.043,-0.094l-0.043,-0.094l-0.044,-0.093l-0.045,-0.092l-0.046,-0.092l-0.046,-0.09l-0.048,-0.09l-0.048,-0.088l-0.048,-0.088l-0.05,-0.087l-0.05,-0.086l-0.051,-0.085l-0.051,-0.084l-0.053,-0.084l-0.052,-0.082l-0.054,-0.081l-0.055,-0.081l-0.054,-0.079l-0.056,-0.078l-0.056,-0.078l-0.057,-0.076l-0.057,-0.076l-0.058,-0.074l-0.059,-0.073l-0.059,-0.073l-0.059,-0.071l-0.061,-0.07l-0.06,-0.069l-0.061,-0.068l-0.062,-0.067l-0.063,-0.066l-0.062,-0.065l-0.064,-0.064l-0.063,-0.063l-0.065,-0.061l-0.064,-0.061l-0.065,-0.059l-0.066,-0.058l-0.066,-0.057l-0.066,-0.057l-0.067,-0.054l-0.067,-0.054l-0.067,-0.053l-0.068,-0.051l-0.069,-0.05l-0.068,-0.049l-0.069,-0.048l-0.069,-0.047l-0.07,-0.046l-0.07,-0.044l-0.07,-0.043l-0.071,-0.043l-0.07,-0.04l-0.071,-0.04l-0.072,-0.039l-0.071,-0.037l-0.072,-0.036l-0.072,-0.035l-0.072,-0.034l-0.073,-0.033l-0.073,-0.031l-0.073,-0.03l-0.074,-0.029l-0.073,-0.028l-0.074,-0.027l-0.074,-0.025l-0.074,-0.024l-0.075,-0.023l-0.075,-0.022l-0.075,-0.021l-0.075,-0.019l-0.076,-0.018l-0.075,-0.017l-0.076,-0.016l-0.076,-0.014l-0.077,-0.014l-0.076,-0.012l-0.077,-0.01l-0.077,-0.01l-0.078,-0.008l-0.078,-0.007l-0.077,-0.006l-0.079,-0.005l-0.078,-0.003l-0.079,-0.002l-0.079,0l-0.079,0Z" style="fill:#5e5e5e;"/></g><g id="kad-1" serif:id="kad 1"><circle cx="275.996" cy="300.658" r="1.505" style="fill:#5e5e5e;"/><path d="M271.463,291.395l0.52,0.004l0.514,0.006l0.508,0.009l0.253,0.005l0.252,0.006l0.249,0.007l0.248,0.008l0.247,0.009l0.244,0.01l0.244,0.01l0.242,0.012l0.241,0.013l0.239,0.014l0.237,0.014l0.236,0.016l0.234,0.018l0.233,0.018l0.231,0.02l0.229,0.021l0.228,0.022l0.226,0.024l0.225,0.025l0.223,0.027l0.221,0.028l0.219,0.029l0.218,0.032l0.216,0.033l0.215,0.034l0.212,0.037l0.211,0.038l0.209,0.04l0.207,0.042l0.206,0.044l0.204,0.046l0.202,0.048l0.2,0.05l0.199,0.053l0.197,0.054l0.194,0.057l0.193,0.06l0.191,0.061l0.189,0.065l0.188,0.067l0.185,0.069l0.183,0.072l0.178,0.074l0.093,0.04l0.09,0.04l0.088,0.04l0.089,0.04l0.088,0.042l0.087,0.042l0.086,0.043l0.087,0.044l0.085,0.045l0.085,0.046l0.085,0.046l0.084,0.047l0.083,0.048l0.083,0.049l0.082,0.049l0.081,0.051l0.081,0.052l0.08,0.052l0.08,0.053l0.079,0.054l0.078,0.055l0.078,0.056l0.076,0.056l0.077,0.058l0.075,0.059l0.075,0.059l0.074,0.06l0.073,0.062l0.073,0.062l0.072,0.063l0.07,0.064l0.071,0.066l0.069,0.066l0.068,0.066l0.068,0.068l0.067,0.07l0.066,0.069l0.065,0.071l0.064,0.072l0.063,0.073l0.062,0.073l0.062,0.074l0.06,0.076l0.059,0.076l0.059,0.078l0.057,0.078l0.057,0.079l0.055,0.08l0.054,0.081l0.054,0.082l0.052,0.082l0.051,0.084l0.05,0.084l0.05,0.086l0.048,0.086l0.047,0.087l0.045,0.088l0.045,0.088l0.044,0.09l0.042,0.09l0.041,0.091l0.041,0.091l0.039,0.093l0.038,0.094l0.037,0.094l0.036,0.095l0.034,0.095l0.033,0.097l0.033,0.097l0.031,0.098l0.03,0.098l0.029,0.1l0.028,0.1l0.027,0.1l0.025,0.102l0.025,0.102l0.023,0.103l0.022,0.104l0.021,0.104l0.02,0.105l0.019,0.105l0.018,0.107l0.017,0.107l0.015,0.108l0.015,0.108l0.013,0.109l0.012,0.11l0.012,0.111l0.01,0.111l0.009,0.112l0.008,0.112l0.007,0.114l0.005,0.114l0.005,0.114l0.004,0.116l0.003,0.116l0.001,0.117l0.001,0.118l-0.001,0.118l-0.001,0.116l-0.003,0.117l-0.004,0.115l-0.005,0.115l-0.005,0.114l-0.007,0.113l-0.008,0.113l-0.009,0.112l-0.01,0.111l-0.012,0.11l-0.012,0.11l-0.013,0.109l-0.015,0.109l-0.015,0.108l-0.017,0.107l-0.018,0.106l-0.019,0.105l-0.02,0.106l-0.021,0.104l-0.022,0.103l-0.023,0.103l-0.025,0.103l-0.025,0.101l-0.027,0.101l-0.028,0.1l-0.029,0.099l-0.03,0.099l-0.031,0.097l-0.032,0.098l-0.034,0.096l-0.035,0.096l-0.035,0.095l-0.037,0.094l-0.038,0.093l-0.039,0.093l-0.04,0.092l-0.042,0.091l-0.042,0.09l-0.044,0.09l-0.045,0.088l-0.045,0.087l-0.047,0.088l-0.049,0.086l-0.049,0.085l-0.05,0.085l-0.051,0.083l-0.052,0.082l-0.053,0.083l-0.055,0.081l-0.055,0.079l-0.057,0.08l-0.057,0.078l-0.058,0.077l-0.06,0.076l-0.06,0.076l-0.062,0.075l-0.062,0.073l-0.063,0.073l-0.064,0.071l-0.065,0.071l-0.066,0.07l-0.067,0.069l-0.068,0.068l-0.068,0.067l-0.069,0.066l-0.07,0.065l-0.071,0.064l-0.073,0.064l-0.072,0.062l-0.073,0.061l-0.074,0.06l-0.075,0.06l-0.075,0.058l-0.076,0.058l-0.078,0.057l-0.077,0.056l-0.078,0.055l-0.079,0.054l-0.08,0.053l-0.08,0.052l-0.081,0.051l-0.081,0.051l-0.082,0.049l-0.083,0.049l-0.083,0.048l-0.084,0.047l-0.084,0.047l-0.086,0.046l-0.086,0.044l-0.085,0.044l-0.087,0.043l-0.087,0.042l-0.088,0.042l-0.089,0.041l-0.089,0.04l-0.089,0.039l-0.092,0.04l-0.179,0.074l-0.183,0.072l-0.185,0.07l-0.188,0.067l-0.189,0.064l-0.191,0.062l-0.193,0.059l-0.195,0.057l-0.196,0.055l-0.198,0.052l-0.201,0.05l-0.202,0.048l-0.204,0.046l-0.206,0.044l-0.207,0.042l-0.209,0.04l-0.211,0.039l-0.212,0.036l-0.215,0.035l-0.216,0.033l-0.218,0.031l-0.219,0.03l-0.221,0.028l-0.223,0.026l-0.225,0.026l-0.226,0.023l-0.228,0.023l-0.229,0.021l-0.231,0.019l-0.233,0.019l-0.234,0.017l-0.236,0.016l-0.237,0.015l-0.239,0.014l-0.241,0.012l-0.242,0.012l-0.244,0.011l-0.244,0.009l-0.247,0.009l-0.248,0.008l-0.25,0.007l-0.251,0.006l-0.253,0.006l-0.508,0.009l-0.514,0.006l-0.52,0.003l-0.525,0.002l-0.53,-0.001l-0.536,-0.002l-0.539,-0.003l-0.545,-0.005l-1.102,-0.011l-1.119,-0.012l-1.136,-0.011l-0.572,-0.005l-0.576,-0.003l-0.58,-0.003l-0.584,-0.001l0.004,-3l0.589,0.001l0.586,0.003l0.582,0.003l0.578,0.005l1.14,0.011l1.119,0.013l1.098,0.011l0.539,0.004l0.533,0.003l0.527,0.002l0.521,0.001l0.513,-0.002l0.507,-0.003l0.499,-0.006l0.493,-0.009l0.242,-0.005l0.241,-0.006l0.239,-0.007l0.237,-0.007l0.235,-0.009l0.233,-0.009l0.231,-0.01l0.228,-0.011l0.226,-0.012l0.225,-0.013l0.222,-0.014l0.22,-0.015l0.217,-0.016l0.215,-0.017l0.213,-0.018l0.211,-0.019l0.207,-0.02l0.206,-0.022l0.203,-0.023l0.2,-0.024l0.198,-0.025l0.195,-0.026l0.193,-0.028l0.19,-0.029l0.188,-0.03l0.184,-0.032l0.182,-0.033l0.179,-0.034l0.176,-0.036l0.174,-0.037l0.17,-0.038l0.168,-0.04l0.164,-0.041l0.161,-0.043l0.159,-0.044l0.155,-0.045l0.153,-0.047l0.149,-0.048l0.146,-0.05l0.143,-0.051l0.139,-0.053l0.137,-0.053l0.136,-0.057l0.062,-0.027l0.065,-0.028l0.064,-0.029l0.063,-0.029l0.062,-0.029l0.061,-0.03l0.061,-0.03l0.06,-0.031l0.059,-0.031l0.058,-0.031l0.057,-0.031l0.057,-0.032l0.055,-0.032l0.056,-0.033l0.054,-0.033l0.053,-0.033l0.053,-0.033l0.052,-0.034l0.051,-0.034l0.05,-0.034l0.05,-0.035l0.049,-0.035l0.047,-0.035l0.047,-0.036l0.047,-0.036l0.045,-0.036l0.046,-0.037l0.044,-0.038l0.044,-0.037l0.042,-0.037l0.043,-0.039l0.041,-0.039l0.041,-0.038l0.041,-0.04l0.039,-0.04l0.039,-0.04l0.038,-0.04l0.038,-0.041l0.037,-0.042l0.036,-0.041l0.036,-0.043l0.035,-0.042l0.035,-0.043l0.033,-0.044l0.034,-0.044l0.033,-0.045l0.032,-0.045l0.032,-0.046l0.031,-0.046l0.03,-0.047l0.03,-0.048l0.03,-0.048l0.029,-0.049l0.028,-0.049l0.028,-0.05l0.027,-0.05l0.027,-0.052l0.027,-0.052l0.025,-0.052l0.025,-0.054l0.025,-0.054l0.024,-0.055l0.024,-0.056l0.023,-0.057l0.022,-0.057l0.022,-0.058l0.022,-0.06l0.02,-0.059l0.02,-0.061l0.02,-0.062l0.019,-0.062l0.019,-0.064l0.018,-0.065l0.017,-0.065l0.017,-0.066l0.016,-0.067l0.015,-0.069l0.015,-0.069l0.015,-0.07l0.013,-0.072l0.013,-0.072l0.012,-0.074l0.012,-0.074l0.011,-0.075l0.01,-0.077l0.009,-0.077l0.009,-0.079l0.008,-0.079l0.008,-0.081l0.006,-0.082l0.006,-0.083l0.005,-0.084l0.005,-0.085l0.003,-0.086l0.003,-0.088l0.002,-0.088l0.001,-0.09l0.001,-0.09l-0.001,-0.091l-0.001,-0.089l-0.002,-0.089l-0.003,-0.087l-0.003,-0.087l-0.005,-0.085l-0.005,-0.083l-0.006,-0.084l-0.006,-0.081l-0.008,-0.081l-0.008,-0.08l-0.009,-0.078l-0.009,-0.078l-0.01,-0.076l-0.011,-0.076l-0.012,-0.074l-0.012,-0.073l-0.013,-0.073l-0.013,-0.071l-0.015,-0.07l-0.015,-0.07l-0.015,-0.068l-0.016,-0.067l-0.017,-0.067l-0.017,-0.065l-0.018,-0.065l-0.019,-0.063l-0.019,-0.063l-0.019,-0.061l-0.021,-0.061l-0.02,-0.06l-0.022,-0.059l-0.022,-0.058l-0.022,-0.058l-0.023,-0.057l-0.024,-0.055l-0.024,-0.055l-0.025,-0.055l-0.025,-0.053l-0.025,-0.053l-0.027,-0.052l-0.027,-0.051l-0.027,-0.051l-0.028,-0.05l-0.028,-0.049l-0.029,-0.049l-0.03,-0.048l-0.03,-0.048l-0.03,-0.046l-0.031,-0.046l-0.032,-0.046l-0.032,-0.046l-0.033,-0.045l-0.033,-0.043l-0.034,-0.044l-0.035,-0.043l-0.035,-0.043l-0.036,-0.042l-0.036,-0.042l-0.037,-0.041l-0.038,-0.041l-0.038,-0.041l-0.039,-0.04l-0.039,-0.039l-0.041,-0.04l-0.041,-0.039l-0.041,-0.038l-0.042,-0.039l-0.043,-0.038l-0.044,-0.037l-0.044,-0.037l-0.045,-0.037l-0.046,-0.036l-0.047,-0.036l-0.047,-0.036l-0.048,-0.036l-0.049,-0.035l-0.049,-0.034l-0.05,-0.035l-0.051,-0.034l-0.052,-0.034l-0.053,-0.033l-0.053,-0.033l-0.054,-0.033l-0.055,-0.032l-0.056,-0.032l-0.057,-0.032l-0.057,-0.032l-0.058,-0.031l-0.059,-0.031l-0.06,-0.03l-0.06,-0.03l-0.062,-0.03l-0.062,-0.029l-0.063,-0.03l-0.064,-0.029l-0.064,-0.028l-0.063,-0.027l-0.136,-0.056l-0.137,-0.054l-0.139,-0.052l-0.143,-0.051l-0.146,-0.05l-0.149,-0.048l-0.153,-0.047l-0.155,-0.046l-0.158,-0.044l-0.162,-0.042l-0.165,-0.041l-0.167,-0.04l-0.17,-0.039l-0.174,-0.037l-0.176,-0.035l-0.179,-0.035l-0.181,-0.033l-0.186,-0.031l-0.187,-0.031l-0.19,-0.029l-0.192,-0.027l-0.196,-0.027l-0.198,-0.025l-0.2,-0.024l-0.203,-0.023l-0.206,-0.021l-0.208,-0.021l-0.21,-0.019l-0.213,-0.018l-0.215,-0.017l-0.218,-0.016l-0.219,-0.015l-0.222,-0.014l-0.225,-0.013l-0.226,-0.012l-0.229,-0.011l-0.23,-0.01l-0.233,-0.009l-0.235,-0.008l-0.237,-0.008l-0.239,-0.007l-0.241,-0.006l-0.242,-0.005l-0.493,-0.008l-0.499,-0.006l-0.507,-0.004l-0.513,-0.001l-0.521,0l-0.527,0.002l-0.533,0.004l-0.539,0.004l-1.098,0.011l-1.119,0.012l-1.14,0.011l-0.578,0.005l-0.582,0.004l-0.586,0.002l-0.589,0.001l-0.004,-3l0.584,-0.001l0.58,-0.002l0.576,-0.004l0.572,-0.005l1.136,-0.011l1.119,-0.012l1.102,-0.011l0.545,-0.004l0.539,-0.004l0.536,-0.002l0.53,0l0.525,0.001Z" style="fill:#5e5e5e;"/><path d="M256.575,291.394l0.535,0.002l0.54,0.004l0.545,0.004l1.102,0.011l1.119,0.012l1.136,0.011l0.572,0.005l0.576,0.004l0.579,0.002l0.585,0.001l-0.004,3l-0.589,-0.001l-0.587,-0.002l-0.582,-0.004l-0.577,-0.005l-1.14,-0.011l-1.119,-0.012l-1.098,-0.011l-0.539,-0.004l-0.534,-0.004l-0.527,-0.002l-0.52,0l-0.514,0.001l-0.506,0.004l-0.499,0.006l-0.493,0.008l-0.242,0.005l-0.241,0.006l-0.239,0.007l-0.237,0.008l-0.235,0.008l-0.233,0.009l-0.231,0.01l-0.228,0.011l-0.227,0.012l-0.224,0.013l-0.222,0.014l-0.22,0.015l-0.217,0.016l-0.216,0.017l-0.212,0.018l-0.211,0.019l-0.207,0.021l-0.206,0.021l-0.203,0.023l-0.201,0.024l-0.198,0.025l-0.195,0.027l-0.193,0.027l-0.189,0.029l-0.188,0.031l-0.185,0.031l-0.182,0.033l-0.178,0.035l-0.177,0.035l-0.173,0.037l-0.17,0.039l-0.168,0.04l-0.164,0.041l-0.162,0.042l-0.158,0.044l-0.155,0.046l-0.153,0.047l-0.149,0.048l-0.146,0.05l-0.143,0.051l-0.139,0.052l-0.137,0.054l-0.137,0.056l-0.062,0.027l-0.064,0.029l-0.064,0.028l-0.063,0.03l-0.062,0.029l-0.062,0.03l-0.061,0.03l-0.059,0.03l-0.059,0.031l-0.059,0.031l-0.056,0.032l-0.057,0.032l-0.056,0.032l-0.055,0.032l-0.054,0.033l-0.053,0.033l-0.053,0.033l-0.052,0.034l-0.051,0.034l-0.05,0.035l-0.049,0.034l-0.049,0.035l-0.049,0.036l-0.047,0.036l-0.046,0.036l-0.046,0.036l-0.045,0.037l-0.044,0.037l-0.044,0.037l-0.043,0.038l-0.042,0.039l-0.042,0.038l-0.041,0.039l-0.04,0.039l-0.039,0.04l-0.039,0.04l-0.038,0.041l-0.038,0.041l-0.037,0.041l-0.036,0.042l-0.036,0.042l-0.035,0.043l-0.035,0.043l-0.034,0.044l-0.033,0.044l-0.033,0.044l-0.032,0.046l-0.032,0.046l-0.031,0.046l-0.031,0.047l-0.03,0.047l-0.029,0.048l-0.029,0.049l-0.028,0.049l-0.028,0.05l-0.028,0.051l-0.026,0.051l-0.027,0.052l-0.025,0.053l-0.026,0.053l-0.024,0.055l-0.024,0.055l-0.024,0.055l-0.023,0.057l-0.022,0.058l-0.022,0.058l-0.022,0.059l-0.021,0.06l-0.02,0.061l-0.02,0.061l-0.019,0.063l-0.018,0.063l-0.018,0.065l-0.017,0.065l-0.017,0.067l-0.016,0.067l-0.016,0.068l-0.015,0.07l-0.014,0.07l-0.013,0.071l-0.013,0.072l-0.013,0.074l-0.011,0.074l-0.011,0.076l-0.01,0.076l-0.01,0.078l-0.009,0.078l-0.008,0.08l-0.007,0.081l-0.007,0.081l-0.005,0.083l-0.006,0.084l-0.004,0.086l-0.003,0.086l-0.003,0.087l-0.002,0.089l-0.002,0.089l0,0.091l0,0.09l0.002,0.09l0.002,0.088l0.003,0.088l0.003,0.086l0.004,0.085l0.006,0.084l0.005,0.083l0.007,0.082l0.007,0.081l0.008,0.079l0.009,0.079l0.01,0.077l0.01,0.077l0.011,0.075l0.011,0.074l0.013,0.074l0.013,0.072l0.013,0.071l0.014,0.071l0.015,0.069l0.016,0.069l0.016,0.067l0.017,0.066l0.017,0.066l0.018,0.064l0.018,0.064l0.019,0.062l0.02,0.062l0.02,0.061l0.021,0.059l0.022,0.06l0.022,0.058l0.022,0.057l0.023,0.057l0.024,0.056l0.024,0.055l0.024,0.054l0.026,0.054l0.025,0.052l0.026,0.052l0.027,0.052l0.028,0.05l0.027,0.05l0.029,0.05l0.029,0.048l0.029,0.048l0.03,0.048l0.031,0.047l0.031,0.046l0.032,0.046l0.032,0.045l0.033,0.045l0.033,0.044l0.034,0.044l0.035,0.043l0.035,0.042l0.035,0.043l0.037,0.041l0.037,0.042l0.037,0.041l0.039,0.04l0.039,0.04l0.039,0.04l0.04,0.039l0.041,0.039l0.042,0.039l0.042,0.038l0.043,0.038l0.043,0.037l0.045,0.038l0.045,0.037l0.046,0.036l0.046,0.036l0.048,0.036l0.047,0.035l0.049,0.035l0.05,0.035l0.05,0.034l0.051,0.034l0.052,0.034l0.053,0.033l0.053,0.033l0.054,0.033l0.055,0.033l0.056,0.032l0.057,0.032l0.057,0.031l0.058,0.031l0.059,0.031l0.06,0.031l0.061,0.03l0.061,0.03l0.062,0.029l0.062,0.029l0.064,0.029l0.065,0.028l0.063,0.027l0.136,0.057l0.136,0.053l0.14,0.053l0.143,0.051l0.146,0.05l0.149,0.048l0.152,0.047l0.156,0.045l0.158,0.044l0.162,0.043l0.164,0.041l0.168,0.04l0.17,0.038l0.173,0.037l0.177,0.036l0.179,0.034l0.181,0.033l0.185,0.032l0.187,0.03l0.19,0.029l0.193,0.028l0.196,0.026l0.197,0.025l0.201,0.024l0.203,0.023l0.205,0.022l0.208,0.02l0.211,0.019l0.213,0.018l0.215,0.017l0.217,0.016l0.22,0.015l0.222,0.014l0.224,0.013l0.227,0.012l0.228,0.011l0.231,0.01l0.233,0.009l0.235,0.009l0.237,0.007l0.239,0.007l0.241,0.006l0.242,0.005l0.493,0.009l0.499,0.006l0.506,0.003l0.514,0.002l0.52,-0.001l0.527,-0.002l0.534,-0.003l0.539,-0.004l1.098,-0.011l1.119,-0.013l1.14,-0.011l0.577,-0.005l0.582,-0.003l0.587,-0.003l0.589,-0.001l0.004,3l-0.585,0.001l-0.579,0.003l-0.576,0.003l-0.572,0.005l-1.136,0.011l-1.119,0.012l-1.102,0.011l-0.545,0.005l-0.54,0.003l-0.535,0.002l-0.53,0.001l-0.525,-0.002l-0.52,-0.003l-0.515,-0.006l-0.507,-0.009l-0.254,-0.006l-0.251,-0.006l-0.249,-0.007l-0.248,-0.008l-0.247,-0.009l-0.245,-0.009l-0.243,-0.011l-0.243,-0.012l-0.24,-0.012l-0.239,-0.014l-0.237,-0.015l-0.236,-0.016l-0.235,-0.017l-0.232,-0.019l-0.231,-0.019l-0.23,-0.021l-0.227,-0.023l-0.227,-0.023l-0.224,-0.026l-0.223,-0.026l-0.221,-0.028l-0.22,-0.03l-0.217,-0.031l-0.216,-0.033l-0.215,-0.035l-0.213,-0.036l-0.211,-0.039l-0.209,-0.04l-0.207,-0.042l-0.206,-0.044l-0.203,-0.046l-0.202,-0.048l-0.201,-0.05l-0.198,-0.052l-0.197,-0.055l-0.194,-0.057l-0.193,-0.059l-0.192,-0.062l-0.189,-0.064l-0.187,-0.067l-0.185,-0.07l-0.183,-0.072l-0.179,-0.074l-0.093,-0.04l-0.089,-0.039l-0.088,-0.04l-0.089,-0.041l-0.088,-0.042l-0.087,-0.042l-0.087,-0.043l-0.086,-0.044l-0.085,-0.044l-0.086,-0.046l-0.084,-0.047l-0.084,-0.047l-0.083,-0.048l-0.083,-0.049l-0.082,-0.049l-0.081,-0.051l-0.081,-0.051l-0.081,-0.052l-0.079,-0.053l-0.079,-0.054l-0.078,-0.055l-0.078,-0.056l-0.077,-0.057l-0.076,-0.058l-0.075,-0.058l-0.075,-0.06l-0.074,-0.06l-0.073,-0.061l-0.073,-0.062l-0.072,-0.064l-0.071,-0.064l-0.07,-0.065l-0.069,-0.066l-0.069,-0.067l-0.067,-0.068l-0.067,-0.069l-0.066,-0.07l-0.065,-0.071l-0.064,-0.071l-0.063,-0.073l-0.063,-0.073l-0.061,-0.075l-0.06,-0.076l-0.06,-0.076l-0.058,-0.077l-0.057,-0.078l-0.057,-0.079l-0.055,-0.08l-0.055,-0.082l-0.053,-0.081l-0.052,-0.083l-0.052,-0.084l-0.05,-0.084l-0.049,-0.085l-0.048,-0.086l-0.047,-0.087l-0.045,-0.088l-0.045,-0.089l-0.044,-0.089l-0.042,-0.09l-0.042,-0.091l-0.04,-0.092l-0.039,-0.093l-0.038,-0.093l-0.037,-0.094l-0.036,-0.095l-0.034,-0.096l-0.034,-0.096l-0.032,-0.098l-0.031,-0.097l-0.031,-0.099l-0.028,-0.099l-0.028,-0.1l-0.027,-0.101l-0.026,-0.101l-0.024,-0.103l-0.023,-0.103l-0.023,-0.103l-0.021,-0.104l-0.02,-0.106l-0.019,-0.105l-0.017,-0.106l-0.017,-0.107l-0.016,-0.108l-0.014,-0.109l-0.013,-0.109l-0.013,-0.11l-0.011,-0.11l-0.01,-0.111l-0.009,-0.112l-0.008,-0.113l-0.007,-0.113l-0.006,-0.114l-0.005,-0.115l-0.003,-0.116l-0.003,-0.116l-0.001,-0.117l-0.001,-0.117l0.001,-0.118l0.001,-0.117l0.003,-0.116l0.003,-0.115l0.005,-0.115l0.006,-0.114l0.007,-0.114l0.008,-0.112l0.009,-0.112l0.01,-0.111l0.011,-0.111l0.013,-0.11l0.013,-0.109l0.014,-0.108l0.016,-0.108l0.017,-0.107l0.017,-0.106l0.019,-0.106l0.02,-0.105l0.021,-0.104l0.023,-0.104l0.023,-0.103l0.024,-0.102l0.026,-0.102l0.027,-0.1l0.027,-0.1l0.029,-0.1l0.031,-0.098l0.031,-0.098l0.032,-0.097l0.034,-0.097l0.034,-0.095l0.036,-0.095l0.037,-0.094l0.038,-0.094l0.039,-0.093l0.04,-0.091l0.042,-0.091l0.042,-0.09l0.044,-0.09l0.044,-0.088l0.046,-0.088l0.047,-0.087l0.048,-0.086l0.049,-0.086l0.05,-0.084l0.052,-0.084l0.052,-0.082l0.053,-0.082l0.055,-0.081l0.055,-0.08l0.056,-0.079l0.058,-0.078l0.058,-0.078l0.06,-0.076l0.06,-0.075l0.061,-0.075l0.062,-0.073l0.064,-0.073l0.064,-0.072l0.065,-0.071l0.066,-0.069l0.067,-0.07l0.067,-0.068l0.069,-0.066l0.069,-0.067l0.07,-0.065l0.071,-0.064l0.072,-0.063l0.072,-0.062l0.074,-0.062l0.074,-0.06l0.074,-0.059l0.076,-0.059l0.076,-0.058l0.077,-0.056l0.077,-0.056l0.079,-0.055l0.079,-0.054l0.079,-0.053l0.081,-0.053l0.081,-0.051l0.081,-0.051l0.082,-0.049l0.083,-0.049l0.083,-0.048l0.084,-0.047l0.085,-0.047l0.084,-0.045l0.086,-0.045l0.087,-0.044l0.086,-0.043l0.087,-0.042l0.088,-0.042l0.088,-0.04l0.089,-0.04l0.09,-0.04l0.093,-0.04l0.178,-0.074l0.183,-0.072l0.185,-0.069l0.187,-0.067l0.189,-0.065l0.192,-0.061l0.192,-0.06l0.195,-0.057l0.197,-0.054l0.198,-0.053l0.2,-0.05l0.202,-0.048l0.205,-0.046l0.205,-0.044l0.207,-0.042l0.21,-0.04l0.211,-0.038l0.212,-0.037l0.214,-0.034l0.217,-0.033l0.217,-0.032l0.22,-0.029l0.221,-0.028l0.223,-0.027l0.224,-0.025l0.226,-0.024l0.228,-0.022l0.23,-0.021l0.231,-0.02l0.232,-0.018l0.234,-0.018l0.237,-0.016l0.237,-0.014l0.239,-0.014l0.24,-0.013l0.242,-0.012l0.244,-0.01l0.245,-0.01l0.247,-0.009l0.248,-0.008l0.249,-0.007l0.251,-0.006l0.254,-0.005l0.508,-0.009l0.514,-0.006l0.52,-0.004l0.525,-0.001l0.53,0Z" style="fill:#5e5e5e;"/></g><g id="kad-11" serif:id="kad 1"><path d="M496.22,299.425c0,-0.83 0.675,-1.505 1.506,-1.505c0.831,0 1.505,0.675 1.505,1.505c0,0.831 -0.674,1.506 -1.505,1.506c-0.831,0 -1.506,-0.675 -1.506,-1.506Z" style="fill:#5e5e5e;"/><path d="M497.843,288.061l0.117,0.002l0.117,0.003l0.115,0.003l0.115,0.005l0.114,0.006l0.113,0.007l0.112,0.008l0.113,0.009l0.111,0.01l0.11,0.011l0.11,0.012l0.11,0.014l0.108,0.014l0.108,0.016l0.107,0.017l0.106,0.017l0.106,0.019l0.104,0.02l0.105,0.021l0.103,0.022l0.104,0.024l0.101,0.024l0.102,0.026l0.101,0.027l0.1,0.027l0.099,0.029l0.099,0.03l0.097,0.032l0.098,0.032l0.096,0.033l0.096,0.035l0.095,0.036l0.094,0.037l0.093,0.038l0.093,0.039l0.091,0.04l0.092,0.041l0.09,0.043l0.089,0.044l0.089,0.044l0.088,0.046l0.087,0.047l0.086,0.048l0.085,0.049l0.085,0.05l0.083,0.051l0.083,0.053l0.082,0.053l0.081,0.055l0.079,0.055l0.079,0.056l0.079,0.058l0.077,0.058l0.077,0.06l0.075,0.06l0.075,0.061l0.073,0.062l0.072,0.063l0.073,0.065l0.07,0.065l0.07,0.065l0.069,0.068l0.068,0.067l0.067,0.069l0.066,0.069l0.065,0.07l0.064,0.071l0.063,0.072l0.063,0.072l0.061,0.074l0.06,0.074l0.06,0.074l0.058,0.076l0.058,0.076l0.057,0.077l0.056,0.077l0.054,0.079l0.055,0.079l0.053,0.079l0.052,0.081l0.051,0.08l0.051,0.082l0.05,0.082l0.048,0.083l0.048,0.083l0.047,0.084l0.047,0.085l0.045,0.085l0.045,0.085l0.044,0.086l0.043,0.087l0.043,0.087l0.041,0.088l0.041,0.088l0.04,0.089l0.039,0.089l0.04,0.093l0.074,0.179l0.072,0.183l0.07,0.185l0.067,0.187l0.064,0.189l0.062,0.191l0.059,0.193l0.057,0.195l0.055,0.197l0.052,0.198l0.05,0.2l0.048,0.202l0.046,0.204l0.044,0.206l0.042,0.207l0.04,0.209l0.039,0.211l0.036,0.213l0.035,0.214l0.033,0.216l0.031,0.218l0.03,0.22l0.028,0.221l0.027,0.223l0.025,0.224l0.023,0.226l0.023,0.228l0.021,0.23l0.019,0.231l0.019,0.232l0.017,0.235l0.016,0.235l0.015,0.238l0.014,0.239l0.012,0.24l0.012,0.242l0.011,0.244l0.009,0.245l0.009,0.247l0.008,0.248l0.007,0.249l0.006,0.251l0.006,0.254l0.009,0.507l0.006,0.515l0.003,0.52l0.002,0.525l-0.001,0.53l-0.002,0.535l-0.003,0.54l-0.005,0.545l-0.011,1.102l-0.012,1.119l-0.011,1.135l-0.005,0.573l-0.003,0.576l-0.003,0.579l0,0.585l-3,-0.005l0,-0.588l0.003,-0.587l0.003,-0.582l0.005,-0.578l0.011,-1.139l0.013,-1.12l0.011,-1.097l0.004,-0.54l0.003,-0.533l0.002,-0.527l0.001,-0.52l-0.002,-0.514l-0.003,-0.506l-0.006,-0.499l-0.009,-0.493l-0.005,-0.242l-0.006,-0.241l-0.007,-0.239l-0.007,-0.237l-0.008,-0.235l-0.01,-0.233l-0.01,-0.231l-0.011,-0.228l-0.012,-0.227l-0.013,-0.224l-0.014,-0.222l-0.015,-0.22l-0.015,-0.218l-0.017,-0.215l-0.019,-0.212l-0.019,-0.211l-0.02,-0.208l-0.022,-0.205l-0.023,-0.203l-0.024,-0.201l-0.025,-0.198l-0.026,-0.195l-0.028,-0.193l-0.029,-0.19l-0.03,-0.187l-0.032,-0.185l-0.033,-0.182l-0.034,-0.179l-0.036,-0.176l-0.037,-0.173l-0.038,-0.17l-0.04,-0.168l-0.041,-0.165l-0.043,-0.161l-0.044,-0.158l-0.045,-0.156l-0.047,-0.152l-0.048,-0.149l-0.05,-0.146l-0.051,-0.143l-0.053,-0.14l-0.053,-0.136l-0.057,-0.137l-0.027,-0.062l-0.028,-0.065l-0.029,-0.063l-0.029,-0.063l-0.03,-0.063l-0.029,-0.061l-0.03,-0.06l-0.031,-0.06l-0.031,-0.059l-0.031,-0.059l-0.031,-0.057l-0.032,-0.056l-0.032,-0.056l-0.033,-0.055l-0.032,-0.054l-0.033,-0.053l-0.034,-0.053l-0.034,-0.052l-0.034,-0.051l-0.034,-0.05l-0.035,-0.05l-0.035,-0.049l-0.035,-0.048l-0.036,-0.047l-0.036,-0.046l-0.037,-0.046l-0.037,-0.046l-0.037,-0.044l-0.037,-0.043l-0.038,-0.043l-0.038,-0.042l-0.039,-0.042l-0.039,-0.041l-0.039,-0.04l-0.04,-0.04l-0.039,-0.038l-0.041,-0.039l-0.041,-0.038l-0.041,-0.036l-0.042,-0.036l-0.043,-0.037l-0.042,-0.035l-0.044,-0.034l-0.043,-0.034l-0.044,-0.033l-0.045,-0.033l-0.045,-0.032l-0.046,-0.032l-0.046,-0.031l-0.047,-0.031l-0.048,-0.03l-0.048,-0.029l-0.048,-0.029l-0.05,-0.029l-0.05,-0.027l-0.051,-0.028l-0.051,-0.027l-0.052,-0.026l-0.052,-0.026l-0.054,-0.025l-0.054,-0.024l-0.055,-0.024l-0.056,-0.024l-0.057,-0.023l-0.057,-0.023l-0.058,-0.022l-0.059,-0.021l-0.06,-0.021l-0.061,-0.02l-0.062,-0.02l-0.062,-0.019l-0.064,-0.018l-0.065,-0.018l-0.065,-0.018l-0.066,-0.016l-0.068,-0.017l-0.068,-0.015l-0.069,-0.015l-0.07,-0.014l-0.072,-0.014l-0.072,-0.012l-0.073,-0.013l-0.075,-0.011l-0.075,-0.011l-0.077,-0.01l-0.077,-0.01l-0.079,-0.009l-0.08,-0.008l-0.08,-0.007l-0.082,-0.007l-0.083,-0.006l-0.084,-0.005l-0.085,-0.004l-0.087,-0.004l-0.087,-0.002l-0.088,-0.002l-0.089,-0.002l-0.091,0l-0.091,0l-0.09,0.002l-0.088,0.002l-0.087,0.002l-0.087,0.004l-0.085,0.004l-0.083,0.005l-0.084,0.006l-0.081,0.007l-0.081,0.007l-0.08,0.008l-0.079,0.009l-0.077,0.01l-0.076,0.01l-0.076,0.011l-0.074,0.011l-0.073,0.013l-0.073,0.012l-0.071,0.014l-0.071,0.014l-0.069,0.015l-0.068,0.015l-0.067,0.017l-0.067,0.016l-0.065,0.018l-0.064,0.018l-0.064,0.018l-0.063,0.019l-0.061,0.02l-0.061,0.02l-0.06,0.021l-0.059,0.021l-0.058,0.022l-0.058,0.023l-0.056,0.023l-0.056,0.024l-0.056,0.024l-0.053,0.024l-0.054,0.025l-0.053,0.026l-0.052,0.026l-0.051,0.027l-0.051,0.028l-0.05,0.027l-0.049,0.029l-0.049,0.029l-0.048,0.029l-0.047,0.03l-0.047,0.031l-0.046,0.031l-0.047,0.032l-0.045,0.032l-0.044,0.032l-0.044,0.034l-0.044,0.034l-0.043,0.034l-0.043,0.036l-0.042,0.036l-0.042,0.036l-0.041,0.037l-0.041,0.037l-0.041,0.039l-0.04,0.038l-0.04,0.04l-0.039,0.04l-0.039,0.041l-0.038,0.042l-0.039,0.042l-0.038,0.043l-0.037,0.043l-0.037,0.045l-0.037,0.045l-0.036,0.045l-0.036,0.047l-0.036,0.048l-0.035,0.047l-0.036,0.049l-0.034,0.05l-0.035,0.05l-0.034,0.051l-0.033,0.052l-0.034,0.052l-0.033,0.054l-0.033,0.054l-0.032,0.055l-0.032,0.056l-0.032,0.056l-0.031,0.057l-0.032,0.059l-0.03,0.059l-0.031,0.06l-0.03,0.06l-0.03,0.061l-0.029,0.063l-0.03,0.063l-0.028,0.063l-0.029,0.065l-0.027,0.062l-0.056,0.137l-0.054,0.136l-0.052,0.14l-0.051,0.143l-0.05,0.146l-0.048,0.149l-0.047,0.152l-0.046,0.156l-0.044,0.158l-0.042,0.161l-0.041,0.165l-0.04,0.167l-0.039,0.171l-0.037,0.173l-0.035,0.176l-0.035,0.179l-0.033,0.182l-0.031,0.185l-0.031,0.187l-0.029,0.19l-0.027,0.193l-0.027,0.195l-0.025,0.198l-0.024,0.201l-0.023,0.203l-0.021,0.205l-0.021,0.208l-0.019,0.211l-0.018,0.212l-0.017,0.216l-0.016,0.217l-0.015,0.22l-0.014,0.222l-0.013,0.224l-0.012,0.226l-0.011,0.229l-0.01,0.231l-0.009,0.233l-0.008,0.235l-0.008,0.237l-0.007,0.239l-0.006,0.241l-0.005,0.242l-0.008,0.493l-0.006,0.499l-0.004,0.506l-0.001,0.514l0,0.52l0.002,0.527l0.004,0.533l0.004,0.54l0.011,1.097l0.012,1.12l0.011,1.139l0.005,0.578l0.004,0.582l0.002,0.587l0.001,0.588l-3,0.005l-0.001,-0.585l-0.002,-0.579l-0.004,-0.576l-0.004,-0.573l-0.012,-1.135l-0.012,-1.119l-0.011,-1.102l-0.004,-0.545l-0.004,-0.54l-0.002,-0.535l0,-0.53l0.001,-0.525l0.004,-0.52l0.006,-0.515l0.009,-0.507l0.005,-0.254l0.006,-0.251l0.007,-0.249l0.008,-0.248l0.009,-0.247l0.01,-0.245l0.011,-0.244l0.011,-0.242l0.013,-0.24l0.014,-0.239l0.014,-0.238l0.016,-0.235l0.018,-0.235l0.018,-0.232l0.02,-0.231l0.021,-0.23l0.022,-0.228l0.024,-0.226l0.025,-0.224l0.027,-0.223l0.028,-0.221l0.03,-0.22l0.031,-0.218l0.033,-0.216l0.034,-0.214l0.037,-0.213l0.038,-0.211l0.04,-0.209l0.042,-0.207l0.044,-0.206l0.046,-0.204l0.048,-0.201l0.05,-0.201l0.053,-0.198l0.054,-0.197l0.057,-0.195l0.06,-0.193l0.061,-0.191l0.065,-0.189l0.067,-0.187l0.069,-0.185l0.073,-0.184l0.073,-0.178l0.04,-0.093l0.039,-0.089l0.041,-0.089l0.041,-0.088l0.041,-0.088l0.042,-0.087l0.044,-0.087l0.043,-0.086l0.045,-0.085l0.046,-0.085l0.046,-0.085l0.047,-0.084l0.048,-0.083l0.049,-0.083l0.05,-0.082l0.05,-0.081l0.051,-0.081l0.053,-0.081l0.053,-0.079l0.054,-0.079l0.055,-0.079l0.056,-0.077l0.057,-0.077l0.057,-0.076l0.058,-0.075l0.06,-0.075l0.06,-0.074l0.062,-0.074l0.062,-0.072l0.063,-0.072l0.065,-0.071l0.065,-0.07l0.066,-0.069l0.067,-0.069l0.067,-0.067l0.069,-0.067l0.07,-0.066l0.071,-0.065l0.072,-0.065l0.072,-0.063l0.074,-0.062l0.074,-0.061l0.076,-0.06l0.076,-0.06l0.077,-0.058l0.079,-0.058l0.079,-0.056l0.08,-0.055l0.081,-0.055l0.082,-0.053l0.082,-0.053l0.084,-0.051l0.084,-0.05l0.086,-0.049l0.086,-0.048l0.086,-0.047l0.089,-0.046l0.088,-0.045l0.09,-0.043l0.09,-0.043l0.091,-0.041l0.092,-0.04l0.092,-0.039l0.094,-0.038l0.094,-0.037l0.095,-0.036l0.095,-0.035l0.097,-0.033l0.097,-0.032l0.098,-0.032l0.099,-0.03l0.099,-0.029l0.1,-0.027l0.101,-0.027l0.101,-0.026l0.102,-0.024l0.103,-0.024l0.104,-0.022l0.104,-0.021l0.105,-0.02l0.106,-0.019l0.106,-0.017l0.107,-0.017l0.108,-0.016l0.108,-0.014l0.11,-0.014l0.109,-0.012l0.11,-0.011l0.112,-0.01l0.112,-0.009l0.112,-0.008l0.114,-0.007l0.114,-0.006l0.114,-0.005l0.116,-0.003l0.116,-0.003l0.117,-0.002l0.118,0l0.117,0Z" style="fill:#5e5e5e;"/><path d="M506.934,312.142l0.003,0.58l0.003,0.576l0.005,0.572l0.011,1.135l0.012,1.12l0.011,1.101l0.005,0.545l0.003,0.54l0.002,0.535l0.001,0.531l-0.002,0.525l-0.003,0.52l-0.006,0.514l-0.009,0.508l-0.006,0.253l-0.006,0.251l-0.007,0.25l-0.008,0.248l-0.009,0.246l-0.009,0.245l-0.011,0.244l-0.012,0.242l-0.012,0.241l-0.014,0.239l-0.015,0.237l-0.016,0.236l-0.017,0.234l-0.019,0.233l-0.019,0.231l-0.021,0.229l-0.023,0.228l-0.023,0.226l-0.025,0.225l-0.027,0.222l-0.028,0.222l-0.03,0.219l-0.031,0.218l-0.033,0.216l-0.035,0.214l-0.036,0.213l-0.039,0.211l-0.04,0.209l-0.042,0.207l-0.044,0.206l-0.046,0.204l-0.048,0.202l-0.05,0.2l-0.052,0.199l-0.055,0.196l-0.057,0.195l-0.059,0.193l-0.062,0.191l-0.064,0.189l-0.067,0.188l-0.07,0.185l-0.072,0.183l-0.074,0.178l-0.04,0.093l-0.039,0.09l-0.04,0.088l-0.041,0.088l-0.041,0.088l-0.043,0.087l-0.043,0.087l-0.044,0.087l-0.045,0.085l-0.045,0.085l-0.047,0.085l-0.047,0.083l-0.048,0.084l-0.048,0.082l-0.05,0.082l-0.051,0.082l-0.051,0.081l-0.052,0.08l-0.053,0.08l-0.054,0.078l-0.055,0.079l-0.056,0.078l-0.057,0.076l-0.058,0.077l-0.058,0.075l-0.059,0.074l-0.061,0.075l-0.061,0.073l-0.063,0.073l-0.062,0.071l-0.065,0.071l-0.065,0.07l-0.066,0.069l-0.067,0.069l-0.068,0.068l-0.069,0.067l-0.07,0.066l-0.071,0.065l-0.071,0.064l-0.073,0.063l-0.073,0.062l-0.075,0.062l-0.076,0.06l-0.076,0.059l-0.077,0.059l-0.078,0.057l-0.079,0.056l-0.081,0.056l-0.08,0.054l-0.082,0.054l-0.083,0.052l-0.083,0.051l-0.085,0.051l-0.085,0.048l-0.086,0.048l-0.087,0.047l-0.088,0.046l-0.089,0.045l-0.089,0.043l-0.09,0.043l-0.092,0.041l-0.091,0.041l-0.093,0.039l-0.093,0.038l-0.095,0.037l-0.094,0.035l-0.096,0.035l-0.096,0.033l-0.097,0.033l-0.098,0.031l-0.099,0.03l-0.099,0.029l-0.101,0.028l-0.1,0.027l-0.102,0.025l-0.101,0.024l-0.104,0.024l-0.103,0.022l-0.104,0.021l-0.105,0.02l-0.106,0.019l-0.106,0.018l-0.107,0.017l-0.109,0.015l-0.107,0.014l-0.109,0.014l-0.111,0.012l-0.11,0.011l-0.111,0.01l-0.112,0.01l-0.113,0.008l-0.113,0.006l-0.114,0.006l-0.115,0.005l-0.116,0.004l-0.115,0.002l-0.118,0.002l-0.117,0l-0.118,0l-0.117,-0.002l-0.116,-0.002l-0.115,-0.004l-0.116,-0.005l-0.113,-0.006l-0.113,-0.006l-0.113,-0.008l-0.112,-0.01l-0.111,-0.01l-0.111,-0.011l-0.11,-0.012l-0.109,-0.014l-0.108,-0.014l-0.108,-0.015l-0.107,-0.017l-0.106,-0.018l-0.106,-0.019l-0.105,-0.02l-0.104,-0.021l-0.104,-0.022l-0.103,-0.024l-0.102,-0.024l-0.101,-0.025l-0.101,-0.027l-0.1,-0.028l-0.099,-0.029l-0.1,-0.03l-0.097,-0.031l-0.097,-0.033l-0.097,-0.033l-0.095,-0.035l-0.095,-0.035l-0.094,-0.037l-0.094,-0.038l-0.092,-0.039l-0.092,-0.041l-0.091,-0.041l-0.09,-0.043l-0.09,-0.043l-0.089,-0.045l-0.087,-0.046l-0.087,-0.047l-0.086,-0.048l-0.085,-0.049l-0.085,-0.05l-0.084,-0.051l-0.083,-0.053l-0.081,-0.053l-0.081,-0.054l-0.08,-0.056l-0.079,-0.056l-0.079,-0.058l-0.077,-0.058l-0.076,-0.059l-0.075,-0.06l-0.075,-0.062l-0.074,-0.062l-0.072,-0.063l-0.072,-0.064l-0.071,-0.066l-0.07,-0.065l-0.068,-0.067l-0.068,-0.068l-0.068,-0.069l-0.065,-0.069l-0.065,-0.07l-0.065,-0.071l-0.063,-0.071l-0.062,-0.073l-0.061,-0.073l-0.061,-0.074l-0.06,-0.075l-0.058,-0.075l-0.057,-0.076l-0.057,-0.077l-0.056,-0.078l-0.055,-0.079l-0.054,-0.079l-0.053,-0.079l-0.052,-0.08l-0.052,-0.081l-0.05,-0.082l-0.05,-0.081l-0.049,-0.083l-0.048,-0.084l-0.047,-0.084l-0.046,-0.084l-0.046,-0.085l-0.045,-0.086l-0.043,-0.086l-0.044,-0.086l-0.042,-0.088l-0.042,-0.088l-0.04,-0.088l-0.04,-0.089l-0.04,-0.089l-0.04,-0.093l-0.073,-0.178l-0.073,-0.183l-0.069,-0.186l-0.067,-0.187l-0.064,-0.189l-0.062,-0.191l-0.06,-0.193l-0.057,-0.195l-0.054,-0.196l-0.053,-0.199l-0.05,-0.2l-0.048,-0.202l-0.046,-0.204l-0.044,-0.206l-0.042,-0.207l-0.04,-0.209l-0.038,-0.211l-0.037,-0.213l-0.034,-0.214l-0.033,-0.216l-0.031,-0.218l-0.03,-0.219l-0.028,-0.221l-0.027,-0.223l-0.025,-0.225l-0.024,-0.226l-0.022,-0.228l-0.021,-0.229l-0.02,-0.231l-0.018,-0.233l-0.018,-0.234l-0.016,-0.236l-0.014,-0.237l-0.014,-0.239l-0.013,-0.241l-0.011,-0.242l-0.011,-0.244l-0.01,-0.245l-0.009,-0.246l-0.008,-0.248l-0.007,-0.25l-0.006,-0.251l-0.005,-0.253l-0.009,-0.508l-0.006,-0.514l-0.004,-0.52l-0.001,-0.525l0,-0.531l0.002,-0.535l0.004,-0.54l0.004,-0.545l0.011,-1.101l0.012,-1.12l0.012,-1.135l0.004,-0.572l0.004,-0.576l0.002,-0.58l0.001,-0.584l3,0.004l-0.001,0.589l-0.002,0.586l-0.004,0.582l-0.005,0.578l-0.011,1.14l-0.012,1.119l-0.011,1.098l-0.004,0.539l-0.004,0.533l-0.002,0.527l0,0.521l0.001,0.513l0.004,0.507l0.006,0.499l0.008,0.493l0.005,0.242l0.006,0.241l0.007,0.239l0.008,0.237l0.008,0.235l0.009,0.232l0.01,0.231l0.011,0.229l0.012,0.226l0.013,0.225l0.014,0.222l0.015,0.219l0.016,0.218l0.017,0.215l0.018,0.213l0.019,0.21l0.021,0.208l0.021,0.206l0.023,0.203l0.024,0.2l0.025,0.198l0.027,0.196l0.027,0.192l0.029,0.19l0.031,0.188l0.031,0.184l0.033,0.182l0.035,0.179l0.035,0.176l0.037,0.173l0.039,0.171l0.04,0.167l0.041,0.165l0.042,0.161l0.044,0.159l0.046,0.155l0.047,0.152l0.048,0.149l0.05,0.147l0.051,0.143l0.052,0.139l0.054,0.137l0.056,0.136l0.027,0.062l0.029,0.065l0.028,0.064l0.03,0.063l0.029,0.062l0.03,0.061l0.03,0.061l0.031,0.06l0.03,0.059l0.031,0.058l0.032,0.057l0.032,0.057l0.032,0.055l0.032,0.055l0.033,0.055l0.033,0.053l0.033,0.052l0.034,0.052l0.034,0.052l0.035,0.05l0.035,0.05l0.034,0.048l0.036,0.048l0.036,0.047l0.036,0.047l0.036,0.046l0.037,0.044l0.037,0.045l0.037,0.043l0.039,0.044l0.038,0.042l0.038,0.041l0.039,0.042l0.039,0.039l0.04,0.04l0.04,0.039l0.041,0.038l0.04,0.037l0.042,0.038l0.042,0.036l0.042,0.036l0.043,0.035l0.043,0.034l0.044,0.034l0.044,0.034l0.045,0.033l0.045,0.032l0.045,0.031l0.047,0.032l0.047,0.03l0.047,0.03l0.048,0.03l0.049,0.028l0.049,0.029l0.05,0.028l0.051,0.027l0.052,0.027l0.051,0.026l0.053,0.026l0.054,0.025l0.053,0.025l0.056,0.024l0.056,0.024l0.056,0.023l0.057,0.022l0.059,0.022l0.059,0.021l0.06,0.021l0.061,0.021l0.062,0.019l0.062,0.019l0.064,0.019l0.064,0.018l0.065,0.017l0.067,0.017l0.067,0.016l0.068,0.015l0.069,0.015l0.071,0.014l0.071,0.014l0.073,0.013l0.073,0.012l0.074,0.012l0.075,0.011l0.077,0.01l0.078,0.009l0.078,0.009l0.08,0.008l0.081,0.007l0.082,0.007l0.082,0.006l0.084,0.005l0.086,0.004l0.086,0.004l0.087,0.003l0.089,0.002l0.089,0.001l0.091,0l0.091,0l0.089,-0.001l0.089,-0.002l0.087,-0.003l0.086,-0.004l0.085,-0.004l0.085,-0.005l0.082,-0.006l0.082,-0.007l0.081,-0.007l0.079,-0.008l0.079,-0.009l0.077,-0.009l0.077,-0.01l0.075,-0.011l0.075,-0.012l0.073,-0.012l0.072,-0.013l0.071,-0.014l0.071,-0.014l0.069,-0.015l0.068,-0.015l0.068,-0.016l0.066,-0.017l0.066,-0.017l0.064,-0.018l0.064,-0.019l0.062,-0.019l0.061,-0.019l0.062,-0.021l0.06,-0.021l0.059,-0.021l0.058,-0.022l0.057,-0.022l0.057,-0.023l0.056,-0.024l0.055,-0.024l0.054,-0.025l0.054,-0.025l0.052,-0.026l0.052,-0.026l0.052,-0.027l0.05,-0.027l0.05,-0.028l0.05,-0.029l0.048,-0.028l0.048,-0.03l0.048,-0.03l0.047,-0.03l0.046,-0.032l0.046,-0.031l0.045,-0.032l0.045,-0.033l0.044,-0.033l0.044,-0.035l0.043,-0.034l0.042,-0.035l0.042,-0.036l0.042,-0.036l0.042,-0.037l0.041,-0.038l0.041,-0.038l0.04,-0.039l0.039,-0.04l0.039,-0.039l0.039,-0.042l0.039,-0.041l0.038,-0.042l0.038,-0.044l0.038,-0.043l0.037,-0.044l0.036,-0.045l0.037,-0.046l0.036,-0.047l0.036,-0.047l0.035,-0.048l0.035,-0.048l0.035,-0.05l0.034,-0.051l0.034,-0.051l0.034,-0.052l0.034,-0.052l0.033,-0.053l0.032,-0.055l0.033,-0.054l0.032,-0.056l0.032,-0.057l0.031,-0.057l0.031,-0.058l0.031,-0.059l0.031,-0.06l0.03,-0.061l0.029,-0.061l0.03,-0.062l0.029,-0.063l0.029,-0.064l0.028,-0.065l0.027,-0.062l0.057,-0.136l0.053,-0.137l0.053,-0.14l0.051,-0.142l0.05,-0.146l0.048,-0.15l0.047,-0.152l0.045,-0.155l0.044,-0.159l0.043,-0.161l0.041,-0.165l0.04,-0.167l0.038,-0.171l0.037,-0.173l0.036,-0.176l0.034,-0.179l0.033,-0.182l0.032,-0.184l0.03,-0.188l0.029,-0.19l0.028,-0.193l0.026,-0.195l0.025,-0.198l0.024,-0.2l0.023,-0.203l0.022,-0.206l0.02,-0.208l0.019,-0.21l0.019,-0.213l0.017,-0.215l0.015,-0.218l0.015,-0.219l0.014,-0.222l0.013,-0.225l0.012,-0.226l0.011,-0.229l0.01,-0.231l0.01,-0.232l0.008,-0.235l0.007,-0.237l0.007,-0.239l0.006,-0.241l0.005,-0.242l0.009,-0.493l0.006,-0.499l0.003,-0.507l0.002,-0.513l-0.001,-0.521l-0.002,-0.527l-0.003,-0.533l-0.004,-0.539l-0.011,-1.098l-0.013,-1.119l-0.011,-1.14l-0.005,-0.578l-0.003,-0.582l-0.003,-0.587l0,-0.588l3,-0.004l0,0.584Z" style="fill:#5e5e5e;"/></g></g><g id="falak"><g id="kulso-falak" serif:id="kulso falak"><rect x="471.886" y="29.812" width="95.755" height="15" style="fill:#3e3e3e;"/><rect x="615.995" y="29.812" width="22.88" height="15" style="fill:#3e3e3e;"/><rect x="397.05" y="29.812" width="50.876" height="15" style="fill:#3e3e3e;"/><path d="M527.312,8.408l-93.005,0l0,31.904l-6,0l0,-37.904l99.005,0l0,6Z" style="fill:#3e3e3e;"/><rect x="299.035" y="29.812" width="64.019" height="15" style="fill:#3e3e3e;"/><rect x="247.225" y="29.812" width="25.185" height="15" style="fill:#3e3e3e;"/><rect x="174.637" y="29.812" width="44.21" height="15" style="fill:#3e3e3e;"/><path d="M150.167,44.812l-105.355,0l0,58.076l-15,0l0,-73.076l120.355,0l0,15Z" style="fill:#3e3e3e;"/><rect x="29.812" y="129.214" width="15" height="28.323" style="fill:#3e3e3e;"/><rect x="29.812" y="180.043" width="15" height="111.324" style="fill:#3e3e3e;"/><rect x="29.812" y="321.849" width="15" height="63.404" style="fill:#3e3e3e;"/><rect x="29.812" y="370.254" width="229.73" height="15" style="fill:#3e3e3e;"/><rect x="29.812" y="370.254" width="229.73" height="15" style="fill:#3e3e3e;"/><rect x="284.678" y="370.254" width="73.599" height="15" style="fill:#3e3e3e;"/><rect x="379.623" y="370.254" width="88.396" height="15" style="fill:#3e3e3e;"/><path d="M638.875,385.254l-146.311,0l0,-15l131.311,0l0,-46.875l15,0l0,61.875Z" style="fill:#3e3e3e;"/><rect x="623.875" y="193.398" width="15" height="97.346" style="fill:#3e3e3e;"/><rect x="623.875" y="111.633" width="15" height="49.189" style="fill:#3e3e3e;"/><path d="M773.81,145.823l120.064,0l0,239.431l-269.999,0l0,-15l254.999,0l0,-209.431l-120.064,0l0,-116.011l-119.935,0l0,17.276l-15,0l0,-32.276l149.935,0l0,116.011Z" style="fill:#3e3e3e;"/><path d="M527.345,38.812l-10.551,0l0,-34.904l10.551,0l0,34.904Zm-7.551,-31.904l0,28.904l4.551,0l0,-28.904l-4.551,0Z" style="fill:#3e3e3e;"/><g id="lepcso-2" serif:id="lepcso 2"><path d="M222.954,38.812l-10.551,0l0,-34.904l10.551,0l0,34.904Zm-7.551,-31.904l0,28.904l4.551,0l0,-28.904l-4.551,0Z" style="fill:#3e3e3e;"/><path d="M215.403,38.812l-10.551,0l0,-34.904l10.551,0l0,34.904Zm-7.551,-31.904l0,28.904l4.551,0l0,-28.904l-4.551,0Z" style="fill:#3e3e3e;"/><path d="M207.852,38.812l-10.55,0l0,-34.904l10.55,0l0,34.904Zm-7.55,-31.904l0,28.904l4.55,0l0,-28.904l-4.55,0Z" style="fill:#3e3e3e;"/><path d="M200.302,38.812l-10.551,0l0,-34.904l10.551,0l0,34.904Zm-7.551,-31.904l0,28.904l4.551,0l0,-28.904l-4.551,0Z" style="fill:#3e3e3e;"/><path d="M192.751,38.812l-10.551,0l0,-34.904l10.551,0l0,34.904Zm-7.551,-31.904l0,28.904l4.551,0l0,-28.904l-4.551,0Z" style="fill:#3e3e3e;"/><path d="M185.2,38.812l-10.551,0l0,-34.904l10.551,0l0,34.904Zm-7.551,-31.904l0,28.904l4.551,0l0,-28.904l-4.551,0Z" style="fill:#3e3e3e;"/></g><path d="M519.794,38.812l-10.551,0l0,-34.904l10.551,0l0,34.904Zm-7.551,-31.904l0,28.904l4.551,0l0,-28.904l-4.551,0Z" style="fill:#3e3e3e;"/><path d="M512.243,38.812l-10.55,0l0,-34.904l10.55,0l0,34.904Zm-7.55,-31.904l0,28.904l4.55,0l0,-28.904l-4.55,0Z" style="fill:#3e3e3e;"/><path d="M504.693,38.812l-10.551,0l0,-34.904l10.551,0l0,34.904Zm-7.551,-31.904l0,28.904l4.551,0l0,-28.904l-4.551,0Z" style="fill:#3e3e3e;"/><path d="M497.142,38.812l-10.551,0l0,-34.904l10.551,0l0,34.904Zm-7.551,-31.904l0,28.904l4.551,0l0,-28.904l-4.551,0Z" style="fill:#3e3e3e;"/><path d="M489.591,38.812l-10.55,0l0,-34.904l10.55,0l0,34.904Zm-7.55,-31.904l0,28.904l4.55,0l0,-28.904l-4.55,0Z" style="fill:#3e3e3e;"/></g><g id="belso-falak" serif:id="belso falak"><path d="M428.729,286.243l-8.634,0l0,94.511l-6,0l0,-100.511l14.634,0l0,6Z" style="fill:#3e3e3e;"/><path d="M455.239,337.398l-41.144,0l0,-6l35.144,0l0,-51.155l6,0l0,57.155Z" style="fill:#3e3e3e;"/><path d="M513.706,380.8l-5.999,-0.094l1.486,-94.463l-35.626,0l0,-6l41.721,0l-1.582,100.557Z" style="fill:#3e3e3e;"/><rect x="446.576" y="280.243" width="11.616" height="6" style="fill:#3e3e3e;"/><rect x="420.321" y="34.312" width="6" height="85.144" style="fill:#3e3e3e;"/><rect x="491.404" y="34.312" width="6" height="85.144" style="fill:#3e3e3e;"/><rect x="323.707" y="34.312" width="6" height="149.366" style="fill:#3e3e3e;"/><path d="M196.307,37.312l0,79.144" style="fill:#d9a03e;"/><rect x="193.307" y="34.312" width="6" height="85.144" style="fill:#3e3e3e;"/><rect x="140.255" y="322.425" width="6" height="58.328" style="fill:#3e3e3e;"/><rect x="34.312" y="140.81" width="111.943" height="6" style="fill:#3e3e3e;"/><rect x="34.312" y="243.091" width="145.541" height="6" style="fill:#3e3e3e;"/><rect x="230.346" y="243.091" width="189.749" height="6" style="fill:#3e3e3e;"/><rect x="456.837" y="243.091" width="177.538" height="6" style="fill:#3e3e3e;"/><rect x="140.255" y="168.164" width="6" height="132.959" style="fill:#3e3e3e;"/><rect x="140.255" y="34.312" width="6" height="85.144" style="fill:#3e3e3e;"/><rect x="323.707" y="207.709" width="96.388" height="6" style="fill:#3e3e3e;"/><rect x="414.095" y="210.709" width="6" height="72.534" style="fill:#3e3e3e;"/><rect x="323.707" y="207.709" width="6" height="173.045" style="fill:#3e3e3e;"/><path d="M289.449,285.96l-53.103,0l0,53.274l-6,0l0,-59.274l53.103,0l0,-36.869l6,0l0,42.869Z" style="fill:#3e3e3e;"/><rect x="230.346" y="360.536" width="6" height="20.218" style="fill:#3e3e3e;"/><path d="M222.94,8.408l-214.532,0l0,365.066l28.904,0l0,6l-34.904,0l0,-377.066l220.532,0l0,6Z" style="fill:#3e3e3e;"/></g></g><g id="ablakok"><path d="M623.495,37.312l-63.353,0" style="fill:none;stroke:#619cf3;stroke-width:15px;"/><path d="M404.55,37.312l-48.996,0" style="fill:none;stroke:#619cf3;stroke-width:15px;"/><path d="M306.535,37.312l-41.625,0" style="fill:none;stroke:#619cf3;stroke-width:15px;"/><path d="M254.725,37.312l-43.378,0" style="fill:none;stroke:#619cf3;stroke-width:15px;"/><path d="M37.312,95.388l0,41.326" style="fill:none;stroke:#619cf3;stroke-width:15px;"/><path d="M37.312,150.037l0,37.506" style="fill:none;stroke:#619cf3;stroke-width:15px;"/><path d="M37.312,283.867l0,45.482" style="fill:none;stroke:#619cf3;stroke-width:15px;"/><path d="M252.043,377.754l40.135,0" style="fill:none;stroke:#619cf3;stroke-width:15px;"/><path d="M350.776,377.754l36.347,0" style="fill:none;stroke:#619cf3;stroke-width:15px;"/><path d="M460.519,377.754l39.545,0" style="fill:none;stroke:#619cf3;stroke-width:15px;"/><path d="M631.375,330.879l0,-47.636" style="fill:none;stroke:#619cf3;stroke-width:15px;"/><path d="M631.375,119.133l0,-64.545" style="fill:none;stroke:#619cf3;stroke-width:15px;"/></g></svg>